<?xml version="1.0" standalone="no"?>
<!DOCTYPE svg PUBLIC "-//W3C//DTD SVG 20010904//EN"
 "http://www.w3.org/TR/2001/REC-SVG-20010904/DTD/svg10.dtd">
<svg version="1.0" xmlns="http://www.w3.org/2000/svg"
 width="2222.000000pt" height="1920.000000pt" viewBox="0 0 2222.000000 1920.000000"
 preserveAspectRatio="xMidYMid meet">

<defs>
<filter id="invertAlpha"><feComponentTransfer><feFuncA type="table" tableValues="1 0"/></feComponentTransfer></filter>
</defs>

<g transform="translate(0.000000,1920.000000) scale(0.100000,-0.100000)"
fill="white" stroke="none" filter="url(#invertAlpha)">
<path d="M4014 14589 c-3 -6 2 -19 12 -29 27 -25 764 -628 1399 -1145 297
-242 725 -590 950 -775 226 -184 547 -445 712 -580 l302 -245 1 -675 c0 -371
-3 -927 -7 -1236 l-6 -561 -116 -6 c-64 -4 -267 -16 -451 -27 -184 -11 -508
-29 -720 -40 -609 -32 -692 -44 -757 -112 -50 -53 -63 -89 -63 -171 l0 -75
-33 -6 c-38 -7 -70 -37 -88 -81 -7 -17 -14 -99 -17 -192 l-4 -163 -40 0 c-59
0 -124 -19 -147 -44 -42 -45 -45 -98 -35 -674 l9 -544 28 -24 c22 -18 40 -24
78 -24 32 0 49 -4 47 -11 -2 -6 -172 -93 -378 -193 -861 -420 -1330 -656
-1336 -671 -10 -25 2 -29 43 -12 21 8 402 196 846 416 444 221 812 401 816
401 5 0 18 -17 28 -37 36 -76 105 -68 147 16 14 27 37 58 52 70 26 21 32 21
623 20 389 0 591 -4 581 -10 -49 -32 -324 -194 -570 -336 -391 -227 -862 -504
-878 -516 -8 -6 -9 -14 -4 -19 6 -6 31 1 63 17 62 32 687 396 1114 650 372
221 363 217 432 213 l56 -3 18 -55 c21 -66 48 -90 100 -90 34 0 42 5 59 33 11
17 23 49 26 69 8 45 6 44 124 105 52 27 138 76 190 110 219 139 1159 687 1167
680 2 -3 -21 -61 -51 -128 l-56 -124 -223 -166 c-122 -92 -341 -252 -487 -356
-146 -104 -309 -222 -363 -261 -54 -40 -151 -110 -215 -156 -108 -76 -547
-391 -669 -480 -52 -37 -61 -50 -44 -60 16 -10 221 134 781 549 157 116 407
299 555 407 149 108 350 255 445 327 96 72 178 131 183 131 4 0 -18 -50 -48
-110 -116 -231 -157 -376 -175 -610 -6 -80 -14 -155 -16 -167 -3 -12 -38 -52
-77 -89 -183 -174 -427 -417 -423 -422 8 -7 55 36 289 261 205 197 208 199
202 161 -16 -116 -39 -321 -75 -674 -97 -954 -118 -1045 -310 -1370 -87 -148
-62 -110 -1167 -1735 -187 -275 -345 -511 -352 -524 -15 -27 -3 -45 25 -39 23
4 58 55 1202 1738 429 631 498 763 557 1054 33 164 47 279 100 781 25 237 56
522 70 635 13 113 31 282 40 375 24 249 39 304 138 520 32 72 94 207 137 301
43 94 113 263 155 375 42 112 102 264 133 337 l56 134 32 -69 c37 -78 43 -73
14 12 -22 63 -25 102 -10 125 8 12 12 11 32 -7 13 -12 36 -27 52 -33 24 -9 21
-4 -20 34 -46 42 -48 46 -35 68 43 69 161 311 177 361 16 53 21 58 58 69 60
18 121 82 140 148 28 94 48 249 44 347 -3 76 -8 98 -26 122 -12 17 -22 33 -22
37 0 3 42 4 93 2 105 -5 179 -35 217 -88 24 -34 59 -168 92 -350 18 -103 22
-163 22 -335 1 -252 -2 -264 -135 -655 -84 -247 -151 -486 -180 -640 -16 -87
-20 -93 -84 -129 -53 -30 -139 -100 -132 -107 2 -2 39 16 83 41 43 25 86 44
94 42 12 -2 14 -19 11 -101 -3 -90 7 -311 14 -304 2 2 8 82 15 178 14 208 27
257 87 322 38 40 129 108 145 108 7 0 19 -441 12 -467 -4 -12 -25 -34 -49 -47
-50 -30 -105 -89 -105 -114 0 -11 6 -7 19 14 10 16 41 45 68 62 46 30 80 42
70 24 -3 -4 -2 -230 2 -502 8 -465 9 -499 29 -560 41 -125 111 -221 212 -288
130 -87 269 -112 610 -112 l247 0 11 -50 c6 -27 49 -152 95 -277 102 -276 98
-266 91 -223 -3 19 -31 103 -61 185 -78 212 -126 355 -121 360 2 3 432 6 954
7 l951 3 -91 -49 c-201 -107 -345 -215 -512 -382 -161 -162 -712 -784 -1014
-1144 -204 -245 -360 -385 -705 -635 -104 -76 -226 -166 -270 -200 -173 -134
-346 -347 -639 -782 -155 -231 -170 -264 -122 -263 16 1 45 36 120 148 362
537 493 700 681 847 44 34 159 120 255 190 353 257 509 397 715 640 145 171
403 469 589 680 419 474 547 600 732 725 107 72 379 213 529 275 170 70 380
183 442 238 33 28 91 75 129 102 82 60 121 125 130 222 l7 62 65 -97 c74 -111
79 -118 88 -110 3 4 -26 53 -65 111 -38 57 -90 145 -116 194 -25 50 -61 108
-79 129 -18 22 -52 67 -75 102 -50 74 -99 132 -112 132 -6 0 8 -27 31 -59 22
-33 40 -62 40 -65 0 -2 -26 3 -57 11 -32 9 -102 16 -155 17 l-98 1 0 104 c0
94 1 103 18 96 9 -4 51 -10 92 -12 60 -4 86 -1 130 16 62 23 202 130 249 190
43 54 80 138 93 213 6 35 13 65 15 68 2 2 63 -55 136 -126 73 -72 215 -209
317 -305 221 -208 708 -668 802 -758 37 -34 72 -61 79 -59 14 5 -94 110 -711
695 -648 614 -617 582 -640 677 -36 141 -95 218 -205 267 -67 30 -146 35 -243
15 -45 -9 -89 -19 -97 -22 -13 -5 -15 13 -15 131 l0 137 28 -18 c64 -42 105
-56 171 -56 72 0 127 17 208 62 l52 30 168 -123 c92 -67 222 -160 288 -207
218 -152 568 -402 695 -495 69 -51 271 -197 450 -326 179 -128 453 -328 610
-443 406 -298 445 -326 464 -326 51 0 39 9 -994 754 -300 217 -766 547 -1320
935 -151 106 -288 205 -303 220 l-29 28 284 6 283 6 105 -68 c145 -93 199
-125 820 -481 501 -288 1084 -627 1840 -1071 162 -95 362 -212 445 -261 103
-60 153 -84 160 -77 7 7 4 15 -10 25 -90 68 -1583 936 -2482 1445 -274 155
-576 327 -672 383 l-173 101 232 6 233 7 146 -68 c80 -37 290 -135 466 -217
176 -83 448 -210 605 -283 157 -73 463 -217 680 -320 732 -348 1223 -581 1610
-765 212 -100 453 -215 535 -255 83 -40 217 -103 298 -141 l149 -69 289 0 289
0 0 3389 0 3389 533 212 c292 116 538 218 546 225 13 12 12 15 -1 20 -17 7
-444 -155 -843 -320 l-260 -107 -90 6 c-49 3 -150 6 -222 7 -73 1 -133 5 -133
9 0 4 21 15 48 25 26 10 117 50 202 90 131 62 571 258 1150 513 84 37 136 66
138 76 2 9 -2 16 -10 16 -37 0 -1370 -589 -1615 -714 l-53 -26 -2 -3374 -3
-3373 -103 48 -102 48 2 3412 3 3412 295 137 c162 75 446 208 630 295 184 86
470 220 635 297 165 76 307 146 315 153 63 63 -162 -25 -565 -220 -88 -43
-272 -130 -410 -195 -137 -65 -369 -174 -515 -242 -146 -69 -300 -141 -342
-161 l-78 -36 0 -3416 c0 -2730 -3 -3416 -12 -3412 -7 3 -188 88 -403 190
-735 347 -931 440 -1375 647 -245 114 -593 277 -775 362 -181 86 -411 192
-510 238 -567 261 -1131 523 -1136 528 -4 4 -8 803 -10 1777 l-4 1769 1245
999 c685 549 1455 1166 1712 1370 257 205 467 376 467 380 1 4 -5 10 -13 13
-15 6 -175 -119 -841 -654 -187 -151 -676 -543 -1087 -872 -411 -330 -836
-672 -945 -761 -109 -88 -278 -225 -375 -304 l-177 -143 -766 -7 c-679 -7
-765 -9 -765 -23 0 -14 79 -15 754 -9 l754 6 6 -502 c3 -276 9 -1072 12 -1768
6 -1170 5 -1266 -10 -1272 -19 -7 -1016 -23 -1016 -16 0 3 10 32 22 64 46 129
33 368 -27 492 -39 79 -130 158 -211 183 -100 30 -163 25 -276 -25 -16 -6 -18
1 -18 79 l0 86 83 41 c235 118 365 237 442 404 95 204 64 380 -78 449 -114 56
-273 54 -388 -4 l-59 -30 0 771 c0 849 -1 858 -62 989 -62 129 -214 250 -354
280 -33 7 -470 10 -1344 8 l-1295 -3 -60 -23 c-177 -66 -317 -228 -362 -419
-14 -59 -17 -177 -20 -925 -3 -472 -7 -858 -11 -858 -4 0 -16 7 -27 16 -36 27
-144 54 -219 54 -63 0 -78 -4 -119 -30 -76 -48 -91 -90 -142 -395 -51 -303
-71 -371 -164 -550 -37 -71 -108 -214 -158 -317 l-90 -187 -5 222 c-5 225 -10
256 -45 273 -10 5 -228 10 -484 12 l-467 3 -58 167 -59 167 0 1268 0 1267 770
0 c904 0 1225 7 1225 27 0 11 -170 13 -1003 13 l-1004 0 -639 522 c-351 287
-810 662 -1019 832 -700 570 -998 814 -1360 1111 -198 162 -363 295 -367 295
-4 0 -10 -5 -14 -11z m15359 -1675 l187 -6 0 -3359 0 -3359 -265 0 -265 0 0
3370 0 3370 78 -5 c42 -3 161 -8 265 -11z m-6863 -925 c186 -30 329 -168 375
-361 22 -94 22 -2768 0 -2903 -19 -115 -19 -262 0 -343 11 -45 16 -133 18
-305 l2 -242 -57 -100 c-74 -131 -92 -195 -85 -300 7 -94 24 -148 74 -230 l37
-60 4 -155 4 -155 -41 -63 c-78 -120 -86 -140 -86 -227 0 -96 29 -169 94 -234
33 -33 41 -48 41 -78 0 -80 -93 -215 -185 -269 -94 -54 -75 -54 -1423 -54
-1227 0 -1245 0 -1325 21 -166 42 -270 120 -329 244 -58 124 -57 117 -58 1327
l0 1107 25 102 c61 255 54 558 -22 869 l-28 115 0 920 c0 850 1 925 18 985 59
218 201 356 400 389 78 13 2467 13 2547 0z m834 -1981 c60 -18 121 -83 134
-143 34 -159 -87 -379 -281 -513 -69 -48 -203 -122 -219 -122 -5 0 -8 157 -8
349 l0 349 48 31 c86 55 232 77 326 49z m-4199 -239 c20 -38 20 -210 0 -325
-26 -147 -71 -220 -148 -239 -25 -7 -26 -6 -17 27 5 18 23 128 40 243 34 229
44 279 66 312 17 27 39 21 59 -18z m-1741 -554 c47 -132 84 -268 96 -353 12
-78 11 -275 -1 -286 -3 -4 -78 -26 -167 -51 -89 -25 -179 -52 -201 -61 -33
-13 -48 -14 -98 -4 -38 8 -249 14 -625 17 l-568 5 -5 32 c-2 17 -14 89 -26
159 -21 131 -84 379 -119 467 -11 27 -16 52 -11 54 5 3 292 22 637 41 346 20
717 42 824 49 107 8 204 13 215 12 16 -1 26 -19 49 -81z m-1777 -70 c26 -48
87 -244 114 -370 22 -100 50 -287 44 -293 -2 -3 -83 -7 -179 -10 l-175 -5 -10
24 c-19 44 -111 466 -111 509 0 23 7 58 17 77 30 63 137 114 233 110 41 -2 46
-5 67 -42z m7618 -196 c74 -27 156 -103 185 -171 16 -38 25 -82 30 -153 3 -55
4 -106 2 -113 -3 -8 -21 20 -41 61 -64 129 -155 216 -266 254 -78 26 -73 8 7
-30 135 -62 219 -164 268 -322 37 -122 7 -186 -118 -247 -117 -58 -217 -42
-304 49 -52 54 -70 103 -75 208 -5 110 27 363 51 400 20 30 53 53 104 71 53
19 93 17 157 -7z m-4875 -220 l0 -161 -57 6 c-32 3 -217 9 -410 12 l-353 7 0
142 c0 78 3 145 7 148 3 4 188 7 410 7 l403 0 0 -161z m120 132 c6 -12 10
-109 10 -245 l0 -225 -37 -26 c-21 -14 -43 -25 -50 -25 -10 0 -13 59 -13 270
l0 270 40 0 c29 0 42 -5 50 -19z m-3170 -179 c24 -98 45 -183 47 -189 4 -10
-18 -13 -90 -13 l-94 0 -7 48 c-8 58 2 245 16 290 6 19 19 37 31 41 48 18 53
8 97 -177z m2990 -150 l55 -7 3 -102 3 -102 -93 -47 c-96 -48 -359 -190 -496
-268 -132 -75 -639 -325 -646 -319 -3 4 -6 66 -6 139 l0 132 48 17 c26 10 153
59 282 111 359 142 400 156 416 143 11 -9 15 -7 20 5 11 29 -5 66 -34 78 -16
6 -175 15 -382 22 l-355 11 -3 31 c-3 28 1 33 38 48 98 39 370 110 450 117 99
8 619 2 700 -9z m-1458 -108 l45 -6 -15 -42 c-12 -35 -13 -125 -7 -603 6 -471
5 -563 -6 -564 -8 0 -432 0 -943 0 -829 0 -931 2 -945 16 -21 20 -33 372 -29
832 3 294 5 324 21 340 14 14 41 19 130 24 157 8 1694 10 1749 3z m205 -31
c17 -25 18 -70 21 -558 l3 -530 -77 -38 c-42 -21 -78 -36 -80 -34 -2 2 -5 257
-6 568 -3 526 -2 567 15 592 15 23 25 27 62 27 37 0 47 -4 62 -27z m2433 -297
l0 -244 -54 -31 c-30 -17 -71 -44 -90 -62 -20 -17 -36 -28 -36 -24 0 52 162
605 177 605 2 0 3 -110 3 -244z m-1025 127 c-47 -132 -55 -136 -55 -30 l0 87
38 19 c20 11 40 20 44 21 4 0 -8 -44 -27 -97z m-672 71 c31 -4 57 -10 57 -14
0 -3 -44 -21 -97 -40 -54 -18 -172 -62 -263 -97 -208 -81 -324 -123 -344 -123
-14 0 -16 20 -16 147 l0 146 303 -7 c166 -3 328 -9 360 -12z m587 -133 l0 -98
-52 -29 c-29 -16 -98 -55 -153 -87 -55 -33 -201 -116 -325 -187 -124 -70 -333
-191 -464 -269 -131 -77 -243 -141 -247 -141 -5 0 -9 58 -9 128 0 110 3 131
18 144 9 8 164 89 343 180 179 91 379 196 445 234 160 91 416 224 432 224 9 0
12 -26 12 -99z m4937 -280 c164 -75 222 -328 116 -511 -41 -71 -155 -177 -226
-211 -113 -53 -230 -33 -297 51 -60 76 -75 124 -75 245 1 98 4 117 29 175 40
93 111 195 152 221 83 51 223 65 301 30z m-8087 -753 c-11 -18 -26 -43 -32
-55 -21 -42 -78 -24 -78 25 0 49 16 62 76 62 l56 0 -22 -32z m1634 -10 c-8
-54 -21 -70 -53 -66 -19 2 -30 14 -48 56 l-23 52 65 0 65 0 -6 -42z m6374
-334 c60 -30 125 -99 156 -164 16 -35 21 -64 21 -136 0 -83 -2 -94 -30 -140
-59 -94 -122 -112 -282 -79 -91 19 -114 28 -169 65 -83 58 -123 168 -100 280
12 57 52 136 81 160 27 22 106 39 191 39 67 1 89 -3 132 -25z m-168 -579 c36
-8 80 -15 98 -15 72 0 21 -41 -175 -139 -79 -39 -145 -71 -149 -71 -3 0 13 21
35 46 42 47 81 135 81 181 0 22 3 24 23 19 12 -4 51 -13 87 -21z"/>
<path d="M11933 11765 c-95 -41 -92 -181 4 -222 75 -31 163 27 163 108 0 54
-22 93 -64 113 -41 19 -61 20 -103 1z m115 -30 c38 -32 48 -72 28 -118 -20
-50 -56 -71 -109 -64 -128 17 -110 205 20 207 19 0 43 -10 61 -25z"/>
<path d="M10903 11751 c-39 -25 -54 -50 -56 -101 -1 -44 24 -87 64 -107 38
-20 598 -18 645 2 70 29 83 131 24 190 l-30 30 -308 3 c-290 2 -309 1 -339
-17z m635 -57 c26 -18 29 -60 5 -86 -15 -17 -38 -18 -314 -18 -296 0 -298 0
-313 22 -21 30 -20 54 4 78 19 19 33 20 308 20 244 0 291 -2 310 -16z"/>
<path d="M10060 11311 c-56 -17 -91 -43 -112 -84 l-23 -42 0 -2250 c0 -2132 1
-2252 18 -2282 9 -18 32 -41 50 -50 30 -17 106 -18 1221 -21 l1189 -2 45 21
c33 16 49 32 63 63 18 40 19 116 19 2262 0 2457 4 2297 -63 2348 -18 13 -50
29 -72 35 -46 13 -2294 14 -2335 2z m2381 -89 l29 -32 0 -353 0 -354 -142
-141 c-79 -77 -161 -155 -183 -171 l-40 -30 -878 -1 -878 0 -131 123 c-72 67
-155 145 -185 172 l-55 50 -1 340 c-2 308 0 343 16 372 36 67 -48 63 1245 60
l1174 -2 29 -33z m-2259 -945 l158 -152 6 -905 6 -905 -184 -142 c-100 -78
-184 -141 -185 -140 -1 1 -3 550 -6 1219 l-4 1218 26 -20 c14 -11 97 -89 183
-173z m2286 -1639 l-3 -613 -78 72 c-42 40 -120 107 -172 149 l-95 78 0 905 0
906 38 28 c21 16 99 89 173 163 l134 134 3 -604 c1 -332 1 -880 0 -1218z
m-370 590 l-3 -903 -861 -3 -861 -2 -6 667 c-4 368 -7 775 -7 906 l0 237 870
0 870 0 -2 -902z m89 -980 c44 -35 125 -103 181 -153 l102 -90 0 -189 c0 -104
-2 -187 -3 -185 -2 2 -98 121 -212 264 -115 143 -236 292 -269 330 l-60 70 90
6 c49 3 90 6 91 7 1 1 37 -26 80 -60z m-1607 48 c0 -10 -297 -356 -592 -690
-4 -6 -8 82 -8 195 l0 205 88 69 c48 38 133 104 190 147 l103 78 109 0 c61 0
110 -2 110 -4z m278 -4 c-24 -60 -394 -775 -661 -1277 -93 -176 -174 -329
-180 -339 -9 -19 -10 -19 -23 -1 -11 15 -14 102 -14 457 l0 438 137 157 c75
87 171 197 212 244 42 47 121 141 176 207 l100 122 128 0 c71 0 127 -4 125 -8z
m202 -379 c-42 -214 -110 -557 -149 -763 -40 -206 -80 -405 -88 -442 l-15 -68
-383 0 c-241 0 -386 4 -390 10 -3 5 77 166 178 357 246 465 443 845 566 1091
l101 202 129 0 128 0 -77 -387z m320 383 c0 -2 65 -374 145 -825 80 -451 145
-823 145 -826 0 -3 -189 -5 -421 -5 l-421 0 5 23 c3 12 56 281 117 597 61 316
132 680 157 808 l46 232 114 0 c62 0 113 -2 113 -4z m373 -171 c43 -93 137
-298 209 -455 148 -326 335 -732 414 -900 39 -83 50 -116 41 -122 -7 -4 -173
-8 -369 -8 l-357 0 -10 53 c-6 28 -47 257 -90 507 -44 250 -105 595 -136 765
-30 171 -55 316 -55 323 0 10 31 12 137 10 l137 -3 79 -170z m217 98 c92 -111
470 -584 485 -608 10 -15 14 -128 18 -449 4 -409 0 -502 -24 -494 -5 2 -98
194 -205 428 -108 234 -270 585 -361 780 -91 195 -171 370 -179 388 l-14 32
108 0 107 0 65 -77z"/>
<path d="M10900 10500 c14 -4 36 -8 50 -8 22 0 22 1 -5 8 -16 4 -39 8 -50 8
-16 0 -15 -2 5 -8z"/>
<path d="M10760 10484 c-31 -8 -37 -13 -20 -13 14 0 39 6 55 14 37 17 24 16
-35 -1z"/>
<path d="M11005 10480 c17 -4 41 -8 55 -8 22 0 22 1 -5 8 -16 4 -41 8 -55 8
-22 0 -22 -1 5 -8z"/>
<path d="M10673 10463 c9 -2 23 -2 30 0 6 3 -1 5 -18 5 -16 0 -22 -2 -12 -5z"/>
<path d="M11098 10463 c6 -2 18 -2 25 0 6 3 1 5 -13 5 -14 0 -19 -2 -12 -5z"/>
<path d="M10613 10453 c9 -2 23 -2 30 0 6 3 -1 5 -18 5 -16 0 -22 -2 -12 -5z"/>
<path d="M11148 10453 c7 -3 16 -2 19 1 4 3 -2 6 -13 5 -11 0 -14 -3 -6 -6z"/>
<path d="M10568 10443 c7 -3 16 -2 19 1 4 3 -2 6 -13 5 -11 0 -14 -3 -6 -6z"/>
<path d="M11206 10436 c18 -8 35 -19 38 -25 9 -15 -70 -86 -146 -133 -34 -21
-57 -38 -51 -38 19 0 158 96 185 129 15 17 25 38 22 45 -5 14 -47 36 -67 36
-7 -1 2 -7 19 -14z"/>
<path d="M10497 10423 c-20 -19 -4 -52 41 -83 l47 -33 -45 41 c-41 36 -44 42
-32 61 11 20 4 29 -11 14z"/>
<path d="M10590 10305 c0 -7 141 -77 146 -73 2 2 -30 21 -71 41 -41 20 -75 35
-75 32z"/>
<path d="M10770 10219 c24 -7 196 -11 175 -4 -5 2 -53 5 -105 8 -52 2 -84 1
-70 -4z"/>
<path d="M10968 10223 c6 -2 18 -2 25 0 6 3 1 5 -13 5 -14 0 -19 -2 -12 -5z"/>
<path d="M10753 6203 c-7 -2 -13 -16 -13 -29 l0 -24 510 0 c447 0 511 2 516
15 4 8 1 22 -6 30 -11 13 -80 15 -504 14 -270 0 -497 -3 -503 -6z"/>
<path d="M13026 7698 c-31 -23 -56 -44 -56 -47 0 -3 26 -22 57 -41 103 -64
159 -163 177 -312 4 -32 12 -58 17 -58 18 0 100 84 126 128 20 33 27 63 31
116 8 122 -38 191 -158 237 -83 31 -128 26 -194 -23z m214 -16 c35 -18 65 -42
85 -70 26 -38 30 -52 30 -110 -1 -76 -20 -122 -80 -187 -42 -45 -48 -41 -59
40 -8 61 -53 160 -92 200 -16 17 -49 47 -74 67 -44 36 -45 37 -25 53 64 52
123 54 215 7z"/>
<path d="M12966 6752 c-3 -5 10 -36 29 -68 51 -85 68 -151 63 -246 l-5 -78 32
0 c17 0 56 7 86 16 115 34 173 138 134 239 -20 55 -57 87 -132 115 -64 25
-196 39 -207 22z m165 -38 c126 -37 165 -81 157 -179 -4 -51 -9 -62 -41 -91
-34 -31 -78 -49 -140 -56 l-28 -3 -2 100 c-2 87 -7 110 -34 173 l-31 72 32 0
c18 0 57 -7 87 -16z"/>
<path d="M17285 12962 c-77 -43 -286 -164 -465 -268 -179 -105 -433 -253 -565
-329 -132 -76 -316 -184 -410 -240 l-170 -103 -3 -1439 c-2 -1141 1 -1442 10
-1455 9 -11 140 -38 463 -97 717 -129 1248 -221 1277 -221 l28 0 1 478 c7
2596 3 3752 -13 3752 -7 0 -76 -35 -153 -78z m123 -149 l-3 -168 -115 -61
c-431 -226 -547 -286 -725 -371 -110 -52 -246 -115 -302 -140 l-102 -45 -187
7 -186 7 123 73 c68 39 228 132 354 205 127 73 266 154 310 180 44 26 211 123
370 215 160 92 326 189 370 215 44 27 83 49 88 49 4 1 6 -74 5 -166z m0 -3809
c-2 -1 -46 6 -98 16 -52 9 -184 32 -293 50 l-197 33 2 1601 3 1601 255 132
c140 73 271 141 290 152 l35 19 3 -1801 c1 -990 1 -1801 0 -1803z m-605 1699
c-3 -874 -7 -1590 -9 -1592 -4 -4 -529 82 -591 96 l-23 5 0 1390 0 1389 73 32
c39 17 178 84 307 148 129 65 238 118 242 118 3 1 4 -713 1 -1586z m-735 1291
l72 -6 0 -1389 0 -1389 -22 -5 c-48 -11 -200 -35 -262 -41 l-66 -7 -2 1379 -3
1379 -2 -1377 -3 -1378 -30 0 -30 0 0 1424 0 1424 138 -4 c75 -3 170 -7 210
-10z m680 -2919 c312 -52 587 -98 612 -103 l45 -7 3 -59 3 -58 -28 7 c-26 6
-1170 212 -1416 254 -60 11 -111 22 -114 25 -4 3 18 6 48 7 30 0 88 6 129 13
41 8 92 14 113 15 21 0 294 -42 605 -94z"/>
<path d="M16650 10730 c0 -60 4 -100 10 -100 6 0 10 40 10 100 0 60 -4 100
-10 100 -6 0 -10 -40 -10 -100z"/>
<path d="M8259 12596 c-56 -20 -147 -41 -215 -51 -325 -46 -454 -78 -503 -124
-51 -48 -30 -77 140 -191 221 -147 456 -245 620 -257 86 -6 311 11 413 32 130
27 273 112 473 280 138 115 144 143 40 184 -90 35 -154 49 -457 103 -378 66
-389 66 -511 24z m481 -39 c377 -67 523 -106 537 -144 5 -12 -12 -34 -58 -76
-147 -135 -353 -272 -454 -301 -121 -35 -378 -59 -485 -45 -156 21 -390 123
-591 257 -117 79 -152 112 -147 138 8 45 148 86 435 129 128 18 212 37 280 60
123 43 139 42 483 -18z"/>
<path d="M8320 12552 c-14 -2 -54 -17 -90 -32 -46 -20 -102 -33 -190 -45 -212
-27 -335 -57 -353 -87 -30 -47 51 -142 170 -199 47 -22 87 -38 90 -35 3 2 -28
20 -69 39 -40 18 -90 48 -110 66 -45 40 -82 96 -75 116 11 27 117 52 404 94
40 6 107 25 148 41 92 36 114 37 198 5 36 -13 112 -32 169 -40 117 -19 379
-79 408 -95 61 -33 -24 -109 -242 -220 -90 -45 -152 -79 -138 -75 58 16 309
147 357 187 58 48 69 73 48 104 -11 18 -45 29 -162 58 -81 19 -195 42 -253 51
-58 9 -132 25 -165 37 -76 27 -114 35 -145 30z"/>
<path d="M8638 12523 c7 -3 16 -2 19 1 4 3 -2 6 -13 5 -11 0 -14 -3 -6 -6z"/>
<path d="M8800 12489 c74 -16 161 -34 194 -40 144 -30 158 -135 27 -209 -34
-19 -97 -58 -141 -87 -84 -54 -163 -85 -276 -107 -38 -8 -59 -15 -47 -15 34
-2 153 26 215 49 30 11 80 38 110 59 30 21 83 53 118 72 112 59 150 121 116
187 -18 35 -66 56 -163 72 -37 6 -110 20 -160 31 -51 10 -101 19 -110 18 -10
0 43 -14 117 -30z"/>
<path d="M8240 12464 c-47 -13 -130 -31 -185 -39 -150 -22 -246 -45 -251 -60
-9 -22 15 -90 39 -113 12 -12 54 -33 92 -47 91 -34 98 -41 90 -81 -7 -42 5
-49 139 -80 83 -19 126 -23 236 -22 l135 2 -145 6 c-131 6 -222 21 -318 51
-32 11 -33 13 -27 48 6 38 -10 65 -39 66 -24 0 -135 48 -155 66 -20 19 -44 86
-36 99 7 12 89 30 206 45 59 8 163 28 229 45 l121 32 72 -26 c40 -14 125 -32
190 -41 166 -22 277 -60 277 -94 0 -3 -21 -28 -47 -54 -25 -26 -42 -47 -37
-47 4 0 28 19 51 42 91 89 43 123 -237 167 -69 11 -152 29 -184 41 -74 25
-110 24 -216 -6z"/>
<path d="M8255 12404 c-49 -14 -133 -28 -185 -33 l-95 -8 75 -2 c53 -1 111 8
195 28 l120 30 45 -21 c33 -15 80 -23 175 -29 137 -9 182 -18 222 -44 l24 -16
-40 -44 c-23 -25 -41 -49 -41 -54 0 -6 -20 -22 -44 -36 -46 -27 -86 -65 -68
-65 6 0 14 5 17 10 4 6 31 26 61 45 34 22 54 42 54 54 0 10 16 31 36 46 81 62
10 100 -210 114 -103 6 -140 13 -173 29 -51 27 -55 26 -168 -4z"/>
<path d="M7878 12349 c-10 -5 -18 -14 -18 -19 0 -17 63 -81 94 -96 l31 -15
-30 23 c-44 33 -75 69 -75 85 0 7 10 18 23 23 12 5 15 9 7 9 -8 0 -23 -4 -32
-10z"/>
<path d="M8300 12342 c-41 -10 -115 -16 -202 -16 -137 -1 -138 -1 -138 -24 0
-22 43 -72 62 -72 5 0 27 -17 51 -38 23 -21 49 -43 58 -50 20 -15 238 -62 281
-61 27 1 25 3 -14 9 -26 5 -91 18 -143 30 -80 18 -103 28 -148 64 -28 23 -69
52 -89 65 -21 12 -39 27 -39 32 -6 33 -4 34 91 31 90 -4 264 18 314 38 21 9
21 9 1 8 -11 0 -49 -7 -85 -16z"/>
<path d="M8410 12310 c-159 -12 -234 -44 -210 -91 12 -21 50 -40 78 -38 9 0 3
5 -14 10 -17 5 -37 16 -44 24 -40 48 46 73 299 86 107 5 200 8 208 5 8 -3 11
-1 8 4 -7 11 -175 11 -325 0z"/>
<path d="M8055 12265 c35 -15 73 -40 95 -63 26 -29 48 -42 87 -51 29 -7 58
-11 65 -8 7 3 2 6 -12 7 -47 2 -104 29 -129 61 -25 33 -111 79 -146 79 -11 0
7 -11 40 -25z"/>
<path d="M8687 12230 l-56 -60 -51 10 c-28 5 -92 19 -141 31 -49 11 -97 19
-106 17 -20 -4 197 -58 262 -66 39 -4 44 -1 107 62 36 36 60 66 53 66 -7 0
-38 -27 -68 -60z"/>
<path d="M8313 12173 c9 -2 23 -2 30 0 6 3 -1 5 -18 5 -16 0 -22 -2 -12 -5z"/>
<path d="M8435 12141 c121 -35 214 -50 135 -22 -30 10 -80 22 -110 25 -40 4
-47 3 -25 -3z"/>
<path d="M8145 12090 c59 -17 208 -40 254 -39 42 2 40 2 -19 9 -36 5 -103 15
-149 24 -88 17 -136 20 -86 6z"/>
<path d="M8463 12073 c9 -2 23 -2 30 0 6 3 -1 5 -18 5 -16 0 -22 -2 -12 -5z"/>
<path d="M8556 12072 c-3 -5 8 -6 25 -4 16 2 29 6 29 8 0 8 -49 4 -54 -4z"/>
<path d="M8463 12043 c9 -2 23 -2 30 0 6 3 -1 5 -18 5 -16 0 -22 -2 -12 -5z"/>
<path d="M9192 8374 c6 -6 145 -44 162 -44 25 0 -10 13 -76 31 -77 20 -95 23
-86 13z"/>
<path d="M8990 7089 c-101 -95 -253 -195 -389 -254 -61 -27 -109 -50 -107 -53
10 -9 239 99 317 150 97 63 204 152 237 197 12 17 21 31 20 31 -2 -1 -37 -33
-78 -71z"/>
<path d="M11185 5749 c93 -98 165 -191 259 -336 47 -73 88 -133 91 -133 8 0
-102 178 -170 275 -71 102 -161 204 -208 237 -22 14 -12 1 28 -43z"/>
<path d="M12094 5743 c-37 -86 -39 -92 -20 -67 18 24 59 125 53 130 -2 3 -17
-26 -33 -63z"/>
<path d="M9805 5759 c-3 -19 -17 -119 -31 -224 -41 -309 -88 -484 -165 -609
-17 -27 -23 -44 -14 -36 52 43 124 224 160 403 24 123 69 486 61 495 -3 2 -7
-11 -11 -29z"/>
<path d="M10015 5524 c-64 -209 -77 -246 -142 -403 -35 -85 -61 -156 -60 -158
5 -4 69 136 118 258 40 98 132 409 125 417 -3 2 -21 -49 -41 -114z"/>
<path d="M8190 4690 c108 -98 290 -193 467 -244 159 -46 272 -61 348 -47 32 6
60 13 62 15 2 2 -36 1 -84 -1 -101 -6 -230 17 -385 67 -113 37 -200 81 -310
155 -127 85 -136 90 -98 55z"/>
<path d="M8350 4307 c0 -8 178 -121 305 -192 243 -137 349 -222 689 -555 87
-85 154 -146 148 -135 -14 27 -311 318 -442 434 -132 116 -235 186 -425 291
-83 46 -161 91 -175 100 -48 32 -100 62 -100 57z"/>
<path d="M8122 4177 c25 -24 165 -134 310 -245 144 -110 317 -247 383 -304
166 -142 379 -357 453 -456 66 -88 83 -102 30 -24 -113 167 -366 415 -653 643
-162 128 -566 426 -523 386z"/>
<path d="M8327 3490 c-43 -66 -140 -240 -216 -387 -76 -147 -162 -308 -190
-358 -29 -49 -57 -99 -63 -110 -9 -20 -9 -20 7 0 43 53 141 224 261 457 72
141 167 314 209 383 43 69 76 128 74 130 -3 2 -39 -50 -82 -115z"/>
</g>
</svg>
