<?xml version="1.0" standalone="no"?>
<!DOCTYPE svg PUBLIC "-//W3C//DTD SVG 20010904//EN"
 "http://www.w3.org/TR/2001/REC-SVG-20010904/DTD/svg10.dtd">
<svg version="1.0" xmlns="http://www.w3.org/2000/svg"
 width="1684.000000pt" height="1446.000000pt" viewBox="0 0 1684.000000 1446.000000"
 preserveAspectRatio="xMidYMid meet">

<defs>
<filter id="invertAlpha"><feComponentTransfer><feFuncA type="table" tableValues="1 0"/></feComponentTransfer></filter>
</defs>

<g transform="translate(0.000000,1446.000000) scale(0.100000,-0.100000)"
fill="white" stroke="none" filter="url(#invertAlpha)">
<path d="M0 7230 l0 -7230 8420 0 8420 0 0 7230 0 7230 -8420 0 -8420 0 0
-7230z m7626 6154 c18 -15 18 -15 -5 -8 -16 4 -21 3 -17 -5 4 -6 3 -11 -3 -11
-14 0 -23 18 -16 30 9 14 18 13 41 -6z m-56 -4 c0 -5 -13 -10 -30 -10 -16 0
-30 5 -30 10 0 6 14 10 30 10 17 0 30 -4 30 -10z m801 -77 c-9 -16 -10 -14
-11 12 0 21 3 26 11 18 8 -8 8 -16 0 -30z m-971 7 c0 -11 -4 -20 -9 -20 -5 0
-7 9 -4 20 3 11 7 20 9 20 2 0 4 -9 4 -20z m1857 -2 c-3 -8 -6 -5 -6 6 -1 11
2 17 5 13 3 -3 4 -12 1 -19z m-1320 -20 c-3 -7 -5 -2 -5 12 0 14 2 19 5 13 2
-7 2 -19 0 -25z m12 -175 c1 -63 -3 -103 -9 -103 -6 0 -10 50 -9 133 2 154 16
129 18 -30z m1412 17 c2 -102 6 -120 21 -99 8 11 9 11 5 -1 -2 -8 -11 -16 -20
-18 -15 -3 -17 9 -17 109 0 135 8 142 11 9z m-421 18 c-1 -50 -3 -59 -11 -45
-10 17 -4 107 7 107 2 0 4 -28 4 -62z m-303 10 c-3 -8 -6 -5 -6 6 -1 11 2 17
5 13 3 -3 4 -12 1 -19z m260 -35 c-3 -10 -5 -2 -5 17 0 19 2 27 5 18 2 -10 2
-26 0 -35z m490 -35 c-2 -13 -4 -3 -4 22 0 25 2 35 4 23 2 -13 2 -33 0 -45z
m-1400 -45 c-2 -16 -4 -5 -4 22 0 28 2 40 4 28 2 -13 2 -35 0 -50z m-470 -29
c-3 -3 -12 -4 -19 -1 -8 3 -5 6 6 6 11 1 17 -2 13 -5z m-259 -516 c4 -34 -14
-43 -98 -52 -121 -13 -158 -37 -175 -116 -7 -33 -7 -34 11 -19 84 69 213 44
262 -51 20 -38 23 -56 19 -112 -5 -84 -29 -126 -87 -155 -78 -40 -188 -22
-230 37 -64 90 -61 296 6 401 31 50 71 69 174 85 108 15 114 14 118 -18z
m1217 2 c17 -32 58 -49 84 -33 9 5 22 22 29 36 14 29 43 35 60 14 16 -19 -15
-75 -51 -94 -21 -10 -46 -14 -81 -10 -40 3 -55 11 -78 36 -27 30 -36 60 -21
74 15 16 44 5 58 -23z m-1745 -11 c90 -50 135 -160 119 -293 -13 -109 -70
-188 -155 -216 -61 -20 -175 -8 -224 24 -107 71 -143 252 -77 388 45 92 117
131 228 125 46 -3 80 -12 109 -28z m3287 -144 c43 -28 53 -71 53 -224 l0 -141
-27 -6 c-20 -5 -30 -2 -43 13 -15 20 -16 20 -50 1 -65 -34 -165 -15 -189 38
-16 36 -14 96 5 122 23 33 58 45 144 51 69 6 75 8 78 29 2 13 -4 34 -12 48
-23 35 -93 34 -126 -1 -24 -26 -90 -36 -90 -15 0 22 31 70 52 81 61 33 158 34
205 4z m-2595 -142 l3 -158 63 -3 62 -3 0 161 0 160 40 0 39 0 3 -157 3 -158
63 -3 62 -3 0 161 0 160 38 0 37 0 0 -157 0 -158 28 -3 28 -3 -3 -82 -3 -82
-30 0 c-29 0 -30 2 -35 50 l-5 50 -230 0 -230 0 -3 193 -2 192 35 0 34 0 3
-157z m598 38 c0 -66 3 -122 8 -124 4 -3 43 51 87 119 l80 124 43 0 42 0 -2
-192 -3 -193 -35 0 -35 0 -3 123 c-1 69 -7 122 -12 122 -9 0 -52 -63 -129
-186 -25 -41 -38 -53 -64 -57 -18 -2 -35 -3 -39 0 -5 2 -8 89 -8 194 l0 189
35 0 35 0 0 -119z m420 -8 l1 -128 24 30 c14 17 53 74 87 127 l63 98 43 0 42
0 -2 -187 -3 -188 -35 0 -35 0 -5 129 -5 128 -31 -43 c-17 -24 -54 -83 -83
-131 -39 -65 -59 -90 -78 -94 -55 -14 -58 -4 -59 200 l0 186 38 0 38 0 0 -127z
m822 -59 c2 -108 -1 -189 -6 -195 -15 -14 -52 -11 -65 5 -9 10 -12 60 -10 163
l2 148 -82 0 -83 0 1 -151 c2 -163 -3 -179 -51 -172 -23 3 -23 3 -26 196 l-2
192 159 0 160 0 3 -186z m416 -1 l-3 -188 -37 -3 -37 -3 -3 158 -3 158 -60 0
-60 0 -7 -108 c-8 -137 -31 -191 -88 -208 -48 -15 -70 -7 -70 25 0 17 8 29 28
38 37 18 52 70 59 206 l6 112 139 0 138 0 -2 -187z m552 112 l0 -75 85 0 85 0
0 75 0 75 34 0 33 0 8 -181 c8 -201 3 -218 -49 -205 -25 6 -26 8 -26 91 l0 85
-85 0 -85 0 0 -79 c0 -85 -10 -105 -52 -99 -23 3 -23 3 -26 196 l-2 192 40 0
40 0 0 -75z m-2987 -3502 c-7 -2 -21 -2 -30 0 -10 3 -4 5 12 5 17 0 24 -2 18
-5z m5574 -99 c-3 -3 -12 -4 -19 -1 -8 3 -5 6 6 6 11 1 17 -2 13 -5z m-3108
-138 c167 -35 295 -165 330 -334 7 -35 11 -252 11 -637 0 -322 1 -585 3 -585
2 0 28 8 58 17 32 10 90 17 144 17 115 1 172 -23 217 -93 27 -43 29 -52 26
-126 -2 -62 -9 -92 -30 -135 -43 -88 -167 -202 -361 -334 -56 -38 -57 -39 -57
-86 0 -25 2 -49 6 -52 3 -3 26 1 52 9 128 39 276 -36 338 -172 49 -106 50
-316 2 -411 -18 -37 -33 -50 -85 -76 -58 -28 -68 -30 -140 -25 -58 3 -86 1
-108 -11 -16 -8 -37 -18 -45 -22 -9 -4 -16 -25 -18 -55 l-3 -47 43 8 c93 16
172 8 243 -26 74 -36 112 -78 145 -166 26 -71 25 -136 -4 -206 -42 -102 -147
-227 -220 -262 -38 -18 -115 -23 -168 -12 l-38 8 0 -83 0 -84 83 0 c69 0 91
-5 139 -28 142 -70 195 -221 128 -362 -54 -114 -172 -203 -440 -334 -589 -289
-580 -282 -1024 -779 -38 -42 -87 -97 -110 -122 -40 -44 -221 -265 -261 -318
-149 -200 -306 -379 -390 -445 -44 -35 -154 -113 -243 -173 -90 -60 -205 -145
-255 -189 -134 -118 -285 -297 -414 -490 -79 -118 -95 -148 -188 -352 -60
-134 -82 -173 -96 -173 -29 0 -24 30 22 138 119 281 253 496 434 701 22 26 66
76 98 113 65 76 236 213 377 303 129 82 253 177 323 248 50 50 241 285 358
437 79 104 339 399 459 520 30 31 75 81 100 110 48 59 59 70 136 141 67 62
129 105 262 179 61 34 112 64 112 66 0 2 -70 4 -156 4 -143 0 -155 -1 -150
-17 2 -10 7 -33 11 -50 10 -52 -12 -40 -28 15 l-14 47 -322 3 c-176 1 -321 0
-321 -4 0 -14 26 -53 70 -104 79 -93 200 -280 200 -311 0 -22 -26 -6 -39 24
-20 46 -153 246 -194 292 -11 11 -33 39 -50 63 l-30 42 -219 0 c-120 0 -218
-2 -218 -5 0 -3 18 -45 41 -93 59 -126 138 -357 126 -369 -9 -8 -27 7 -27 22
0 33 -62 204 -120 330 -16 35 -32 76 -36 90 l-6 25 -258 0 c-225 0 -264 2
-312 19 l-54 19 -1 -157 c-1 -158 -17 -262 -59 -388 -21 -60 -69 -160 -94
-193 -35 -46 -30 -14 9 66 87 178 113 287 119 504 l4 176 -47 38 c-53 44 -85
90 -85 124 0 35 22 25 67 -33 30 -37 60 -62 100 -82 l58 -28 1060 0 1060 0 59
30 c72 36 125 95 150 166 11 30 21 59 23 66 3 6 -13 31 -35 55 -59 64 -75 103
-75 178 0 78 22 127 82 185 l41 40 0 109 c0 103 -2 112 -24 135 -14 15 -41 53
-60 85 -32 53 -36 68 -36 128 0 77 33 162 89 232 l31 39 0 202 c0 165 -3 210
-16 241 -22 52 -22 211 0 279 14 45 16 165 16 1108 0 929 -2 1067 -16 1128
-29 126 -108 211 -232 249 -66 20 -86 20 -1072 18 l-1005 -3 -60 -24 c-67 -27
-151 -104 -182 -167 -43 -87 -44 -112 -41 -899 3 -542 7 -762 16 -795 28 -105
36 -175 36 -340 1 -160 -2 -184 -27 -279 l-27 -104 0 -911 0 -911 -23 35 c-22
35 -22 36 -27 603 l-5 569 -25 -22 c-91 -81 -110 -92 -125 -80 -12 10 -17 6
-32 -24 -15 -32 -16 -48 -5 -163 16 -167 16 -216 0 -211 -8 3 -17 42 -24 104
-18 159 -27 224 -29 224 -1 0 -20 -6 -41 -14 -71 -24 -114 -29 -114 -11 0 10
10 15 33 15 17 0 55 14 84 30 58 34 58 33 113 245 16 61 42 153 59 206 17 53
31 101 31 108 0 6 -15 11 -33 11 -37 0 -127 28 -127 39 0 16 12 18 48 6 20 -7
58 -16 83 -19 39 -6 47 -4 52 11 4 10 13 36 22 58 89 228 116 459 81 705 -19
135 -38 193 -81 256 -47 68 -85 100 -133 114 -39 11 -102 14 -102 5 0 -3 10
-25 21 -48 43 -83 19 -293 -45 -400 -28 -46 -35 -52 -69 -55 -34 -3 -40 -8
-63 -55 -31 -61 -95 -170 -104 -177 -4 -3 -19 -27 -34 -54 -23 -42 -26 -52
-14 -60 62 -47 91 -77 82 -86 -6 -6 -26 5 -57 31 l-47 41 -19 -45 c-32 -75
-31 -89 9 -100 37 -9 57 -23 48 -32 -3 -4 -23 1 -44 10 -36 15 -39 15 -51 -1
-7 -10 -13 -24 -13 -31 0 -7 -4 -21 -10 -31 -13 -24 -51 -110 -100 -232 -24
-58 -61 -139 -83 -180 -115 -219 -164 -311 -197 -371 -72 -127 -88 -193 -100
-411 -10 -170 -27 -343 -69 -698 -11 -91 -22 -203 -26 -250 -23 -329 -41 -427
-100 -563 -55 -125 -130 -245 -269 -432 -117 -156 -236 -326 -346 -494 -203
-310 -346 -517 -495 -720 -55 -75 -138 -188 -184 -251 -208 -285 -284 -381
-300 -378 -29 6 -22 33 27 98 131 173 202 269 252 340 30 43 99 138 152 212
220 301 308 426 404 578 102 161 366 542 479 690 147 195 238 362 284 525 11
40 17 104 46 470 9 110 25 268 36 350 20 150 41 360 58 575 10 119 21 183 47
260 17 49 157 322 184 357 9 12 45 84 79 160 75 164 102 223 129 281 11 24 24
57 27 75 4 18 11 37 15 42 4 6 20 48 35 95 33 101 62 162 117 241 82 121 127
222 138 311 15 130 28 210 44 274 37 148 51 169 122 180 72 10 133 -2 191 -41
29 -19 53 -40 53 -45 0 -6 7 -10 15 -10 13 0 15 82 15 680 0 465 4 696 11 732
35 162 158 290 311 322 40 8 330 12 1020 14 842 3 972 2 1037 -12z m2758 -328
c-1 -40 -3 -10 -3 67 0 77 1 110 3 73 2 -37 2 -100 0 -140z m-3500 70 c26 -26
22 -86 -6 -109 -21 -17 -44 -19 -266 -19 -135 0 -255 4 -269 10 -35 13 -53 52
-40 88 17 49 37 52 311 50 224 -3 254 -5 270 -20z m3500 -280 c-2 -24 -4 -7
-4 37 0 44 2 63 4 43 2 -21 2 -57 0 -80z m0 -930 c-1 -112 -2 -21 -2 202 0
223 1 314 2 203 2 -112 2 -294 0 -405z m-2780 320 c-3 -8 -6 -5 -6 6 -1 11 2
17 5 13 3 -3 4 -12 1 -19z m-1527 -88 c0 -5 -5 -10 -11 -10 -5 0 -7 5 -4 10 3
6 8 10 11 10 2 0 4 -4 4 -10z m-70 -40 c0 -5 8 -10 17 -10 9 0 14 -3 10 -6 -8
-8 -47 5 -47 17 0 5 5 9 10 9 6 0 10 -4 10 -10z m540 -4 c0 -3 -4 -8 -10 -11
-5 -3 -10 -1 -10 4 0 6 5 11 10 11 6 0 10 -2 10 -4z m70 -10 c0 -9 -30 -14
-35 -6 -4 6 3 10 14 10 12 0 21 -2 21 -4z m-524 -53 c-7 -7 -26 7 -26 19 0 6
6 6 15 -2 9 -7 13 -15 11 -17z m419 16 c12 -19 -5 -23 -22 -6 -16 16 -16 17
-1 17 9 0 20 -5 23 -11z m945 -7 c0 -4 -10 -13 -22 -21 -23 -14 -23 -14 -4 8
20 22 26 25 26 13z m-1010 -52 c0 -5 -4 -10 -10 -10 -5 0 -10 5 -10 10 0 6 5
10 10 10 6 0 10 -4 10 -10z m3937 -652 c-2 -13 -4 -3 -4 22 0 25 2 35 4 23 2
-13 2 -33 0 -45z m-2780 -770 c-1 -40 -3 -10 -3 67 0 77 1 110 3 73 2 -37 2
-100 0 -140z m-6030 -210 c-3 -7 -5 -2 -5 12 0 14 2 19 5 13 2 -7 2 -19 0 -25z
m4030 -210 c-3 -7 -5 -2 -5 12 0 14 2 19 5 13 2 -7 2 -19 0 -25z m860 -85 c-3
-10 -5 -4 -5 12 0 17 2 24 5 18 2 -7 2 -21 0 -30z m1140 -45 c-2 -13 -4 -5 -4
17 -1 22 1 32 4 23 2 -10 2 -28 0 -40z m-3667 32 c-8 -5 -19 -10 -25 -10 -5 0
-3 5 5 10 8 5 20 10 25 10 6 0 3 -5 -5 -10z m2907 -132 c-2 -13 -4 -5 -4 17
-1 22 1 32 4 23 2 -10 2 -28 0 -40z m765 2 c-6 -43 -12 -37 -12 13 0 25 4 37
8 29 5 -7 7 -26 4 -42z m7 -153 c0 -51 -4 -101 -9 -112 -5 -13 -9 23 -9 98 -1
76 3 116 9 112 6 -3 10 -47 9 -98z m-2419 2 c0 -5 -6 -9 -13 -9 -17 0 -59 44
-51 53 8 8 64 -31 64 -44z m-3615 -99 c3 -5 1 -10 -4 -10 -6 0 -11 5 -11 10 0
6 2 10 4 10 3 0 8 -4 11 -10z m3286 -87 c-21 -39 -159 -146 -241 -188 -46 -23
-195 -75 -215 -75 -14 1 37 39 52 40 20 0 176 70 232 105 31 18 81 56 111 84
57 52 77 63 61 34z m736 -210 c-1 -43 -3 -8 -3 77 0 85 2 120 3 78 2 -43 2
-113 0 -155z m1836 125 c6 -22 5 -22 -8 -4 -17 22 -20 40 -6 32 5 -3 11 -16
14 -28z m-432 -614 c11 -14 10 -18 -6 -30 -15 -11 -89 -14 -395 -14 -395 0
-423 3 -407 44 6 14 44 16 400 16 350 0 396 -2 408 -16z m-1319 -431 c-5 -10
-13 -36 -16 -58 -13 -73 -107 -346 -142 -413 -8 -15 -14 -33 -14 -39 0 -7 -7
-13 -15 -13 -8 0 -15 2 -15 4 0 4 73 191 90 231 8 18 56 163 80 241 6 17 10
38 10 47 0 9 7 17 15 17 12 0 13 -5 7 -17z m-1450 -763 c57 -43 188 -110 253
-130 22 -7 51 -17 65 -23 14 -5 94 -12 178 -15 83 -2 152 -8 152 -12 0 -23
-225 -23 -305 0 -16 5 -57 16 -90 25 -115 33 -306 141 -313 178 -5 24 1 22 60
-23z m141 -332 c34 -22 109 -63 167 -90 193 -91 298 -175 469 -373 33 -39 77
-84 97 -100 21 -17 42 -35 48 -40 6 -6 34 -26 61 -45 55 -38 69 -53 55 -58
-28 -10 -209 145 -332 285 -136 153 -197 202 -347 275 -131 64 -291 162 -291
179 0 15 10 11 73 -33z m-241 -60 c17 -12 65 -50 107 -85 97 -82 96 -81 161
-124 30 -20 74 -51 96 -70 23 -19 59 -47 80 -64 21 -16 59 -50 84 -75 25 -25
32 -34 16 -20 -17 14 -33 27 -36 30 -13 14 -161 121 -210 152 -99 63 -340 255
-340 270 0 13 10 9 42 -14z m238 -439 c0 -11 -58 -120 -69 -129 -3 -3 -20 -34
-38 -70 -43 -86 -119 -226 -147 -270 -12 -19 -42 -73 -66 -120 -24 -47 -53
-101 -64 -120 -12 -19 -30 -51 -41 -72 -26 -51 -52 -84 -60 -76 -4 4 11 40 33
80 22 40 59 109 82 153 24 44 53 96 65 115 12 19 50 89 85 155 35 66 80 148
101 182 21 34 52 89 69 123 27 54 50 77 50 49z m538 -217 c83 -88 163 -162
196 -183 31 -19 56 -40 56 -46 0 -19 -12 -16 -63 18 -58 38 -120 98 -227 220
-109 123 -122 139 -111 139 4 0 71 -67 149 -148z m8932 -683 c0 -40 83 -175
140 -227 33 -29 138 -89 173 -97 27 -7 38 -25 15 -25 -16 0 -140 -61 -155 -76
-7 -7 -24 -21 -38 -32 -36 -28 -112 -144 -126 -192 -12 -39 -29 -54 -29 -26 0
52 -140 246 -177 246 -7 0 -13 4 -13 9 0 11 -116 71 -137 71 -7 0 -13 5 -13
10 0 6 6 10 13 10 25 0 146 68 186 106 54 49 118 144 131 195 10 35 30 55 30
28z"/>
<path d="M7054 12276 c-89 -39 -78 -197 16 -236 63 -26 130 35 130 120 0 36
-21 90 -41 106 -24 20 -72 24 -105 10z"/>
<path d="M6544 12435 c-61 -27 -104 -105 -104 -188 0 -74 19 -123 61 -162 132
-119 313 19 269 206 -18 76 -46 118 -94 140 -48 22 -89 23 -132 4z"/>
<path d="M9861 12137 c-53 -27 -53 -66 1 -96 50 -28 128 20 128 79 0 30 -1 30
-52 30 -29 0 -64 -6 -77 -13z"/>
<path d="M10160 6976 c-30 -7 -67 -18 -82 -24 l-28 -12 0 -285 c0 -200 3 -285
11 -285 27 0 188 118 264 193 102 101 128 151 129 252 1 80 -21 122 -77 152
-42 21 -148 26 -217 9z"/>
<path d="M7005 6832 c-16 -37 -60 -275 -70 -374 l-7 -68 31 0 c24 0 34 7 47
33 32 61 55 152 61 245 5 76 3 99 -12 132 -20 44 -40 57 -50 32z"/>
<path d="M10120 6167 c-48 -17 -60 -25 -54 -41 3 -8 -2 -29 -11 -47 -27 -51
-55 -164 -55 -219 0 -28 8 -81 17 -117 29 -116 106 -173 237 -176 103 -2 167
54 174 154 7 101 -59 205 -164 259 -53 28 -60 36 -44 55 28 34 129 8 173 -45
31 -37 41 -38 33 -4 -10 40 -51 98 -93 133 -58 48 -151 69 -213 48z"/>
<path d="M10250 6020 c0 -5 5 -10 11 -10 24 0 126 -81 149 -119 28 -47 40 -52
40 -17 0 34 -10 56 -25 56 -8 0 -22 10 -32 23 -31 39 -89 77 -116 77 -15 0
-27 -4 -27 -10z"/>
<path d="M7313 5678 c-7 -19 -13 -44 -13 -56 0 -11 -4 -23 -9 -27 -5 -3 -13
-20 -16 -38 -4 -17 -14 -44 -21 -59 -8 -15 -21 -51 -29 -80 -13 -51 -40 -142
-52 -182 -5 -15 -3 -18 11 -13 33 13 135 102 141 122 3 11 4 98 3 194 -3 153
-5 170 -15 139z"/>
<path d="M10050 5564 c0 -20 4 -25 16 -20 9 3 20 6 26 6 6 0 3 9 -7 20 -24 27
-35 25 -35 -6z"/>
<path d="M10128 5345 c-34 -19 -163 -167 -191 -220 -16 -30 -21 -58 -21 -115
0 -129 57 -201 187 -236 54 -14 104 -10 147 11 55 29 149 142 185 224 38 86
19 196 -44 264 -66 72 -197 107 -263 72z m174 -160 c14 -11 33 -32 42 -47 21
-35 21 -130 -1 -175 -21 -45 -79 -106 -94 -101 -7 2 -18 29 -24 59 -6 30 -23
75 -38 101 -25 43 -38 56 -107 107 -25 19 -25 19 -6 40 26 29 70 41 141 38 42
-2 69 -9 87 -22z"/>
<path d="M10123 5168 c-34 -11 -44 -28 -17 -28 9 0 39 -24 69 -54 41 -42 56
-68 71 -115 10 -34 23 -60 28 -58 20 7 53 66 60 107 10 62 -9 117 -47 140 -35
22 -109 25 -164 8z"/>
<path d="M10005 4496 c-52 -31 -79 -69 -95 -132 -11 -44 -11 -57 5 -103 32
-97 120 -162 238 -176 66 -8 79 -20 42 -37 -23 -10 -81 -5 -144 13 -9 3 -22
-16 -37 -55 -13 -33 -33 -70 -46 -83 -37 -39 -13 -37 69 7 118 64 237 145 273
187 92 105 95 251 6 339 -49 50 -93 64 -196 64 -61 0 -82 -5 -115 -24z m191
-32 c85 -36 111 -132 53 -199 -28 -32 -83 -58 -101 -48 -5 2 -8 33 -8 68 0 72
-11 105 -52 153 -16 18 -26 37 -23 42 7 12 89 1 131 -16z"/>
<path d="M10116 4461 c-3 -5 2 -19 12 -32 29 -39 42 -77 42 -124 0 -37 3 -45
19 -45 59 0 87 90 45 147 -22 29 -109 69 -118 54z"/>
<path d="M8434 8256 c-15 -12 -17 -18 -8 -33 10 -17 31 -18 265 -18 236 0 254
1 257 18 9 44 -7 47 -257 47 -191 0 -241 -3 -257 -14z"/>
</g>
</svg>
