<?xml version="1.0" standalone="no"?>
<!DOCTYPE svg PUBLIC "-//W3C//DTD SVG 20010904//EN"
 "http://www.w3.org/TR/2001/REC-SVG-20010904/DTD/svg10.dtd">
<svg version="1.0" xmlns="http://www.w3.org/2000/svg"
 width="2222.000000pt" height="1920.000000pt" viewBox="0 0 2222.000000 1920.000000"
 preserveAspectRatio="xMidYMid meet">

<g transform="translate(0.000000,1920.000000) scale(0.100000,-0.100000)"
fill="#000000" stroke="none">
<path d="M0 9600 l0 -9600 11110 0 11110 0 0 9600 0 9600 -11110 0 -11110 0 0
-9600z m17955 5011 c3 -6 -41 -50 -97 -98 -87 -75 -888 -721 -1263 -1018 -62
-49 -277 -223 -477 -386 -199 -162 -442 -358 -538 -434 -262 -207 -346 -276
-558 -450 -107 -88 -260 -213 -340 -278 l-147 -117 3 -1738 c2 -955 6 -1752 9
-1770 5 -31 13 -37 122 -89 64 -30 154 -72 201 -93 156 -70 194 -87 600 -275
146 -67 312 -145 370 -173 58 -27 191 -89 295 -137 105 -48 260 -120 345 -160
85 -40 425 -199 755 -353 867 -405 1098 -513 1304 -613 101 -49 185 -89 187
-89 2 0 4 1520 4 3378 0 2614 3 3381 12 3390 9 9 9 12 0 12 -19 0 -14 40 6 47
9 3 202 93 427 198 726 341 1076 503 1390 644 87 39 115 41 102 7 -7 -18 -168
-99 -632 -321 -404 -193 -1032 -481 -1219 -559 -31 -13 -36 -19 -27 -30 8 -10
11 -861 11 -3297 0 -1806 0 -3334 0 -3394 l0 -111 85 -42 c47 -23 87 -42 90
-42 3 0 5 1505 5 3344 0 1874 4 3347 9 3350 4 3 6 17 4 31 -5 23 2 28 78 64
177 83 340 156 489 221 85 37 336 147 556 243 483 212 530 231 549 223 31 -12
13 -36 -47 -65 -106 -50 -479 -221 -483 -221 -2 0 -88 -39 -192 -86 -103 -47
-263 -117 -355 -155 -92 -38 -196 -83 -230 -100 -35 -18 -96 -47 -136 -64
l-74 -32 164 -8 c90 -4 184 -10 209 -14 35 -6 48 -4 55 6 16 26 1047 433 1095
433 5 0 9 -8 9 -19 0 -14 -29 -31 -127 -74 -184 -80 -698 -288 -833 -337
l-115 -41 2 -3342 c2 -2215 6 -3352 13 -3371 8 -23 7 -35 -5 -53 l-15 -23
-299 0 -299 0 -183 93 c-246 125 -709 345 -2529 1199 -234 110 -501 236 -595
280 -162 77 -485 229 -570 268 -22 10 -159 75 -304 144 l-265 126 -225 0
c-190 0 -223 -2 -211 -14 8 -7 146 -87 305 -178 160 -91 522 -297 805 -458
283 -161 607 -347 720 -413 113 -67 300 -175 415 -242 248 -144 666 -389 888
-522 116 -70 157 -99 157 -114 0 -40 -48 -18 -310 144 -143 88 -370 222 -685
402 -88 50 -241 139 -340 197 -258 151 -581 339 -875 508 -140 81 -374 217
-520 302 -146 85 -356 208 -467 272 l-202 116 -218 -1 c-120 0 -238 -4 -262
-7 l-43 -7 153 -111 c85 -61 224 -160 309 -219 201 -140 440 -310 720 -510
124 -89 356 -255 515 -369 160 -113 351 -251 425 -306 74 -55 224 -163 333
-241 135 -97 197 -148 197 -160 0 -12 -7 -19 -18 -19 -17 0 -230 148 -433 300
-118 89 -353 260 -474 346 -147 104 -466 333 -660 475 -409 298 -1082 777
-1103 786 -7 3 -44 -11 -83 -30 -38 -20 -84 -39 -102 -42 -32 -6 -32 -7 -30
-61 1 -35 -3 -54 -10 -54 -7 0 -6 -4 3 -10 11 -7 7 -10 -20 -11 -26 -1 -20 -4
24 -10 163 -24 276 -131 311 -293 10 -48 23 -77 50 -111 45 -54 428 -422 1138
-1091 173 -164 187 -181 162 -190 -9 -4 -30 7 -54 27 -105 91 -502 469 -1132
1077 l-146 141 -11 -61 c-18 -99 -56 -164 -147 -254 -97 -97 -144 -129 -222
-154 -32 -11 -52 -19 -45 -19 6 -1 12 -9 12 -18 0 -15 -2 -16 -10 -3 -6 10
-10 11 -10 3 0 -7 9 -18 19 -25 15 -9 17 -16 10 -30 -8 -14 -6 -16 8 -11 12 5
15 2 10 -10 -4 -11 1 -20 14 -28 15 -7 20 -18 16 -34 -3 -19 2 -26 24 -34 l28
-10 -24 39 c-14 22 -25 44 -25 49 0 6 -8 8 -17 5 -15 -5 -14 -3 1 7 17 10 23
7 50 -22 112 -125 196 -241 251 -348 35 -65 86 -153 115 -196 34 -51 49 -80
42 -87 -10 -10 -29 13 -119 140 l-30 42 -6 -45 c-14 -97 -79 -176 -259 -315
-107 -82 -213 -143 -388 -221 -218 -98 -455 -211 -522 -250 -102 -60 -254
-177 -349 -270 -152 -149 -601 -653 -923 -1037 -318 -380 -467 -519 -812 -763
-337 -237 -384 -276 -493 -403 -104 -121 -212 -270 -411 -568 -91 -136 -169
-247 -174 -248 -15 0 -46 32 -46 48 0 15 309 482 389 587 233 309 338 408 661
630 157 107 300 216 393 298 96 85 284 289 430 467 124 151 387 456 487 565
36 39 136 149 222 245 216 240 407 410 577 515 34 21 61 40 61 42 0 2 -10 1
-23 -1 -16 -3 -28 3 -36 16 -7 11 -8 17 -2 13 6 -3 11 0 11 7 0 9 14 15 42 17
86 5 48 11 -68 11 l-119 0 -33 -69 c-32 -66 -72 -118 -72 -92 0 6 13 35 29 64
16 28 32 62 36 75 l6 22 -749 0 -749 0 94 -265 c57 -162 93 -279 92 -302 0
-38 -59 117 -169 447 l-38 115 -299 6 c-328 7 -367 12 -498 74 -133 63 -221
166 -272 319 l-28 81 -3 503 c-2 276 -5 502 -7 502 -2 0 -30 -16 -63 -35 -47
-28 -61 -43 -67 -68 -7 -29 -8 -30 -12 -8 -8 43 7 66 77 114 l70 47 0 236 0
235 -60 -47 c-124 -97 -131 -105 -145 -166 -7 -32 -19 -140 -25 -240 -7 -101
-14 -185 -16 -187 -14 -16 -19 37 -22 230 l-3 220 -82 -44 c-101 -54 -117 -60
-117 -44 0 7 45 41 99 77 l99 65 17 95 c20 108 69 293 114 424 16 50 28 93 25
98 -3 4 -50 22 -105 39 -58 18 -99 36 -99 44 0 9 27 5 107 -16 59 -15 109 -26
111 -24 9 9 115 339 138 430 55 217 38 607 -37 851 -12 39 -25 64 -34 64 -8 0
-19 9 -25 20 -6 11 -15 18 -20 15 -4 -3 -7 3 -6 12 2 10 -4 23 -13 30 -25 19
1 15 29 -4 23 -15 24 -16 12 0 -20 23 -112 56 -194 67 -80 12 -93 8 -74 -23
53 -82 30 -431 -36 -549 -17 -30 -37 -45 -91 -71 l-69 -33 -62 -144 c-35 -80
-80 -174 -100 -208 -20 -35 -36 -67 -36 -70 0 -3 21 -25 47 -49 56 -49 39 -57
-27 -13 l-45 30 -18 -40 c-17 -39 -17 -41 1 -68 29 -41 64 -113 58 -119 -9 -9
-34 16 -62 64 l-27 46 -12 -24 c-32 -60 -106 -270 -99 -280 4 -7 3 -9 -3 -6
-14 9 -25 -20 -18 -47 3 -12 2 -15 -1 -7 -4 8 -27 -42 -54 -115 -59 -160 -54
-148 -204 -466 -122 -260 -168 -371 -186 -452 -5 -24 -19 -141 -30 -262 -12
-120 -28 -264 -35 -319 -25 -172 -63 -508 -90 -800 -59 -645 -86 -765 -238
-1075 -48 -98 -1531 -2278 -1602 -2354 -26 -28 -33 -30 -54 -17 -12 7 -9 18
14 58 44 74 214 330 420 633 453 664 966 1427 1052 1565 234 373 253 446 338
1330 20 204 44 438 55 520 10 83 21 177 25 210 l7 59 -209 -201 c-114 -110
-217 -210 -227 -222 -22 -24 -46 -28 -46 -7 0 7 109 120 243 249 l244 236 11
98 c7 54 17 148 23 208 15 150 47 253 133 431 l73 151 -266 -195 c-146 -107
-340 -250 -431 -316 -970 -714 -1250 -913 -1269 -902 -23 15 -8 34 67 86 42
30 136 97 207 150 153 113 290 212 670 484 288 206 645 466 913 667 l152 114
49 100 c62 128 66 139 46 131 -30 -11 -492 -280 -775 -451 -270 -162 -357
-216 -545 -333 -44 -28 -92 -56 -107 -63 -22 -10 -28 -19 -28 -44 0 -41 -37
-97 -73 -109 -60 -21 -127 40 -127 115 l0 39 -67 0 c-65 0 -71 -2 -212 -82
-80 -45 -198 -114 -261 -153 -63 -39 -203 -123 -310 -185 -107 -62 -307 -179
-445 -260 -289 -171 -380 -219 -394 -205 -6 6 -7 15 -3 22 7 12 322 199 1276
759 l169 99 -494 2 c-272 2 -537 0 -589 -5 l-94 -7 -21 -39 c-11 -22 -35 -55
-53 -73 -57 -57 -134 -38 -149 37 -3 17 -7 30 -10 30 -2 0 -30 -13 -61 -30
-175 -90 -1302 -649 -1441 -714 -186 -87 -225 -99 -220 -70 3 14 149 92 555
294 304 152 686 341 851 420 215 104 292 146 274 148 -46 5 -78 23 -91 50 -9
20 -13 179 -18 607 -4 528 -3 583 12 612 22 44 49 57 131 63 l70 5 5 160 c4
95 11 172 19 190 19 45 50 74 88 81 l33 6 0 75 c0 87 16 129 66 173 88 77 110
81 659 110 409 22 908 52 1182 72 123 9 169 9 188 0 l25 -12 -2 1242 -3 1242
-196 161 c-382 312 -856 701 -1019 835 -91 75 -262 214 -380 310 -118 96 -278
226 -355 290 -77 64 -250 206 -385 315 -367 298 -733 599 -843 695 -54 47
-117 100 -140 118 -23 18 -49 40 -57 48 -13 14 -12 15 15 8 50 -12 186 -116
566 -429 80 -66 250 -205 379 -310 129 -104 300 -244 380 -310 80 -66 173
-143 207 -170 161 -129 381 -308 633 -515 347 -286 1084 -889 1170 -958 l65
-52 1005 -2 c997 -3 1005 -3 1005 -23 0 -20 -8 -20 -997 -23 l-998 -2 0 -1268
0 -1268 34 -80 c19 -44 43 -114 55 -154 11 -40 25 -78 31 -84 7 -7 136 -9 383
-7 377 3 512 -5 567 -34 24 -12 28 -22 34 -76 3 -34 6 -124 6 -200 0 -94 4
-140 12 -145 8 -5 9 0 5 15 -3 13 -3 20 0 17 4 -3 36 54 73 127 36 72 101 197
142 277 99 187 120 252 162 505 58 339 88 420 176 466 46 25 149 25 227 1 68
-21 91 -19 71 6 -9 12 -6 11 10 -2 17 -15 22 -16 23 -5 1 8 5 -2 8 -21 14 -72
22 332 19 1000 -3 679 -3 686 19 761 12 42 35 104 52 138 41 81 148 193 227
237 120 67 64 65 1502 62 l1297 -3 60 -22 c108 -42 215 -125 271 -215 15 -24
39 -74 53 -113 l26 -70 5 -790 c3 -434 6 -782 8 -772 3 24 48 19 46 -5 -1 -15
2 -15 40 -1 62 22 238 23 301 0 114 -39 175 -128 183 -262 4 -67 0 -92 -22
-158 -14 -42 -38 -96 -53 -120 -42 -68 -149 -172 -265 -259 -106 -80 -129
-100 -87 -77 18 9 20 9 11 -7 -6 -10 -6 -29 -2 -46 5 -16 5 -28 -1 -28 -5 0
-9 -7 -9 -15 0 -8 6 -15 13 -15 18 0 16 -40 -3 -41 -8 -1 11 -5 42 -10 158
-23 298 -148 335 -298 23 -95 28 -315 9 -389 -9 -35 -16 -66 -16 -68 0 -6 247
-5 645 3 l348 6 -6 1011 c-4 556 -7 1350 -7 1765 l0 754 -769 -7 c-761 -8
-769 -8 -780 12 -8 15 -7 22 2 29 7 6 323 11 787 12 l775 3 144 116 c79 64
236 193 350 285 113 93 325 264 471 381 146 117 425 343 620 501 856 693 1574
1262 1770 1404 97 69 87 64 95 52z m-507 -1563 c12 -15 28 -3823 17 -4070 l-8
-158 -28 0 c-16 0 -29 5 -29 12 0 9 -3 9 -12 0 -18 -18 -50 -15 -331 32 -1009
172 -1362 237 -1379 254 -5 5 -7 662 -6 1462 l3 1454 195 116 c492 294 1417
836 1525 893 37 20 40 20 53 5z m-8928 -422 c68 -3 109 -10 143 -25 31 -13 89
-25 165 -32 79 -8 152 -22 225 -45 60 -19 122 -34 138 -34 45 0 96 -25 104
-52 21 -65 -1 -108 -73 -140 -24 -11 -73 -48 -110 -82 -136 -127 -227 -186
-332 -216 -63 -19 -109 -23 -286 -27 -251 -6 -336 3 -462 52 -51 19 -98 33
-104 29 -7 -4 -8 -3 -4 4 6 11 0 14 -20 11 -4 0 -10 3 -13 8 -3 4 -46 28 -95
53 -63 31 -108 63 -150 105 -34 33 -75 66 -93 74 -57 24 -67 105 -17 138 52
34 383 109 569 128 33 4 83 16 110 27 62 26 107 35 165 31 25 -1 88 -4 140 -7z
m499 -5522 c-35 -37 -96 -92 -135 -123 -95 -77 -291 -177 -391 -201 -65 -15
-31 7 100 65 153 68 265 141 392 253 50 44 92 77 94 75 3 -2 -24 -33 -60 -69z
m796 -1376 c-19 -219 -73 -535 -108 -633 -27 -75 -79 -173 -103 -196 -34 -32
-41 -17 -10 24 84 110 143 339 176 682 13 134 26 195 41 195 7 0 8 -26 4 -72z
m1363 58 c31 -17 133 -134 192 -222 88 -128 161 -256 157 -273 -2 -10 -17 6
-43 47 -108 175 -182 278 -260 366 -84 95 -92 108 -46 82z m-1108 -125 c0 -24
-115 -393 -150 -481 -47 -119 -99 -224 -107 -217 -2 3 24 81 60 174 36 92 72
191 80 218 63 206 101 315 108 315 5 0 9 -4 9 -9z m-1892 -952 c72 -55 302
-181 367 -200 38 -11 113 -34 165 -51 75 -24 118 -32 205 -35 123 -5 152 -10
120 -23 -38 -16 -180 -11 -257 9 -211 54 -302 90 -433 170 -72 43 -148 95
-170 114 -43 39 -40 50 3 16z m318 -475 c82 -48 189 -110 237 -138 49 -28 135
-85 190 -127 162 -122 602 -548 584 -566 -2 -2 -35 27 -73 65 -165 160 -426
396 -507 460 -48 37 -165 115 -260 172 -174 105 -337 209 -337 216 0 11 29 -3
166 -82z m-347 -50 c70 -53 220 -171 546 -432 163 -130 386 -333 462 -420 123
-140 207 -252 190 -252 -2 0 -47 51 -99 113 -195 228 -459 463 -971 860 -192
148 -235 187 -210 187 3 0 40 -25 82 -56z m253 -596 c-56 -82 -97 -155 -242
-438 -141 -275 -301 -550 -321 -550 -14 0 -11 19 9 48 47 67 199 346 267 486
87 183 162 313 241 419 60 81 97 108 46 35z m-2465 -1988 c48 -93 90 -170 93
-170 3 0 43 76 90 168 76 149 89 167 113 170 15 2 27 1 27 -2 0 -8 -210 -407
-236 -447 -32 -51 -66 -72 -119 -73 -49 -1 -69 12 -59 38 5 14 14 16 43 11 29
-5 43 -1 64 15 56 44 56 44 -53 249 -55 104 -100 194 -100 200 0 6 11 11 25
11 21 0 34 -20 112 -170z m811 -92 l2 -258 -30 0 -30 0 0 235 0 235 -120 0
c-66 0 -120 -4 -120 -9 0 -59 -24 -326 -31 -356 -21 -78 -74 -122 -131 -108
-30 8 -20 47 13 51 58 7 77 62 85 242 2 69 7 149 10 178 l5 52 172 -2 172 -3
3 -257z m242 90 c47 -92 88 -168 92 -168 5 0 46 77 93 170 76 152 88 170 110
170 14 0 25 -5 25 -11 0 -12 -188 -370 -225 -429 -42 -66 -96 -95 -156 -83
-23 4 -29 10 -27 27 2 17 9 21 33 19 43 -4 79 13 99 48 l18 30 -101 190 c-56
105 -101 195 -101 200 0 6 12 9 28 7 24 -3 36 -20 112 -170z m432 65 c4 -119
13 -142 64 -169 36 -20 160 -16 207 6 l27 13 0 129 0 128 25 0 25 0 0 -260 0
-260 -25 0 -25 0 0 106 c0 97 -1 106 -17 99 -82 -33 -214 -33 -259 1 -61 45
-69 66 -72 195 l-4 119 25 0 c25 0 25 -1 29 -107z m568 -128 l0 -235 120 0
120 0 -2 233 -3 232 28 3 27 3 0 -235 0 -236 115 0 115 0 2 233 3 232 25 0 25
0 3 -257 2 -258 -315 0 -315 0 0 260 0 260 25 0 25 0 0 -235z m1090 210 l0
-25 -150 0 -151 0 3 -92 3 -93 133 -3 c124 -2 132 -4 132 -22 0 -19 -7 -20
-135 -20 l-135 0 0 -95 0 -95 155 0 155 0 0 -25 0 -25 -180 0 -180 0 0 260 0
260 175 0 175 0 0 -25z m180 -90 l0 -115 160 0 160 0 0 115 0 115 25 0 25 0 0
-260 0 -260 -25 0 -25 0 0 120 0 120 -160 0 -160 0 0 -120 0 -120 -25 0 -25 0
0 260 0 260 25 0 25 0 0 -115z m590 0 l0 -115 160 0 159 0 3 113 3 112 25 0
25 0 3 -257 2 -258 -30 0 -30 0 0 120 0 120 -160 0 -160 0 0 -120 0 -120 -25
0 -25 0 0 260 0 260 25 0 25 0 0 -115z m757 103 c9 -16 223 -497 223 -503 0
-3 -13 -5 -28 -5 -25 0 -31 7 -54 63 l-26 62 -144 3 -145 3 -28 -66 c-25 -59
-30 -65 -57 -65 -20 0 -28 4 -25 13 3 6 49 109 102 227 53 118 103 230 110
248 11 24 20 32 39 32 14 0 28 -6 33 -12z m663 -248 l0 -260 -25 0 c-25 0 -25
1 -25 80 l0 80 -90 0 -91 0 -51 -80 c-45 -69 -56 -80 -81 -80 l-29 0 23 38
c12 20 35 56 51 79 15 23 28 45 28 50 0 4 -14 16 -30 25 -47 27 -70 74 -70
144 0 47 5 69 23 94 48 71 96 86 275 89 l92 1 0 -260z m683 235 c46 -22 67
-59 67 -119 0 -36 -6 -52 -29 -78 l-28 -32 31 -21 c61 -41 69 -138 17 -194
-38 -41 -86 -51 -243 -51 l-138 0 0 253 c0 140 3 257 8 261 4 5 68 6 142 4
103 -3 144 -9 173 -23z m277 -186 l5 -206 159 209 c128 168 163 208 180 206
21 -3 21 -8 24 -260 l2 -258 -30 0 -30 0 -2 206 -3 205 -155 -205 c-135 -178
-159 -205 -182 -206 l-28 0 0 261 0 260 28 -3 27 -3 5 -206z m928 -26 l2 -232
38 -3 37 -3 0 -80 c0 -79 0 -80 -25 -80 -23 0 -25 4 -28 58 l-3 57 -219 0
-220 0 0 -60 c0 -57 -1 -60 -25 -60 -25 0 -25 1 -25 85 0 83 0 85 24 85 29 0
59 37 75 95 7 22 14 110 17 195 3 85 7 161 10 168 3 10 42 12 171 10 l168 -3
3 -232z m234 25 l3 -213 163 213 c133 173 168 212 188 212 l24 0 0 -260 0
-260 -30 0 -30 0 -2 207 -3 207 -156 -205 c-126 -166 -160 -205 -182 -207
l-27 -3 0 260 0 261 25 0 25 0 2 -212z m694 22 c60 -104 111 -190 114 -190 3
0 52 85 110 188 93 165 108 187 130 187 l25 0 3 -257 2 -258 -30 0 -30 0 -2
199 -3 198 -95 -166 c-53 -91 -103 -167 -111 -169 -10 -2 -47 53 -115 170
l-99 173 -3 -202 -2 -203 -25 0 -25 0 0 260 0 260 24 0 c20 0 39 -28 132 -190z
m860 175 c180 -53 239 -299 103 -434 -49 -50 -111 -74 -189 -74 -149 -1 -256
94 -267 237 -16 197 156 330 353 271z m661 -21 c54 -34 60 -45 34 -61 -16 -10
-24 -9 -44 7 -57 45 -168 50 -234 11 -74 -46 -111 -141 -91 -235 15 -70 75
-133 144 -151 61 -16 135 -5 176 25 32 24 42 25 57 7 8 -11 5 -19 -12 -35 -88
-83 -273 -69 -361 28 -50 56 -70 116 -64 199 6 85 39 147 101 189 63 43 95 52
174 48 59 -2 81 -8 120 -32z m501 9 c3 -22 1 -23 -87 -23 l-91 0 0 -235 0
-235 -30 0 -30 0 0 235 0 235 -90 0 c-90 0 -90 0 -90 25 l0 25 208 -2 c206 -3
207 -3 210 -25z m150 -69 l3 -92 119 -3 c131 -4 152 -13 198 -80 20 -28 23
-44 20 -92 -5 -61 -23 -95 -72 -131 -24 -19 -45 -21 -177 -24 l-149 -4 0 262
0 261 28 -3 27 -3 3 -91z m4877 -142 c63 -175 203 -314 378 -377 34 -13 62
-28 62 -35 0 -7 -28 -22 -62 -35 -176 -63 -315 -202 -378 -378 -13 -34 -28
-62 -35 -62 -7 0 -22 28 -35 62 -63 176 -202 315 -378 378 -34 13 -62 28 -62
35 0 7 28 22 62 35 88 32 165 81 230 146 82 84 119 146 168 287 9 26 28 5 50
-56z m-5995 -612 c0 -56 2 -60 25 -65 14 -3 37 -8 52 -11 39 -8 90 -64 99
-108 16 -86 -44 -168 -131 -181 l-45 -7 0 -54 c0 -47 -2 -54 -20 -54 -18 0
-20 7 -20 55 0 50 -2 55 -22 55 -41 1 -107 38 -128 72 -28 47 -27 124 3 169
17 27 36 38 85 54 l62 19 0 58 c0 51 2 58 20 58 18 0 20 -7 20 -60z m-640 41
c0 -18 31 -41 55 -41 13 0 32 11 43 25 32 40 56 29 32 -15 -13 -24 -64 -41
-101 -33 -44 8 -83 73 -44 73 8 0 15 -4 15 -9z m-7863 -16 c56 -17 83 -39 66
-56 -7 -7 -24 -4 -54 11 -82 42 -184 9 -223 -73 -36 -76 -8 -175 60 -217 50
-31 133 -32 175 -1 16 12 34 19 39 16 22 -14 7 -37 -36 -57 -70 -30 -160 -23
-211 18 -138 111 -97 325 69 364 49 12 60 11 115 -5z m1838 -150 c4 -29 4 -67
0 -84 -4 -18 -4 -54 0 -81 6 -40 11 -50 26 -50 16 0 19 -7 19 -50 0 -43 -3
-50 -20 -50 -16 0 -20 7 -20 35 l0 35 -205 0 -205 0 0 150 c0 143 1 150 20
150 19 0 20 -7 20 -135 l0 -135 70 0 70 0 0 135 c0 128 1 135 20 135 18 0 20
-8 22 -132 l3 -133 67 0 68 0 0 131 c0 72 3 133 6 137 16 16 33 -10 39 -58z
m155 -61 l5 -118 95 117 c57 71 101 117 112 117 17 0 18 -12 18 -150 0 -143
-1 -150 -20 -150 -18 0 -20 8 -22 117 l-3 116 -94 -116 c-128 -159 -131 -159
-131 31 0 82 3 152 7 156 20 20 28 -10 33 -120z m1882 -2 l3 -116 89 109 c89
110 113 135 128 135 4 0 8 -70 8 -155 0 -141 -2 -155 -17 -155 -16 0 -18 11
-15 115 1 63 -2 115 -6 115 -5 0 -51 -52 -102 -115 -127 -158 -130 -157 -130
33 0 82 3 151 6 155 3 3 12 3 20 0 10 -4 14 -34 16 -121z m376 55 l3 -67 94 0
95 0 0 71 c0 62 2 70 18 67 15 -3 17 -20 20 -156 2 -147 2 -152 -18 -152 -18
0 -20 6 -20 65 l0 65 -95 0 -95 0 0 -65 c0 -58 -2 -65 -20 -65 -19 0 -20 7
-20 148 0 82 3 152 7 156 17 17 28 -6 31 -67z m612 -82 c0 -148 -1 -155 -20
-155 -18 0 -20 8 -22 117 l-3 116 -94 -116 c-128 -159 -131 -159 -131 33 0
143 1 150 20 150 18 0 20 -8 22 -117 l3 -117 98 122 c54 67 104 122 112 122
13 0 15 -25 15 -155z m150 31 l5 -117 98 121 c54 67 104 119 110 117 8 -2 13
-50 15 -155 2 -146 2 -152 -17 -152 -19 0 -21 8 -23 117 l-3 117 -95 -117
c-57 -71 -101 -117 -112 -117 -17 0 -18 12 -18 148 0 82 3 152 7 156 20 20 28
-10 33 -118z m1040 53 c0 -46 4 -63 20 -79 22 -22 81 -27 124 -10 23 8 25 15
28 82 2 60 6 73 21 76 16 3 17 -9 17 -152 0 -149 -1 -156 -20 -156 -18 0 -20
7 -20 60 0 33 -3 60 -6 60 -3 0 -24 -5 -48 -11 -54 -13 -119 2 -141 34 -19 27
-21 153 -2 160 22 8 27 -3 27 -64z m1328 13 l3 -52 47 0 c74 0 120 -17 137
-50 24 -46 19 -87 -14 -121 -28 -28 -33 -29 -120 -29 l-91 0 0 148 c0 82 3
152 7 156 16 16 28 -4 31 -52z m290 -100 c2 -147 2 -152 -18 -152 -19 0 -20 6
-20 156 0 143 1 155 18 152 15 -3 17 -20 20 -156z m-7303 123 c30 -29 32 -64
6 -96 -18 -22 -18 -23 0 -38 11 -9 22 -30 25 -48 5 -27 1 -37 -24 -63 -30 -29
-33 -30 -126 -30 l-96 0 0 150 0 150 95 0 c88 0 98 -2 120 -25z m321 6 c34
-21 64 -75 64 -115 l0 -26 -125 0 c-69 0 -125 -3 -125 -6 0 -3 7 -21 16 -39
29 -62 126 -83 177 -37 13 12 20 13 29 4 10 -10 7 -17 -10 -34 -16 -16 -36
-23 -79 -25 -77 -5 -120 17 -152 80 -33 67 -24 127 29 179 34 35 43 38 91 38
35 0 65 -7 85 -19z m354 4 c0 -12 -13 -15 -55 -15 l-55 0 0 -135 c0 -128 -1
-135 -20 -135 -19 0 -20 7 -20 135 l0 135 -55 0 c-42 0 -55 3 -55 15 0 13 21
15 130 15 109 0 130 -2 130 -15z m280 -135 c0 -143 -1 -150 -20 -150 -17 0
-20 7 -20 50 l0 50 -50 0 c-49 0 -51 -1 -82 -50 -24 -36 -39 -50 -56 -50 -23
0 -23 1 13 52 27 37 34 53 25 56 -8 3 -24 15 -37 28 -35 35 -32 97 6 135 28
28 33 29 125 29 l96 0 0 -150z m1208 130 c35 -21 62 -72 62 -115 l0 -25 -120
0 c-119 0 -120 0 -120 -23 0 -13 13 -36 30 -52 24 -23 39 -29 79 -29 34 -1 55
5 69 17 20 18 42 16 42 -4 0 -20 -66 -49 -110 -49 -120 0 -192 121 -136 228
36 69 135 94 204 52z m362 -7 c27 -22 29 -28 16 -35 -12 -6 -24 -3 -43 11 -47
38 -120 23 -153 -31 -38 -63 -18 -142 44 -172 44 -21 51 -20 104 5 53 26 74
14 38 -20 -53 -49 -166 -36 -212 24 -51 67 -41 159 22 215 30 26 42 30 94 30
49 0 64 -4 90 -27z m330 -123 c0 -143 -1 -150 -20 -150 -17 0 -20 7 -20 50 l0
50 -49 0 c-48 0 -51 -2 -86 -50 -23 -31 -44 -50 -56 -50 -22 0 -20 5 18 56 13
17 23 33 23 37 0 3 -13 19 -30 35 -42 42 -42 101 -1 143 28 28 33 29 125 29
l96 0 0 -150z m500 0 c0 -143 -1 -150 -20 -150 -19 0 -20 7 -20 135 l0 135
-68 0 -68 0 -11 -110 c-12 -127 -28 -160 -73 -160 -20 0 -30 5 -30 15 0 8 7
15 15 15 32 0 47 47 53 160 l5 110 108 0 109 0 0 -150z m1822 30 l3 -120 95
120 c65 81 101 120 115 120 19 0 20 -7 20 -150 0 -136 -2 -150 -17 -150 -16 0
-18 12 -18 115 0 63 -3 115 -7 115 -5 0 -48 -52 -98 -114 -66 -84 -96 -115
-112 -115 -23 -1 -23 0 -23 149 0 143 1 150 20 150 18 0 20 -8 22 -120z m868
5 c0 -63 3 -115 8 -115 4 1 48 52 97 115 53 68 97 115 108 115 15 0 17 -14 17
-150 0 -143 -1 -150 -20 -150 -18 0 -20 8 -22 116 l-3 116 -93 -116 c-61 -77
-100 -116 -112 -116 -19 0 -20 8 -20 150 0 143 1 150 20 150 19 0 20 -7 20
-115z m548 95 c17 -11 32 -24 32 -29 0 -20 -20 -21 -52 -1 -51 31 -94 26 -134
-14 -30 -30 -34 -41 -34 -84 0 -59 24 -95 75 -112 37 -12 70 -7 97 17 18 16
48 11 48 -7 0 -6 -15 -19 -32 -31 -26 -16 -45 -19 -91 -16 -51 3 -62 8 -94 40
-32 32 -37 43 -41 96 -5 68 13 108 64 142 39 26 118 25 162 -1z m322 5 c0 -12
-13 -15 -55 -15 l-55 0 0 -135 c0 -128 -1 -135 -20 -135 -19 0 -20 7 -20 135
l0 135 -55 0 c-42 0 -55 3 -55 15 0 13 21 15 130 15 109 0 130 -2 130 -15z
m542 -102 l3 -118 94 115 c51 63 102 116 112 118 18 3 19 -6 19 -147 0 -144
-1 -151 -20 -151 -18 0 -20 8 -22 115 l-3 116 -90 -115 c-66 -83 -96 -115
-112 -115 -23 -1 -23 0 -23 149 0 143 1 150 20 150 18 0 20 -8 22 -117z m1143
97 c63 -39 85 -142 45 -208 -55 -91 -189 -98 -250 -13 -30 43 -36 117 -13 161
39 76 145 105 218 60z m195 -45 l0 -65 90 0 90 0 0 65 c0 58 2 65 20 65 19 0
20 -7 20 -150 0 -143 -1 -150 -20 -150 -18 0 -20 7 -20 65 l0 65 -90 0 -90 0
0 -65 c0 -58 -2 -65 -20 -65 -19 0 -20 7 -20 150 0 143 1 150 20 150 18 0 20
-7 20 -65z"/>
<path d="M19510 12908 c0 -8 -58 -10 -229 -5 l-229 7 -8 -98 c-4 -53 -4 -1447
-1 -3097 4 -1650 7 -3118 7 -3262 l0 -263 250 0 250 0 0 3058 c0 3202 -3 3672
-27 3672 -7 0 -13 -5 -13 -12z"/>
<path d="M10600 11980 c-703 -6 -694 -6 -800 -60 -62 -32 -143 -118 -179 -192
-63 -129 -63 -120 -62 -1106 1 -841 2 -899 21 -993 36 -188 63 -431 64 -574 1
-120 -4 -161 -31 -290 l-31 -150 1 -1155 2 -1155 23 -67 c41 -121 130 -217
250 -270 122 -54 81 -52 992 -53 465 0 1048 2 1295 5 l450 5 57 27 c72 33 119
69 154 116 16 21 20 31 9 22 -17 -14 -18 -14 -6 8 7 12 16 20 21 17 5 -3 14 3
19 14 13 23 14 34 3 27 -4 -2 -8 4 -8 15 0 21 12 25 19 7 3 -7 6 11 6 41 1 50
-2 56 -48 107 -62 68 -81 122 -81 233 0 100 18 149 81 223 l39 47 0 159 c0
153 -1 161 -25 196 -65 96 -85 165 -85 296 0 114 19 167 99 282 l54 77 -6 238
c-4 172 -10 253 -21 293 -20 70 -20 208 -1 348 13 94 15 302 13 1508 -3 1305
-4 1402 -21 1450 -41 121 -151 240 -267 287 -55 22 -55 22 -700 22 -355 0
-940 -2 -1300 -5z m932 -210 c52 -15 88 -61 88 -113 0 -56 -18 -88 -60 -109
-31 -16 -69 -18 -333 -18 -319 0 -348 4 -381 51 -9 13 -16 43 -16 67 0 69 26
104 90 125 30 10 575 7 612 -3z m883 -463 c51 -23 72 -43 99 -92 l21 -40 0
-2240 c0 -2230 0 -2240 -20 -2275 -12 -21 -39 -44 -65 -58 l-45 -22 -1197 2
c-1191 3 -1197 3 -1225 24 -15 11 -37 38 -48 60 -20 39 -20 62 -23 2263 -2
1989 -1 2230 13 2271 28 84 74 111 205 121 52 3 579 6 1170 5 1010 -1 1077 -2
1115 -19z m-645 -5118 c27 -49 27 -49 -524 -49 -385 0 -515 3 -524 12 -16 16
-15 45 1 51 6 3 242 6 524 6 508 1 512 1 523 -20z"/>
<path d="M10912 11688 c-19 -19 -15 -66 7 -78 12 -6 128 -10 306 -10 178 0
294 4 306 10 22 12 26 59 7 78 -9 9 -92 12 -313 12 -221 0 -304 -3 -313 -12z"/>
<path d="M10163 11251 c-158 -7 -168 -13 -183 -106 -11 -63 -13 -595 -3 -630
3 -11 86 -97 185 -192 l179 -172 887 -1 887 0 178 178 178 178 -3 330 c-3 360
-5 371 -62 402 -28 16 -119 17 -1071 18 -572 1 -1100 -2 -1172 -5z m847 -759
c25 -6 74 -18 110 -27 135 -32 149 -39 150 -67 0 -16 -144 -130 -202 -159 -47
-24 -176 -40 -265 -33 -120 9 -365 156 -337 201 17 28 51 40 169 63 61 11 124
25 140 30 40 12 178 7 235 -8z"/>
<path d="M11120 10432 c26 -10 50 -28 57 -42 l13 -25 0 28 c0 29 -15 39 -80
51 -32 6 -31 5 10 -12z"/>
<path d="M10541 10426 c-53 -14 -59 -26 -30 -52 22 -19 22 -19 16 1 -6 16 -3
15 13 -5 l21 -25 -16 33 c-13 26 -13 32 -2 32 8 0 19 -10 26 -22 6 -13 9 -15
7 -5 -3 10 3 26 14 37 22 22 15 23 -49 6z"/>
<path d="M11205 10391 c0 -24 3 -28 17 -20 25 14 32 30 17 40 -24 15 -34 10
-34 -20z"/>
<path d="M11136 10387 c3 -10 9 -15 12 -12 3 3 0 11 -7 18 -10 9 -11 8 -5 -6z"/>
<path d="M9978 9258 c1 -661 4 -1204 7 -1206 2 -2 83 56 179 129 l176 134 0
898 0 899 -176 171 c-97 95 -179 173 -183 175 -3 1 -5 -539 -3 -1200z"/>
<path d="M12297 10292 l-168 -168 1 -899 1 -899 37 -31 c20 -16 97 -81 169
-142 l133 -113 0 1210 c0 666 -1 1210 -3 1210 -1 0 -78 -76 -170 -168z"/>
<path d="M10370 9712 c0 -230 3 -635 7 -900 l6 -482 854 0 853 0 0 900 0 900
-860 0 -860 0 0 -418z"/>
<path d="M11783 8292 c-40 -2 -73 -5 -73 -7 0 -5 263 -584 395 -870 54 -115
137 -295 185 -400 128 -279 155 -331 166 -314 5 8 10 207 12 444 l3 429 -42
61 c-24 33 -86 114 -139 180 -53 66 -150 188 -215 270 -164 209 -161 206 -192
208 -16 1 -61 1 -100 -1z"/>
<path d="M11950 8291 c0 -4 96 -125 310 -386 85 -105 167 -206 182 -225 l27
-35 1 176 0 177 -127 109 c-243 207 -212 188 -308 188 -47 0 -85 -2 -85 -4z"/>
<path d="M10300 8248 c-30 -23 -115 -88 -187 -145 l-133 -104 0 -185 c0 -101
3 -184 8 -183 10 0 444 496 544 622 l30 37 -104 0 -103 0 -55 -42z"/>
<path d="M10503 8173 c-55 -65 -196 -230 -312 -367 l-212 -250 3 -432 c2 -271
7 -437 13 -443 9 -9 148 244 503 924 124 238 342 671 342 680 0 3 -53 5 -118
5 l-118 0 -101 -117z"/>
<path d="M10708 7958 c-92 -183 -280 -551 -417 -818 -175 -340 -246 -487 -238
-492 7 -4 177 -8 378 -8 l366 0 67 343 c38 188 84 419 102 512 19 94 59 298
89 455 30 157 57 297 61 313 l6 27 -124 0 -123 0 -167 -332z"/>
<path d="M11147 8268 c-3 -13 -27 -135 -52 -272 -25 -137 -57 -299 -70 -360
-13 -61 -47 -235 -75 -386 -28 -151 -64 -345 -80 -430 -16 -85 -29 -161 -30
-167 0 -10 89 -13 410 -13 l411 0 -6 33 c-3 17 -26 154 -51 302 -101 597 -131
770 -216 1240 l-13 70 -111 3 c-109 3 -112 2 -117 -20z"/>
<path d="M11413 8253 c10 -73 76 -439 101 -563 14 -69 36 -195 50 -280 14 -85
35 -204 45 -265 11 -60 34 -189 51 -285 17 -96 33 -185 37 -197 l5 -23 342 0
c187 0 347 4 354 9 16 9 -1 51 -203 496 -67 149 -211 467 -320 708 l-198 437
-135 0 -135 0 6 -37z"/>
<path d="M12980 10039 c0 -5 5 -7 10 -4 6 3 10 8 10 11 0 2 -4 4 -10 4 -5 0
-10 -5 -10 -11z"/>
<path d="M13163 10010 c-58 -12 -129 -50 -113 -60 9 -6 8 -10 -6 -19 -11 -6
-15 -11 -10 -11 5 0 -3 -11 -19 -26 l-27 -25 -6 -187 c-6 -214 4 -380 21 -379
40 1 58 -4 51 -14 -13 -22 114 53 182 107 171 135 254 305 230 468 -9 57 -50
107 -107 130 -50 20 -141 28 -196 16z"/>
<path d="M9085 9756 c-8 -19 -22 -68 -30 -108 -20 -97 -74 -432 -70 -436 8 -8
87 41 102 64 26 40 42 118 54 264 10 110 9 145 -2 189 -17 66 -34 75 -54 27z"/>
<path d="M9440 9735 c0 -5 5 -17 10 -25 5 -8 10 -10 10 -5 0 6 -5 17 -10 25
-5 8 -10 11 -10 5z"/>
<path d="M7110 9279 c-138 -13 -514 -38 -810 -54 -151 -8 -329 -18 -395 -22
-66 -3 -142 -7 -170 -8 -27 -2 -56 -3 -62 -4 -8 -1 0 -25 21 -68 57 -114 113
-330 137 -530 l13 -103 300 -1 c655 -3 774 -5 857 -17 83 -12 90 -12 160 12
41 14 128 39 194 56 66 18 126 37 134 44 11 9 13 42 8 177 -6 159 -8 171 -46
287 -22 67 -45 139 -51 162 -18 66 -41 80 -129 79 -42 -1 -114 -5 -161 -10z"/>
<path d="M5483 9180 c-56 -12 -117 -44 -142 -76 -42 -54 -40 -72 61 -491 l32
-133 173 0 c203 0 184 -21 153 170 -24 143 -48 244 -88 362 -44 127 -60 155
-94 167 -34 12 -36 12 -95 1z"/>
<path d="M13074 8944 c-64 -23 -82 -50 -99 -144 -42 -239 -39 -398 10 -471 13
-20 54 -58 91 -84 67 -47 69 -47 131 -42 78 6 164 46 195 90 19 27 23 45 23
112 0 72 -4 88 -38 160 -21 44 -49 94 -63 112 -34 45 -100 88 -170 112 -37 12
-60 26 -63 37 -5 26 58 12 146 -31 80 -40 138 -97 184 -185 l30 -55 -4 96 c-3
73 -9 108 -26 142 -25 52 -81 107 -141 137 -54 28 -152 34 -206 14z"/>
<path d="M7560 8737 l0 -143 318 0 c193 0 348 -5 396 -12 44 -7 80 -11 81 -10
1 2 5 72 8 156 l5 152 -404 0 -404 0 0 -143z"/>
<path d="M8408 8683 c2 -109 6 -200 8 -202 3 -3 9 0 16 7 7 7 17 8 27 2 13 -6
18 -3 21 13 9 44 4 347 -5 356 -6 5 -24 12 -41 15 l-30 7 4 -198z"/>
<path d="M5223 8840 c-12 -5 -24 -17 -27 -28 -11 -34 -26 -184 -26 -259 l0
-73 95 0 c52 0 95 2 95 5 0 3 -18 83 -40 177 -22 95 -40 176 -40 180 0 10 -29
9 -57 -2z"/>
<path d="M7610 8536 c-3 -2 -41 -9 -85 -15 -69 -9 -339 -87 -386 -112 -11 -5
-15 -17 -12 -32 l5 -24 339 -7 c305 -6 343 -9 384 -26 l46 -20 -3 -52 c-2 -41
-7 -54 -20 -56 -13 -2 -18 3 -18 17 0 12 -5 21 -11 21 -6 0 -88 -32 -182 -71
-158 -66 -372 -150 -474 -186 l-43 -15 0 -129 c0 -71 2 -129 5 -129 32 0 1179
612 1181 630 4 31 6 33 14 15 6 -13 9 11 9 71 l1 92 -62 13 c-62 12 -677 26
-688 15z"/>
<path d="M4977 8395 c-9 -9 -18 -45 -22 -87 -9 -99 13 -1041 25 -1073 l10 -25
941 0 941 0 -3 578 c-3 450 -1 582 9 600 l13 22 -950 0 c-826 0 -951 -2 -964
-15z"/>
<path d="M6947 8392 c-24 -26 -29 -199 -20 -715 l8 -447 65 38 65 38 0 533 0
533 -24 19 c-29 24 -73 24 -94 1z"/>
<path d="M9481 8304 c0 -11 3 -14 6 -6 3 7 2 16 -1 19 -3 4 -6 -2 -5 -13z"/>
<path d="M7134 8278 c3 -13 6 -74 6 -135 0 -93 3 -113 15 -113 8 0 131 45 272
99 142 54 291 109 331 121 39 12 74 25 77 30 9 14 -117 20 -413 20 l-294 0 6
-22z"/>
<path d="M8305 8228 c-86 -44 -278 -148 -445 -243 -80 -45 -263 -142 -408
-215 -145 -73 -272 -140 -284 -150 -19 -15 -21 -30 -26 -145 -4 -107 -3 -127
9 -120 8 5 45 28 82 52 85 54 579 342 905 527 178 102 242 142 238 153 -3 8
-6 33 -7 56 0 33 -2 38 -9 22 -8 -18 -9 -18 -10 5 -1 14 -4 36 -6 50 -5 29 11
16 19 -15 3 -11 5 -4 6 18 0 20 0 37 -1 37 -2 -1 -30 -15 -63 -32z"/>
<path d="M9482 8170 c0 -19 2 -27 5 -17 2 9 2 25 0 35 -3 9 -5 1 -5 -18z"/>
<path d="M9408 8065 c-28 -92 -79 -297 -75 -301 1 -1 37 23 80 54 l77 57 -1
130 c0 71 -3 124 -6 118 -8 -22 -41 -15 -45 10 -2 13 -14 -13 -30 -68z"/>
<path d="M13159 7889 c-98 -10 -140 -36 -211 -132 -95 -129 -103 -150 -103
-297 0 -111 3 -130 23 -168 13 -23 27 -40 32 -37 5 3 7 0 5 -7 -3 -8 7 -25 22
-38 l28 -25 -23 26 c-20 23 -21 27 -7 33 21 8 70 -21 84 -48 5 -12 10 -15 10
-8 1 17 21 15 21 -3 0 -8 5 -16 10 -16 6 -1 15 -3 20 -4 6 -1 20 -3 33 -4 18
-1 19 -3 7 -11 -13 -9 -13 -10 1 -10 69 -1 215 98 284 191 54 74 75 139 75
235 0 97 -15 162 -50 218 -54 85 -135 118 -261 105z m117 -180 c31 -19 68 -52
83 -73 23 -35 26 -49 26 -125 0 -99 -20 -153 -79 -219 -44 -49 -103 -79 -119
-63 -9 9 -8 14 3 21 12 8 12 18 1 71 -27 132 -46 167 -142 260 l-88 86 27 26
c45 44 89 58 164 54 55 -4 78 -11 124 -38z"/>
<path d="M13066 7695 c-58 -21 -62 -30 -22 -54 19 -12 55 -45 80 -72 37 -41
52 -70 76 -145 16 -52 30 -109 30 -127 l1 -32 29 35 c17 19 42 59 56 89 23 47
26 64 22 132 -4 94 -21 122 -98 162 -60 30 -113 34 -174 12z"/>
<path d="M12987 7169 c7 -7 15 -10 18 -7 3 3 -2 9 -12 12 -14 6 -15 5 -6 -5z"/>
<path d="M6770 7116 c0 -52 42 -85 68 -53 7 7 13 29 14 48 3 33 2 34 -39 37
-43 3 -43 3 -43 -32z"/>
<path d="M5130 7114 c-14 -35 -12 -49 6 -65 14 -11 21 -8 50 24 46 50 45 67
-6 67 -34 0 -42 -4 -50 -26z"/>
<path d="M12972 6910 c0 -19 2 -27 5 -17 2 9 2 25 0 35 -3 9 -5 1 -5 -18z"/>
<path d="M12987 6789 c-47 -11 -92 -44 -119 -87 -15 -25 -22 -57 -26 -121 -5
-104 7 -152 52 -199 40 -43 109 -82 90 -50 -5 7 -3 8 6 3 7 -4 16 -2 21 6 7
11 9 11 9 1 0 -10 10 -12 40 -7 27 5 40 3 40 -4 0 -6 11 -17 25 -23 14 -6 24
-17 21 -24 -3 -8 0 -11 10 -7 7 3 14 0 14 -5 0 -19 85 -25 116 -9 37 19 77 62
99 107 20 38 32 149 20 177 -4 10 -9 27 -10 38 -9 62 -67 144 -129 180 -43 25
-169 50 -136 26 13 -9 13 -11 -2 -11 -10 0 -18 5 -18 10 0 12 -70 11 -123 -1z
m167 -42 c143 -46 210 -161 156 -271 -21 -44 -55 -70 -135 -103 -59 -24 -145
-38 -145 -22 0 6 6 7 13 3 9 -6 9 -5 0 7 -10 12 -10 29 -1 77 15 78 -7 166
-63 253 -22 33 -39 64 -39 68 0 15 48 22 100 15 39 -5 50 -3 51 7 1 10 3 9 6
-2 2 -9 28 -23 57 -32z"/>
<path d="M13039 6689 c32 -55 51 -137 51 -217 l0 -75 41 6 c81 11 149 80 149
152 0 59 -26 94 -93 126 -35 16 -88 32 -116 36 l-52 6 20 -34z"/>
<path d="M13020 6310 c0 -5 4 -10 9 -10 6 0 13 5 16 10 3 6 -1 10 -9 10 -9 0
-16 -4 -16 -10z"/>
<path d="M17285 12908 c-55 -33 -186 -109 -290 -168 -105 -59 -326 -188 -490
-287 -165 -99 -336 -201 -380 -226 -44 -25 -136 -78 -205 -119 l-125 -73 173
-2 172 -3 138 61 c75 33 359 174 630 312 l492 252 -1 110 c0 60 -4 131 -7 157
l-7 47 -100 -61z"/>
<path d="M17150 12472 c-124 -65 -247 -130 -275 -144 l-50 -26 0 -1593 0
-1593 240 -42 c132 -24 261 -46 287 -49 l48 -7 2 979 c5 1688 0 2593 -15 2593
-6 0 -113 -54 -237 -118z"/>
<path d="M16570 12174 c-118 -62 -252 -129 -297 -149 l-83 -38 0 -1387 0
-1388 38 -6 c20 -3 153 -24 295 -47 142 -22 261 -38 264 -35 9 9 16 3119 7
3141 -9 20 -22 14 -224 -91z m95 -1346 c10 -38 1 -213 -10 -211 -14 4 -19 233
-6 233 6 0 13 -10 16 -22z"/>
<path d="M15737 11983 c-4 -3 -7 -638 -7 -1410 l0 -1403 30 0 30 0 0 1401 c0
931 3 1398 10 1394 7 -4 10 -482 10 -1401 0 -767 2 -1394 4 -1394 30 0 312 32
316 36 3 3 6 628 6 1389 l1 1383 -51 6 c-69 8 -341 8 -349 -1z"/>
<path d="M16005 9144 c-55 -7 -104 -13 -110 -14 -13 -3 554 -103 845 -150 30
-5 80 -14 110 -19 144 -27 524 -91 536 -91 10 0 14 14 14 53 l0 53 -132 17
c-73 10 -171 24 -218 32 -77 12 -476 74 -710 111 -136 21 -221 23 -335 8z"/>
<path d="M8738 12523 c6 -2 18 -2 25 0 6 3 1 5 -13 5 -14 0 -19 -2 -12 -5z"/>
<path d="M8860 12499 c169 -42 193 -51 218 -89 17 -25 22 -43 18 -65 l-6 -29
29 28 c39 38 46 65 18 76 -19 7 -20 9 -5 15 33 13 53 1 56 -35 3 -31 -3 -41
-85 -119 -89 -87 -89 -90 2 -15 28 23 66 49 85 59 50 25 70 45 70 70 0 32 -20
45 -81 51 -30 3 -94 19 -144 36 -65 22 -114 31 -175 34 l-85 3 85 -20z m270
-110 c0 -11 -4 -19 -8 -19 -11 0 -32 46 -25 54 10 10 33 -15 33 -35z"/>
<path d="M7795 12475 c-81 -14 -214 -52 -232 -67 -24 -19 -14 -47 25 -72 20
-13 53 -40 72 -61 35 -37 107 -81 117 -71 3 2 -18 16 -46 31 -33 16 -56 35
-63 53 -5 15 -16 38 -23 52 -12 24 -5 70 11 70 3 0 3 -7 0 -15 -3 -9 6 -34 20
-55 34 -52 40 -51 13 1 -15 31 -18 44 -9 53 8 8 13 7 20 -4 7 -10 10 -11 10
-2 0 6 5 12 10 12 14 0 12 -28 -2 -33 -8 -2 0 -17 23 -38 19 -19 44 -47 53
-62 10 -15 22 -27 27 -27 16 0 -4 34 -38 63 -59 52 -40 110 51 155 67 34 64
35 -39 17z m-185 -72 c-1 -20 -19 -35 -35 -29 -14 5 -15 9 -5 21 13 16 40 21
40 8z"/>
<path d="M8818 12458 c5 -5 16 -8 23 -6 8 3 3 7 -10 11 -17 4 -21 3 -13 -5z"/>
<path d="M8918 12433 c7 -3 16 -2 19 1 4 3 -2 6 -13 5 -11 0 -14 -3 -6 -6z"/>
<path d="M7858 12418 c-20 -5 -44 -18 -53 -28 -16 -18 -16 -22 1 -65 11 -26
27 -51 37 -57 16 -8 17 -7 8 11 -22 40 -13 91 20 122 17 16 30 29 28 28 -2 -1
-21 -5 -41 -11z"/>
<path d="M8976 12411 c17 -10 37 -33 44 -51 10 -25 15 -29 22 -17 18 34 -31
87 -80 87 -11 0 -6 -7 14 -19z"/>
<path d="M8905 12369 c19 -17 35 -38 35 -48 0 -14 2 -14 10 -1 7 11 10 11 10
2 0 -7 5 -10 10 -7 18 11 11 44 -12 59 -13 7 -38 16 -56 20 l-32 6 35 -31z"/>
<path d="M7899 12353 c-13 -16 -12 -17 4 -4 16 13 21 21 13 21 -2 0 -10 -8
-17 -17z"/>
<path d="M7730 12275 c7 -9 15 -13 17 -11 7 7 -7 26 -19 26 -6 0 -6 -6 2 -15z"/>
<path d="M10517 1571 c-32 -71 -57 -132 -57 -135 0 -3 53 -6 119 -6 l119 0
-55 128 c-31 70 -59 131 -63 135 -4 4 -32 -51 -63 -122z"/>
<path d="M11038 1711 c-77 -16 -117 -73 -103 -148 17 -90 56 -109 228 -104
l57 1 0 130 0 130 -72 -1 c-40 -1 -89 -5 -110 -8z"/>
<path d="M11690 1625 l0 -95 84 0 c46 0 97 3 114 6 62 13 95 69 71 125 -18 45
-60 59 -174 59 l-95 0 0 -95z"/>
<path d="M11690 1394 l0 -96 126 4 c124 3 126 3 150 31 26 30 31 75 13 109
-18 34 -70 48 -184 48 l-105 0 0 -96z"/>
<path d="M12867 1713 c-4 -3 -7 -49 -7 -102 0 -121 -15 -225 -39 -273 l-18
-38 148 0 149 0 0 210 0 210 -113 0 c-63 0 -117 -3 -120 -7z"/>
<path d="M14777 1705 c-139 -49 -177 -250 -66 -349 51 -47 76 -56 150 -56 115
0 189 66 205 182 22 159 -134 279 -289 223z"/>
<path d="M16260 1415 l0 -115 100 0 c143 0 180 22 180 110 0 51 -21 93 -55
108 -14 7 -70 12 -125 12 l-100 0 0 -115z"/>
<path d="M15024 804 c-38 -18 -54 -51 -54 -108 0 -54 28 -92 78 -106 20 -5 40
-10 45 -10 4 0 7 54 7 120 0 118 0 120 -22 120 -13 0 -37 -7 -54 -16z"/>
<path d="M15140 699 l0 -121 33 7 c48 11 66 23 87 58 37 59 15 138 -44 162
-75 31 -76 30 -76 -106z"/>
<path d="M14020 650 l0 -70 60 0 c70 0 100 21 100 69 0 45 -40 71 -106 71
l-54 0 0 -70z"/>
<path d="M6830 770 l0 -50 63 0 c49 0 68 4 80 18 43 47 9 82 -79 82 l-64 0 0
-50z"/>
<path d="M6830 635 l0 -55 63 0 c72 0 107 18 107 55 0 37 -35 55 -107 55 l-63
0 0 -55z"/>
<path d="M7192 804 c-19 -13 -52 -63 -52 -79 0 -3 47 -5 105 -5 60 0 105 4
105 10 0 5 -5 21 -12 35 -23 50 -101 71 -146 39z"/>
<path d="M7770 800 c-11 -11 -20 -33 -20 -50 0 -50 30 -70 105 -70 l65 0 0 70
0 70 -65 0 c-52 0 -69 -4 -85 -20z"/>
<path d="M9027 800 c-14 -11 -30 -33 -35 -50 l-11 -30 105 0 c88 0 104 2 104
16 0 67 -106 109 -163 64z"/>
<path d="M9670 800 c-12 -12 -20 -33 -20 -54 0 -49 28 -66 107 -66 l63 0 0 70
0 70 -65 0 c-52 0 -69 -4 -85 -20z"/>
<path d="M15463 801 c-45 -28 -62 -87 -42 -144 29 -85 143 -99 190 -24 28 44
21 119 -13 154 -34 34 -93 40 -135 14z"/>
</g>
</svg>
