<?xml version="1.0" standalone="no"?>
<!DOCTYPE svg PUBLIC "-//W3C//DTD SVG 20010904//EN"
 "http://www.w3.org/TR/2001/REC-SVG-20010904/DTD/svg10.dtd">
<svg version="1.0" xmlns="http://www.w3.org/2000/svg"
 width="2222.000000pt" height="1920.000000pt" viewBox="0 0 2222.000000 1920.000000"
 preserveAspectRatio="xMidYMid meet">

<g transform="translate(0.000000,1920.000000) scale(0.100000,-0.100000)"
fill="#000000" stroke="none">
<path d="M3984 14619 c-11 -18 27 -59 136 -147 56 -45 136 -112 176 -147 41
-35 120 -100 178 -144 57 -45 133 -107 169 -140 36 -33 144 -121 239 -197 95
-76 203 -163 239 -193 37 -31 115 -94 175 -141 60 -47 162 -130 228 -185 66
-55 184 -152 262 -215 78 -63 224 -182 324 -265 101 -82 251 -205 334 -273 83
-68 219 -179 301 -247 223 -184 478 -393 556 -455 l68 -55 2 -360 c0 -198 2
-757 4 -1242 l3 -883 -28 15 c-26 13 -59 13 -307 -5 -153 -11 -303 -22 -333
-25 -175 -18 -789 -54 -1070 -64 -217 -7 -230 -11 -318 -80 -74 -59 -89 -93
-74 -174 16 -86 17 -84 -21 -91 -38 -7 -80 -46 -98 -91 -7 -17 -14 -98 -17
-182 l-4 -153 -60 0 c-71 0 -111 -19 -135 -63 -16 -30 -17 -75 -15 -597 2
-311 6 -580 9 -598 7 -43 44 -70 104 -78 l49 -7 0 -57 c0 -69 11 -81 80 -88
67 -6 91 11 113 82 14 42 23 57 40 61 22 4 1167 14 1167 9 0 -1 -43 -25 -97
-54 -53 -28 -110 -62 -127 -75 -17 -13 -114 -70 -216 -128 -102 -57 -250 -142
-330 -189 -280 -164 -466 -271 -565 -326 -55 -30 -108 -61 -117 -70 -22 -19
-23 -51 -3 -58 14 -6 176 84 463 255 84 50 270 159 632 371 69 40 199 116 290
170 164 96 166 97 236 99 l71 2 12 -57 c7 -31 21 -64 32 -75 34 -34 157 -19
160 20 1 9 1 30 0 48 -3 34 -3 33 144 140 44 32 123 83 175 112 52 30 163 96
245 146 83 50 274 162 425 248 151 86 322 185 380 221 58 35 107 62 109 60 2
-2 -21 -55 -52 -118 l-56 -115 -143 -105 c-79 -58 -206 -152 -282 -208 -77
-57 -178 -129 -225 -161 -90 -61 -168 -118 -536 -387 -255 -186 -535 -389
-611 -441 -164 -113 -234 -172 -234 -195 0 -12 4 -25 9 -29 10 -6 162 94 266
174 33 26 147 110 253 186 106 77 217 158 246 180 162 122 311 229 419 304 67
46 192 137 277 201 85 64 202 149 260 190 58 40 134 96 170 125 93 73 94 73
48 -7 -109 -192 -153 -340 -188 -625 l-22 -182 -122 -118 c-361 -350 -390
-381 -377 -397 9 -11 18 -13 30 -6 10 5 117 107 239 228 122 120 222 212 222
203 0 -9 -7 -65 -15 -126 -27 -203 -44 -359 -55 -510 -6 -82 -19 -240 -30
-350 -11 -110 -22 -234 -26 -275 -10 -121 -51 -328 -83 -424 -62 -180 -177
-365 -767 -1236 -162 -239 -325 -481 -362 -537 -37 -56 -138 -205 -225 -330
-205 -294 -347 -510 -347 -527 0 -19 25 -37 41 -31 8 3 32 31 54 62 22 31 69
98 105 149 261 370 467 672 866 1269 103 154 254 377 335 495 268 392 363 573
409 782 42 192 62 344 90 698 31 396 37 451 69 672 17 115 35 268 41 340 29
386 31 392 277 913 52 110 113 243 135 295 22 52 48 113 58 135 10 22 48 124
85 226 l67 186 41 -44 c26 -28 43 -40 47 -32 12 18 1 45 -35 86 l-33 38 19 37
19 37 61 -36 c42 -25 63 -33 71 -25 12 12 -59 68 -98 78 -22 6 -22 6 11 62 49
85 121 238 147 314 23 67 23 68 66 74 89 13 141 80 161 204 27 169 31 202 31
271 0 88 -11 133 -42 167 l-23 25 80 -6 c149 -10 239 -67 270 -169 38 -129 80
-513 72 -659 -6 -89 -43 -273 -89 -434 -22 -79 -69 -225 -71 -225 -1 0 -45 14
-97 30 -102 33 -134 37 -128 18 3 -7 49 -28 104 -47 54 -19 101 -36 103 -37 2
-2 -15 -66 -37 -141 -23 -76 -60 -215 -83 -309 l-42 -171 -56 -35 c-31 -20
-78 -45 -104 -57 -53 -22 -62 -53 -19 -59 18 -3 97 29 163 65 3 2 9 -83 12
-189 3 -106 10 -206 16 -221 22 -57 31 -16 31 137 0 84 3 188 7 230 l6 78 83
71 c46 40 98 81 115 91 l32 19 -6 -228 c-5 -195 -8 -230 -22 -237 -28 -16
-135 -109 -135 -117 0 -26 34 -14 86 29 32 27 61 46 64 44 2 -3 5 -226 6 -497
2 -539 4 -562 63 -691 39 -87 131 -181 221 -224 142 -69 55 -65 1400 -63 668
1 1240 4 1270 7 l55 5 -100 -54 c-195 -104 -328 -201 -479 -346 -182 -176
-736 -801 -968 -1091 -235 -295 -521 -554 -818 -740 -99 -63 -250 -176 -333
-251 -94 -84 -249 -277 -384 -479 -149 -224 -313 -483 -313 -496 0 -20 49 -30
65 -13 7 8 111 160 231 339 250 372 294 430 435 564 134 128 149 139 378 296
355 242 546 419 857 795 173 210 324 386 448 524 67 74 154 173 195 219 154
175 364 378 461 444 175 119 290 182 496 271 291 126 448 213 614 340 119 92
173 164 191 258 l12 60 53 -80 c55 -83 92 -117 107 -102 15 15 0 43 -73 142
-38 52 -79 114 -91 139 -12 25 -32 68 -46 97 -34 74 -104 147 -171 180 -53 26
-65 28 -184 28 l-127 0 -3 101 -3 102 29 -15 c21 -11 52 -14 111 -11 72 3 91
8 167 45 63 32 99 58 137 99 63 68 124 172 141 239 6 28 14 57 16 66 3 12 14
6 47 -24 72 -68 428 -411 746 -718 289 -280 526 -499 540 -499 9 0 31 22 31
31 0 8 -156 160 -280 274 -195 179 -605 571 -902 863 l-176 174 -11 59 c-21
123 -100 226 -210 277 -86 40 -236 43 -323 7 -15 -6 -17 4 -20 83 l-3 89 35
-10 c19 -6 76 -11 125 -11 106 -1 174 19 240 70 l44 33 83 -62 c97 -73 312
-229 471 -341 157 -110 550 -394 752 -542 94 -69 181 -132 195 -141 106 -71
330 -237 330 -246 0 -6 3 -7 6 -4 7 7 109 -62 259 -175 50 -37 173 -127 274
-200 333 -241 319 -232 336 -218 33 27 37 24 -350 305 -291 211 -518 374 -690
495 -93 66 -228 162 -300 214 -212 155 -485 350 -555 396 -36 24 -99 69 -140
100 -41 31 -118 85 -170 120 -129 86 -460 321 -460 326 0 2 119 4 263 4 l264
0 89 -56 c49 -31 107 -66 129 -79 22 -12 99 -55 170 -95 72 -40 144 -83 160
-95 17 -12 90 -54 164 -94 73 -39 157 -87 185 -105 70 -46 611 -358 731 -421
33 -18 155 -88 270 -155 116 -68 300 -175 410 -238 110 -63 211 -122 225 -131
14 -10 54 -34 90 -53 36 -19 134 -75 218 -124 84 -49 183 -106 220 -128 37
-21 127 -74 200 -117 72 -44 136 -79 141 -79 12 0 24 37 17 49 -7 10 -225 141
-381 228 -49 28 -153 88 -230 133 -77 46 -201 116 -275 157 -74 41 -148 85
-165 97 -31 24 -211 128 -475 276 -85 48 -213 122 -284 164 -71 43 -168 99
-215 124 -47 25 -167 92 -266 150 -99 57 -205 118 -235 135 -30 16 -66 38 -80
47 -14 9 -74 43 -135 75 -90 48 -349 194 -550 311 l-40 24 206 0 c234 0 244
-2 414 -87 55 -28 150 -72 210 -98 61 -26 196 -90 301 -141 105 -52 194 -94
198 -94 4 0 135 -61 292 -135 157 -74 287 -135 289 -135 2 0 47 -21 101 -46
53 -25 163 -77 243 -114 80 -37 231 -107 335 -156 l190 -89 -110 -6 c-110 -5
-105 -6 62 -15 120 -6 91 7 929 -399 61 -30 139 -67 175 -83 81 -36 502 -234
669 -313 68 -32 130 -59 137 -59 8 0 14 10 14 24 0 21 -22 36 -182 119 -101
52 -226 113 -278 135 -99 42 -337 154 -475 224 -44 22 -120 58 -170 80 -49 21
-195 89 -323 151 l-234 112 94 6 93 5 -106 2 -105 2 -140 64 c-76 35 -178 82
-226 105 -48 22 -90 41 -92 41 -3 0 -67 31 -143 68 -76 37 -169 80 -208 96
-38 16 -162 74 -275 129 -113 55 -279 132 -370 173 -255 112 -370 165 -560
254 -96 45 -195 90 -220 100 -25 10 -97 44 -161 75 l-116 57 -6 841 c-7 896
-11 2369 -8 2577 l2 125 67 53 c112 88 305 245 337 274 32 28 209 171 435 351
74 59 173 139 220 177 331 268 645 522 700 564 36 28 117 94 180 147 63 52
147 120 185 149 39 30 124 100 190 156 66 55 130 106 141 112 22 12 160 123
281 227 39 33 117 96 174 139 57 44 138 108 179 143 41 34 130 108 198 163
115 94 136 120 112 135 -16 10 -162 -94 -258 -182 -13 -12 -49 -41 -80 -65
-48 -37 -189 -149 -416 -331 -28 -23 -90 -71 -135 -107 -46 -36 -136 -108
-200 -160 -64 -52 -150 -122 -191 -155 -41 -32 -127 -102 -190 -155 -63 -53
-128 -105 -145 -116 -16 -10 -93 -71 -170 -135 -77 -63 -179 -147 -227 -185
-48 -38 -198 -159 -333 -269 -136 -110 -271 -219 -301 -241 -29 -23 -115 -93
-191 -155 -75 -63 -154 -127 -174 -144 -20 -16 -115 -93 -210 -170 -95 -77
-185 -150 -200 -162 l-27 -23 -783 -2 -784 -3 -3 -27 -3 -28 780 0 780 0 0
-697 c1 -384 4 -1173 7 -1754 l7 -1056 -198 -6 c-109 -4 -332 -7 -496 -7
l-297 0 20 53 c18 46 20 67 15 197 -7 176 -27 251 -91 338 -53 72 -97 107
-168 134 -73 28 -201 35 -250 15 l-38 -16 0 73 0 73 85 42 c211 105 342 226
426 395 44 90 51 112 56 182 8 109 -20 187 -87 247 -56 51 -98 66 -200 74 -83
6 -183 -13 -249 -46 l-38 -20 -6 792 c-5 688 -8 800 -22 851 -50 180 -171 309
-346 367 l-74 24 -1295 0 c-1437 0 -1343 4 -1482 -66 -120 -61 -232 -212 -273
-369 -21 -78 -21 -123 -17 -1092 2 -390 1 -708 -2 -709 -4 0 -35 14 -69 31
-73 36 -176 55 -240 46 -102 -16 -149 -82 -181 -258 -9 -45 -29 -157 -45 -248
-51 -275 -86 -378 -188 -548 -54 -90 -102 -186 -152 -304 -11 -27 -25 -48 -30
-48 -5 0 -11 72 -13 173 -3 171 -3 174 -30 209 -42 55 -71 58 -552 58 l-423 0
-18 68 c-10 37 -34 108 -54 157 l-35 90 -3 1272 -3 1273 452 0 c249 0 699 0
1001 0 l547 0 0 25 c0 22 -4 25 -37 26 -21 0 -475 2 -1008 2 l-971 2 -44 35
c-52 40 -385 319 -415 347 -11 10 -36 29 -55 43 -19 13 -111 88 -205 165 -93
78 -228 188 -300 245 -71 57 -166 136 -210 175 -44 38 -98 84 -120 100 -22 16
-92 73 -155 125 -63 53 -173 142 -245 199 -71 56 -184 147 -250 201 -344 281
-465 379 -510 415 -28 21 -52 42 -55 45 -3 4 -28 24 -55 46 -55 43 -287 235
-295 244 -13 14 -129 109 -160 131 -19 13 -90 70 -158 127 -107 89 -168 132
-186 132 -3 0 -8 -5 -12 -11z m8611 -2661 c157 -53 239 -147 281 -323 11 -50
15 -289 20 -1405 5 -1227 5 -1352 -11 -1430 -9 -47 -19 -150 -22 -230 -5 -127
-3 -155 16 -229 18 -72 21 -114 21 -277 0 -105 -3 -205 -6 -222 -3 -16 -24
-52 -47 -78 -57 -69 -88 -143 -96 -227 -12 -133 15 -250 77 -340 l36 -52 4
-154 4 -153 -40 -42 c-75 -78 -109 -187 -92 -303 11 -83 31 -124 90 -185 49
-50 51 -55 45 -93 -15 -100 -100 -202 -215 -258 l-65 -32 -480 -6 c-264 -4
-848 -7 -1298 -8 -890 -1 -887 -2 -999 55 -64 32 -143 112 -181 182 -58 106
-57 84 -57 1336 0 962 2 1157 14 1205 31 121 41 219 39 396 -1 215 -15 352
-50 498 l-25 109 -2 962 -1 962 44 89 c57 116 123 183 228 233 l78 37 435 5
c239 3 827 5 1305 5 l870 0 80 -27z m773 -1973 c86 -47 117 -118 101 -232 -18
-124 -85 -227 -223 -341 -91 -75 -240 -167 -255 -158 -6 4 -9 134 -7 343 l2
337 44 29 c104 65 242 75 338 22z m-4247 -212 c22 -26 18 -286 -5 -388 -23
-100 -38 -131 -76 -150 -49 -25 -63 -20 -56 20 4 20 16 93 26 163 34 219 57
330 77 365 7 12 20 8 34 -10z m-1790 -499 c21 -11 40 -34 60 -77 35 -76 87
-271 94 -352 14 -163 14 -193 7 -225 -8 -35 -9 -35 -107 -61 -55 -14 -140 -40
-190 -57 l-90 -30 -310 9 c-170 4 -452 6 -626 2 -364 -7 -323 -20 -334 107
-15 163 -97 480 -144 557 l-20 31 37 6 c20 3 134 10 252 16 118 6 256 15 305
20 50 5 202 14 339 21 138 6 333 19 435 29 240 23 256 23 292 4z m-1768 -109
c19 -8 45 -28 56 -44 51 -71 161 -491 161 -612 l0 -29 -178 0 -179 0 -13 88
c-13 90 -43 222 -79 352 -32 117 -30 135 29 191 68 66 133 83 203 54z m7678
-230 c65 -23 116 -60 144 -104 30 -49 61 -139 70 -206 l6 -50 -24 51 c-53 111
-138 176 -253 195 -78 14 -107 8 -102 -18 2 -13 23 -23 71 -34 107 -26 170
-79 228 -191 26 -50 51 -175 44 -214 -14 -75 -107 -153 -203 -169 -37 -6 -53
-2 -106 24 -167 82 -201 176 -157 440 11 64 22 141 26 171 7 76 12 88 43 105
36 19 158 19 213 0z m-4824 -65 c20 0 41 -8 53 -20 19 -19 20 -32 19 -222 -1
-112 -4 -216 -8 -231 -4 -20 -16 -33 -38 -42 l-33 -14 3 243 c2 195 -1 246
-12 260 -10 12 -17 14 -27 5 -11 -9 -14 -47 -14 -161 0 -135 -2 -149 -16 -138
-35 30 -149 42 -466 47 l-318 5 0 118 c0 65 -3 125 -6 134 -5 13 2 16 40 16
30 0 46 -4 46 -12 0 -10 2 -10 8 -1 6 10 82 14 297 16 160 2 323 2 364 0 41
-2 89 -3 108 -3z m-3142 -40 c3 -5 21 -78 41 -162 19 -84 37 -161 40 -170 5
-16 -3 -18 -74 -18 -58 0 -83 4 -92 15 -9 11 -11 55 -9 159 4 124 7 147 23
165 20 22 60 28 71 11z m2815 -300 c96 -5 189 -13 205 -18 33 -9 52 -50 61
-132 l5 -45 -142 -75 c-78 -41 -228 -123 -333 -181 -282 -156 -406 -221 -580
-304 l-156 -74 0 139 c0 111 3 140 13 140 17 0 549 188 634 224 34 14 64 26
67 26 3 0 6 -10 8 -22 4 -30 24 -34 32 -6 8 32 7 91 -2 105 -17 27 -78 34
-401 43 -185 5 -344 10 -353 10 -10 0 -18 9 -20 22 -3 21 8 27 107 61 61 21
135 45 165 53 144 41 361 52 690 34z m-1208 -139 c-15 -23 -17 -75 -15 -546 2
-286 5 -547 8 -580 l6 -60 -933 1 c-666 0 -940 3 -959 11 l-26 12 -8 569 c-5
398 -4 575 3 589 11 20 23 20 474 22 254 1 464 3 465 5 2 1 228 3 502 3 l499
0 -16 -26z m167 5 c7 -8 16 -80 21 -167 12 -201 13 -906 1 -928 -11 -21 -128
-77 -138 -67 -10 9 -18 1116 -9 1151 6 23 11 25 60 25 33 0 58 -5 65 -14z
m2441 -285 l0 -238 -55 -37 c-31 -20 -61 -34 -67 -30 -7 4 -8 3 -4 -4 3 -6 -3
-16 -14 -22 -11 -6 -20 -8 -20 -6 0 33 148 576 158 576 1 0 2 -107 2 -239z
m-1835 174 c11 -1 56 -3 100 -4 l80 -2 -110 -40 c-285 -104 -567 -200 -572
-195 -2 2 -7 61 -10 131 l-6 126 249 -7 c137 -4 258 -8 269 -9z m804 -42 c-28
-84 -39 -88 -39 -16 0 50 3 62 18 66 40 11 41 8 21 -50z m-85 -35 c3 -29 6
-73 6 -98 l0 -46 -62 -32 c-35 -17 -103 -54 -153 -82 -49 -28 -135 -75 -190
-104 -101 -54 -235 -132 -420 -243 -55 -33 -152 -88 -215 -123 -63 -35 -132
-74 -152 -87 l-38 -23 0 122 0 123 213 109 c116 60 289 152 382 204 94 52 195
108 225 124 86 47 270 148 325 179 28 16 55 29 61 29 6 0 14 -24 18 -52z
m4646 -47 c0 -4 -7 -8 -15 -8 -8 0 -15 6 -15 13 0 8 6 11 15 8 8 -4 15 -9 15
-13z m275 -278 c55 -18 121 -79 148 -136 65 -136 31 -330 -79 -456 -35 -40
-145 -121 -166 -121 -4 0 -8 11 -8 25 0 14 6 25 13 25 24 0 95 53 126 95 44
58 74 157 66 220 -19 146 -115 223 -262 213 -71 -5 -165 -44 -176 -72 -4 -9
16 -33 55 -67 72 -63 132 -152 155 -229 20 -67 20 -209 1 -221 -25 -16 -151
-10 -193 10 -93 43 -135 126 -143 281 -6 132 1 154 82 268 35 48 68 97 75 109
32 61 201 92 306 56z m-48 -220 c111 -71 114 -199 9 -331 l-34 -42 5 38 c12
89 -64 233 -161 304 -25 18 -45 36 -46 40 0 8 45 14 125 16 51 2 68 -3 102
-25z m-8044 -568 c-20 -37 -30 -45 -54 -45 -28 0 -29 2 -29 45 l0 45 54 0 55
0 -26 -45z m1643 11 c8 -44 0 -56 -37 -56 -22 0 -32 6 -39 26 -20 51 -14 64
30 64 37 0 39 -2 46 -34z m6410 -332 c83 -47 143 -150 152 -260 7 -92 -12
-147 -69 -207 l-48 -50 -82 7 c-177 15 -265 49 -337 134 l-47 55 0 96 c0 79 4
103 22 136 42 79 86 100 233 115 93 9 124 5 176 -26z m-239 -565 c15 -6 61
-13 102 -17 l75 -7 -42 -28 c-30 -19 -42 -23 -42 -13 0 7 -19 22 -42 33 -24
11 -54 24 -68 30 -32 15 -20 16 17 2z m-16 -78 c36 -27 78 -33 63 -10 -3 5 -1
9 5 9 44 0 -29 -51 -186 -129 -24 -12 -43 -18 -43 -15 0 4 16 24 35 46 20 21
45 59 57 83 12 25 23 45 25 45 2 0 21 -13 44 -29z"/>
<path d="M10198 11943 c28 -2 76 -2 105 0 28 2 5 3 -53 3 -58 0 -81 -1 -52 -3z"/>
<path d="M11192 11943 c48 -2 129 -2 180 0 51 1 12 3 -87 3 -99 0 -141 -2 -93
-3z"/>
<path d="M10885 11760 c-61 -25 -91 -109 -61 -168 32 -62 41 -63 407 -60 l331
3 34 37 c38 43 44 80 18 133 -29 62 -46 65 -396 64 -172 0 -322 -4 -333 -9z
m664 -86 c12 -11 12 -18 3 -39 l-12 -25 -321 2 c-294 3 -323 5 -333 21 -8 12
-8 22 0 35 10 15 37 18 250 23 286 6 394 2 413 -17z"/>
<path d="M10215 11320 c-197 -6 -219 -12 -268 -69 -14 -17 -31 -47 -38 -68 -9
-29 -10 -396 -5 -1677 3 -903 6 -1888 7 -2191 0 -302 4 -576 9 -609 10 -67 42
-108 97 -127 25 -8 358 -10 1216 -7 1061 4 1185 6 1212 20 34 18 67 52 84 86
13 25 15 692 6 2182 -3 476 -7 1185 -10 1575 -3 606 -6 717 -19 761 -17 54
-40 80 -96 110 -33 18 -78 19 -1025 19 -544 0 -1071 -2 -1170 -5z m2190 -70
c46 -17 47 -31 46 -409 l-1 -356 -112 -108 c-62 -60 -140 -132 -173 -162 l-60
-53 -876 -3 -876 -4 -34 27 c-19 15 -105 96 -192 181 l-158 155 3 341 3 341
28 27 27 28 878 3 c482 1 884 5 892 7 30 7 582 -6 605 -15z m-2175 -1041 l94
-101 1 -895 1 -894 -126 -94 c-69 -52 -146 -113 -172 -136 l-48 -41 -1 503 c0
277 -3 821 -5 1207 l-4 704 84 -76 c45 -42 125 -121 176 -177z m2234 -1329 l7
-835 -58 56 c-32 31 -106 95 -165 143 l-108 88 -1 206 c0 114 -2 519 -3 900
l-3 693 156 150 156 150 6 -358 c4 -197 9 -734 13 -1193z m-386 350 l3 -890
-848 0 -848 0 -3 885 -4 885 184 2 c101 2 482 4 848 5 l665 3 3 -890z m-968
-951 c0 -6 -20 -113 -45 -238 -24 -124 -62 -320 -84 -436 -22 -115 -68 -354
-102 -530 -34 -176 -66 -346 -72 -377 l-10 -58 -382 0 c-362 0 -384 1 -406 19
l-24 19 -3 427 -3 427 43 54 c24 30 84 103 133 161 114 135 308 366 387 461
l61 72 112 0 112 0 -116 -232 c-114 -228 -117 -233 -146 -232 -19 1 -22 -1 -7
-3 12 -2 22 -6 22 -9 0 -8 -93 -190 -200 -389 -163 -304 -322 -613 -349 -678
-19 -45 -22 -60 -13 -69 9 -9 17 -9 27 -3 7 6 67 116 133 245 65 129 194 381
287 560 92 179 223 436 291 573 l124 247 115 0 c78 0 115 -4 115 -11z m263
-11 c3 -13 9 -45 12 -73 7 -54 37 -226 60 -345 8 -41 26 -142 41 -225 14 -82
28 -152 29 -155 3 -6 32 -172 80 -460 14 -85 35 -201 45 -258 11 -57 20 -105
20 -108 0 -2 -185 -4 -411 -4 -378 0 -411 1 -405 16 7 19 72 345 141 714 75
397 82 436 119 630 20 102 39 205 44 230 l8 45 64 6 c137 12 147 11 153 -13z
m318 -15 c6 -21 33 -83 59 -138 26 -55 51 -111 55 -125 4 -14 30 -72 58 -130
27 -58 81 -177 119 -265 38 -88 109 -243 158 -345 48 -102 107 -230 130 -285
23 -55 56 -129 73 -165 52 -112 66 -148 60 -154 -6 -6 -693 -9 -693 -3 0 12
-71 409 -113 632 -14 72 -28 155 -32 185 -7 55 -48 291 -85 490 -11 58 -20
131 -20 163 0 32 -4 56 -9 53 -7 -5 -31 85 -31 116 0 4 58 8 129 8 l129 0 13
-37z m337 -115 c67 -84 154 -194 194 -244 40 -50 112 -141 161 -202 l87 -111
0 -438 c0 -241 -4 -444 -9 -451 -5 -9 -21 16 -48 80 -23 51 -70 156 -106 233
-35 77 -85 187 -111 245 -26 58 -64 141 -86 185 -21 44 -88 188 -148 320 -60
132 -121 265 -135 295 -81 176 -107 233 -107 236 0 2 42 4 94 4 l94 0 120
-152z m266 1 l176 -151 0 -162 -1 -161 -20 25 c-11 14 -41 49 -66 78 -24 29
-97 119 -161 200 -63 81 -143 179 -177 217 -100 115 -99 105 -7 105 l81 0 175
-151z m-1771 117 c-17 -22 -120 -141 -351 -405 -51 -58 -115 -132 -142 -164
l-50 -58 0 185 c0 182 0 186 23 197 12 6 65 46 116 88 52 42 127 100 165 128
l71 53 93 0 94 0 -19 -24z"/>
<path d="M10655 10480 c-254 -53 -258 -82 -32 -196 l109 -54 126 0 c149 1 186
11 310 85 92 55 109 74 92 105 -12 23 -40 31 -222 65 -168 31 -217 30 -383 -5z
m233 -10 c14 -23 5 -26 -20 -6 -21 16 -23 26 -5 26 7 0 18 -9 25 -20z m-98 0
c-8 -5 -22 -10 -30 -10 -13 0 -13 1 0 10 8 5 22 10 30 10 13 0 13 -1 0 -10z
m198 1 c17 -2 15 -21 -3 -21 -8 0 -15 5 -15 10 0 6 -7 10 -16 10 -8 0 -12 -5
-8 -11 4 -7 -1 -10 -11 -7 -10 1 -20 8 -22 15 -4 10 14 11 75 4z m-273 -11
c-11 -5 -29 -8 -40 -8 -16 0 -15 2 5 8 34 11 60 11 35 0z m132 -6 c2 -7 -6
-10 -21 -7 -14 3 -23 10 -20 15 8 12 36 6 41 -8z m226 -1 c-7 -2 -19 -2 -25 0
-7 3 -2 5 12 5 14 0 19 -2 13 -5z m-393 -33 c-20 -13 -33 -13 -25 0 3 6 14 10
23 10 15 0 15 -2 2 -10z m220 0 c14 -5 -11 -6 -61 -3 -72 5 -92 3 -132 -15
-52 -23 -56 -33 -27 -62 11 -11 16 -20 12 -20 -9 0 -33 25 -46 48 -5 8 10 20
46 37 55 26 153 33 208 15z m-311 -3 c-2 -1 -13 -9 -24 -17 -19 -14 -19 -14
-6 3 7 9 18 17 24 17 6 0 8 -1 6 -3z m384 -4 c-7 -2 -19 -2 -25 0 -7 3 -2 5
12 5 14 0 19 -2 13 -5z m171 -15 c8 -12 12 -26 9 -31 -3 -6 -10 -1 -14 10 -4
12 -16 26 -26 32 -16 9 -16 10 -1 11 9 0 24 -10 32 -22z m91 11 c11 -17 -1
-21 -15 -4 -8 9 -8 15 -2 15 6 0 14 -5 17 -11z m-725 -32 c0 -5 -4 -5 -10 -2
-5 3 -10 14 -10 23 0 15 2 15 10 2 5 -8 10 -19 10 -23z m320 23 c-14 -4 -41
-8 -60 -8 -28 -1 -31 1 -15 8 11 5 38 8 60 8 34 0 36 -1 15 -8z m264 0 c35
-13 33 -36 -6 -60 -47 -28 -59 -25 -20 6 39 31 40 37 5 51 -16 6 -23 11 -16
12 6 1 23 -3 37 -9z m-85 -17 c-6 -7 -17 -13 -23 -13 -6 0 -4 5 4 10 10 6 -8
7 -54 3 -53 -5 -67 -3 -62 6 5 8 32 11 77 10 57 -2 67 -4 58 -16z m198 -15
c-3 -7 -5 -2 -5 12 0 14 2 19 5 13 2 -7 2 -19 0 -25z m-439 11 l27 -1 -30 -9
c-33 -10 -55 -5 -55 12 0 6 7 8 16 5 9 -3 28 -6 42 -7z m85 4 c-7 -2 -19 -2
-25 0 -7 3 -2 5 12 5 14 0 19 -2 13 -5z m227 -8 c0 -1 -8 -9 -17 -16 -11 -10
-14 -10 -9 -1 4 6 4 12 1 12 -14 0 -61 -29 -79 -49 -17 -19 -18 -21 -2 -21 11
0 16 -6 14 -17 -4 -21 -27 -27 -47 -14 -12 8 -12 13 3 36 22 33 103 85 122 78
8 -3 14 -6 14 -8z m-446 -14 c4 -5 -3 -7 -14 -4 -23 6 -26 13 -6 13 8 0 17 -4
20 -9z m79 -5 c10 -8 14 -17 9 -20 -5 -3 -17 3 -27 14 -21 23 -9 26 18 6z
m187 -3 c-32 -3 -40 -7 -30 -14 13 -8 13 -10 1 -18 -21 -13 -44 -2 -31 14 9
11 5 14 -17 18 -15 2 6 4 47 4 43 0 56 -2 30 -4z m-265 -21 c-3 -3 -11 0 -18
7 -9 10 -8 11 6 5 10 -3 15 -9 12 -12z m390 -2 c-10 -11 -21 -17 -24 -14 -3 3
3 12 13 20 28 20 32 17 11 -6z m-228 3 c-4 -3 -1 -13 6 -21 10 -13 9 -14 -3
-10 -19 6 -26 38 -9 38 7 0 9 -3 6 -7z m113 -3 c0 -5 -5 -10 -11 -10 -5 0 -7
5 -4 10 3 6 8 10 11 10 2 0 4 -4 4 -10z m-144 -52 c-6 -4 0 -11 14 -17 14 -5
20 -10 14 -10 -15 -1 -72 28 -80 41 -4 6 1 6 14 -1 29 -16 34 -14 23 8 -6 10
-7 21 -4 25 3 3 11 -4 18 -17 8 -15 8 -24 1 -29z m-91 32 c3 -6 -1 -7 -9 -4
-18 7 -21 14 -7 14 6 0 13 -4 16 -10z m209 -11 c-6 -11 -54 -12 -54 -1 0 4 13
7 30 8 16 1 27 -3 24 -7z m-189 -19 c3 -6 -1 -7 -9 -4 -18 7 -21 14 -7 14 6 0
13 -4 16 -10z m207 -12 c-7 -7 -12 -8 -12 -2 0 14 12 26 19 19 2 -3 -1 -11 -7
-17z m128 2 c-8 -5 -19 -10 -25 -10 -5 0 -3 5 5 10 8 5 20 10 25 10 6 0 3 -5
-5 -10z m-183 -6 c-3 -3 -12 -4 -19 -1 -8 3 -5 6 6 6 11 1 17 -2 13 -5z"/>
<path d="M10950 10280 c0 -5 5 -10 10 -10 6 0 10 5 10 10 0 6 -4 10 -10 10 -5
0 -10 -4 -10 -10z"/>
<path d="M10438 7813 c12 -2 30 -2 40 0 9 3 -1 5 -23 4 -22 0 -30 -2 -17 -4z"/>
<path d="M10711 6210 c-7 -4 -11 -20 -9 -36 l3 -29 527 -3 c513 -2 527 -2 538
17 11 22 4 50 -14 52 -49 6 -1036 5 -1045 -1z"/>
<path d="M7668 8853 c7 -3 16 -2 19 1 4 3 -2 6 -13 5 -11 0 -14 -3 -6 -6z"/>
<path d="M12968 6773 c-35 -5 -37 -31 -4 -70 52 -61 71 -114 70 -188 -1 -38
-4 -84 -9 -101 -10 -43 29 -75 83 -67 54 7 137 50 166 84 72 85 54 214 -40
278 -67 46 -191 76 -266 64z m126 -69 c63 -16 114 -42 154 -77 39 -36 26 -123
-26 -171 -12 -10 -26 -15 -31 -11 -6 3 -11 1 -11 -5 0 -10 -28 -24 -82 -40
-26 -8 -26 -7 -17 18 14 38 15 139 1 188 -7 23 -23 58 -37 78 -13 20 -22 36
-19 36 4 0 34 -7 68 -16z"/>
<path d="M17335 13012 c-49 -26 -144 -79 -210 -119 -66 -39 -268 -158 -450
-265 -181 -107 -390 -231 -463 -274 -72 -43 -185 -109 -250 -147 -64 -37 -155
-91 -202 -120 l-85 -53 -2 -1461 c-1 -1107 1 -1464 10 -1471 13 -10 169 -37
419 -72 81 -12 225 -36 320 -55 95 -18 207 -38 248 -44 76 -11 297 -52 380
-70 80 -17 314 -43 360 -40 l45 4 5 85 c3 47 4 351 3 675 -1 325 -2 1231 -4
2015 -1 819 -6 1432 -11 1443 -5 9 -12 17 -16 17 -4 0 -47 -22 -97 -48z m65
-197 c0 -139 -2 -156 -17 -161 -47 -15 -267 -127 -436 -221 -104 -58 -211
-114 -239 -125 -27 -10 -159 -75 -293 -143 l-243 -125 -192 2 -193 3 99 54
c125 69 339 191 393 225 22 14 43 26 47 26 3 0 76 41 162 92 86 50 220 128
297 172 77 45 187 111 245 147 127 80 347 206 363 208 4 1 7 -69 7 -154z m2
-1582 c1 -747 2 -1548 2 -1780 l1 -423 -22 0 c-20 0 -23 5 -24 48 -1 26 -5
218 -8 427 l-7 380 -2 -423 -2 -422 -22 4 c-24 6 -259 40 -343 51 -27 4 -71
11 -97 17 l-47 9 -2 1352 c-1 744 -1 1460 -1 1592 l2 240 178 90 c97 50 212
110 255 133 l77 43 2 -1178 1 -1178 9 1175 c5 646 11 1181 13 1188 2 6 11 12
20 12 13 0 15 -146 17 -1357z m-620 870 c0 -93 2 -800 2 -1572 l1 -1403 -40 6
c-22 3 -130 19 -240 35 -110 17 -223 35 -252 41 l-51 11 -5 52 c-2 29 -5 649
-6 1378 l-1 1326 157 83 c87 46 183 96 213 113 55 30 198 95 213 96 4 1 8 -74
9 -166z m-992 -515 c1 -222 3 -854 6 -1404 l6 -1001 -29 -6 c-15 -3 -30 -3
-33 0 -3 2 -6 637 -8 1409 l-3 1404 31 0 30 0 0 -402z m340 385 c7 -6 5 -2751
-2 -2758 -5 -6 -81 -15 -250 -31 l-68 -7 0 1406 0 1407 158 -7 c86 -3 159 -8
162 -10z m273 -2848 c111 -19 227 -37 257 -40 30 -3 118 -17 195 -31 146 -26
451 -74 472 -74 7 0 14 -10 14 -22 l2 -23 4 23 c5 24 7 25 41 16 19 -6 22 -13
22 -55 0 -36 -4 -49 -14 -49 -8 0 -88 12 -178 26 -89 14 -190 30 -223 35 -33
4 -159 29 -280 53 -121 25 -285 54 -365 66 -80 11 -218 34 -307 50 -90 17
-166 31 -170 31 -5 1 33 7 82 14 154 21 231 17 448 -20z"/>
<path d="M16403 12293 c48 -2 125 -2 170 0 45 1 6 3 -88 3 -93 0 -130 -2 -82
-3z"/>
<path d="M16634 10858 c-12 -18 -5 -240 8 -256 8 -9 14 -10 25 -1 10 9 13 40
11 138 -3 108 -5 126 -20 129 -9 2 -20 -3 -24 -10z"/>
<path d="M8235 12609 c-38 -10 -110 -26 -160 -34 -138 -24 -395 -75 -446 -90
-96 -27 -148 -71 -132 -111 23 -57 167 -152 417 -275 186 -91 232 -101 472
-100 367 2 437 22 719 206 129 83 175 128 175 168 0 62 -33 86 -170 123 -47
12 -110 30 -140 38 -30 9 -91 21 -135 27 -44 6 -149 24 -232 40 -177 34 -269
36 -368 8z m200 -23 c19 -8 41 -28 50 -45 20 -39 5 -39 -39 0 -19 17 -52 33
-72 36 -31 5 -34 8 -19 14 29 11 42 10 80 -5z m-190 -46 c-60 -36 -96 -40 -88
-10 4 13 17 21 42 25 20 4 43 8 51 10 42 8 40 2 -5 -25z m339 13 c3 -10 9 -24
12 -30 4 -9 -3 -13 -19 -13 -17 0 -33 10 -47 30 l-21 30 34 0 c24 0 37 -5 41
-17z m107 -14 c37 -25 76 -34 93 -20 26 21 216 -19 216 -45 0 -4 -10 -3 -22 0
-13 4 -94 13 -181 20 -144 13 -159 16 -177 38 -11 12 -19 26 -20 30 0 13 64
-3 91 -23z m-292 2 c27 -17 -6 -41 -58 -41 -25 0 -64 -5 -86 -10 -22 -5 -41
-8 -42 -6 -2 2 18 17 44 34 49 31 113 41 142 23z m-269 -16 c-8 -10 -31 -15
-71 -15 -33 0 -59 -4 -59 -9 0 -16 -33 -21 -80 -13 l-45 8 100 21 c55 11 115
21 134 22 29 1 32 -1 21 -14z m341 -35 c35 -18 51 -20 143 -14 89 6 117 4 195
-16 51 -12 90 -24 88 -27 -3 -2 -35 2 -73 8 -38 6 -78 11 -89 10 -143 -13
-339 18 -320 50 8 12 10 12 56 -11z m-686 -20 c-11 -5 -29 -8 -40 -8 -16 0
-15 2 5 8 34 11 60 11 35 0z m133 -5 c3 -3 -3 -12 -14 -19 -11 -8 -21 -10 -25
-5 -3 5 -13 7 -22 3 -10 -3 -17 -1 -17 5 0 6 -7 11 -15 11 -8 0 -15 5 -15 10
0 10 98 5 108 -5z m256 5 c-16 -16 -84 -25 -84 -12 0 6 19 13 43 15 23 2 44 4
47 5 2 1 -1 -3 -6 -8z m944 -43 l3 -27 -45 31 c-57 38 -59 51 -3 35 35 -10 43
-17 45 -39z m-1071 13 c-38 -33 -52 -37 -60 -16 -7 19 31 45 66 45 l28 1 -34
-30z m396 5 c41 -13 116 -28 168 -33 l94 -8 -90 -9 c-64 -6 -108 -4 -155 5
-80 16 -132 17 -280 7 -63 -5 -112 -6 -109 -3 11 11 224 64 261 65 21 1 71
-10 111 -24z m-758 -3 c-63 -27 -83 -41 -90 -62 -7 -21 10 -60 25 -60 6 0 5 8
-1 19 -18 28 -4 50 47 72 56 25 68 19 19 -9 -51 -31 -46 -59 29 -141 l31 -34
-40 23 c-58 34 -121 77 -139 96 -20 20 -20 58 0 74 18 16 98 39 134 39 21 0
18 -3 -15 -17z m1301 3 c17 -13 16 -14 -13 -4 -34 11 -42 19 -20 19 7 0 22 -7
33 -15z m-1167 -4 c11 -7 9 -10 -7 -15 -12 -4 -19 -13 -16 -20 5 -13 -35 -36
-61 -36 -23 0 -18 12 17 47 35 34 45 38 67 24z m1420 -49 c12 -24 -2 -56 -38
-81 -35 -25 -37 -24 -16 15 20 39 19 50 -6 68 -14 9 -19 21 -15 31 5 14 8 14
36 0 16 -8 34 -23 39 -33z m-1369 30 c0 -4 -13 -13 -30 -19 -38 -14 -39 -8 -2
11 32 18 32 18 32 8z m77 -10 c2 -22 -45 -42 -96 -42 -33 0 -33 0 20 29 65 35
74 37 76 13z m1043 2 c75 -15 100 -27 100 -47 0 -7 -4 -7 -12 1 -15 15 -48 16
-48 2 0 -5 5 -10 10 -10 24 0 7 -41 -27 -64 -20 -14 -38 -24 -40 -22 -2 2 4
17 14 34 15 26 15 34 4 55 -7 13 -29 34 -49 45 -45 26 -45 26 48 6z m-80 -19
c31 -16 50 -43 50 -70 0 -32 -89 -112 -173 -155 -73 -37 -79 -39 -58 -16 13
14 45 32 70 41 64 22 77 34 101 94 19 50 20 55 5 78 -9 13 -26 28 -38 33 -18
7 -19 9 -4 9 10 1 31 -6 47 -14z m-65 -9 c19 -8 35 -22 35 -30 0 -17 -15 -22
-24 -8 -3 5 -46 12 -96 15 -71 5 -107 3 -170 -12 -75 -18 -84 -19 -170 -3 -86
15 -95 15 -164 -2 -60 -15 -81 -17 -125 -7 -65 14 -151 14 -151 1 0 -6 34 -10
81 -10 47 0 78 -4 74 -9 -9 -16 47 -17 122 -2 57 12 84 13 130 4 62 -12 135
-31 168 -43 36 -13 -129 2 -172 16 -35 11 -53 11 -110 0 -46 -9 -91 -10 -134
-5 -36 4 -88 7 -117 6 -37 -2 -52 1 -52 10 0 7 -3 13 -7 13 -5 0 -18 3 -30 6
-14 4 -23 2 -23 -5 0 -6 7 -11 15 -11 8 0 19 -9 25 -20 6 -11 17 -20 25 -20 8
0 15 -4 15 -10 0 -5 5 -10 10 -10 6 0 10 6 8 13 -6 26 16 21 23 -6 4 -15 28
-50 53 -78 26 -29 45 -54 42 -56 -7 -7 -133 93 -195 153 l-54 53 27 11 c15 5
32 10 37 10 5 0 26 7 47 16 30 13 73 15 237 13 317 -3 428 -1 460 9 45 15 121
14 160 -2z m324 -10 c9 -11 7 -25 -11 -62 -19 -39 -36 -56 -93 -91 -38 -23
-74 -43 -78 -43 -5 0 11 23 35 52 31 38 44 47 46 35 5 -25 14 -21 46 21 20 25
23 31 8 18 -33 -28 -36 -13 -7 29 14 21 25 42 25 46 0 14 16 11 29 -5z m-1466
-38 c16 -38 34 -54 100 -92 27 -15 46 -30 43 -33 -17 -18 -176 112 -176 145 0
24 20 12 33 -20z m140 -7 c15 -1 27 -6 27 -11 0 -6 15 -25 33 -43 18 -17 38
-39 43 -47 5 -8 38 -40 73 -70 93 -80 122 -110 105 -110 -8 0 -35 19 -59 43
-24 23 -72 67 -106 97 -87 78 -109 101 -109 115 0 7 -13 12 -30 11 -37 -1 -38
-9 -4 -25 15 -6 24 -14 22 -17 -7 -6 -97 48 -98 59 0 4 17 6 38 3 20 -3 49 -5
65 -5z m984 -5 c3 -3 -8 -13 -24 -23 -16 -10 -44 -35 -62 -55 -29 -34 -159
-128 -175 -128 -16 0 43 64 74 81 19 10 53 34 75 53 l40 35 -22 22 c-22 22
-23 22 -74 6 -28 -9 -70 -17 -93 -16 l-41 0 55 19 c42 14 77 17 149 14 51 -2
96 -6 98 -8z m38 -46 c-6 -19 -58 -60 -77 -60 -19 0 4 37 38 61 43 30 49 30
39 -1z m-155 12 c0 -5 -9 -17 -20 -27 -14 -12 -41 -19 -97 -22 -56 -3 -92 -11
-126 -28 -27 -13 -55 -21 -63 -18 -8 3 -14 0 -14 -7 0 -17 97 -4 117 16 16 16
53 19 53 4 0 -30 -181 -72 -206 -47 -4 4 -17 7 -28 7 -12 0 -34 9 -51 20 l-30
20 50 -2 c37 -2 49 0 47 10 -1 8 4 12 15 10 10 -2 17 -9 16 -16 -2 -6 4 -9 13
-5 13 5 11 10 -13 29 -32 27 -37 28 -65 13 -11 -6 -31 -8 -46 -3 l-27 7 25 7
c44 14 115 11 138 -6 36 -25 225 -3 277 33 22 15 35 17 35 5z m-579 -90 c35
-62 56 -83 76 -75 7 3 13 1 13 -5 0 -17 56 -33 116 -34 57 -1 58 -1 20 -10
-57 -12 -174 22 -201 59 -11 15 -32 40 -48 56 -32 34 -49 62 -41 70 13 13 35
-8 65 -61z m91 -12 c8 0 30 -12 49 -26 19 -14 41 -29 49 -34 8 -5 12 -12 8
-16 -4 -4 -26 6 -48 21 -22 15 -43 25 -46 22 -12 -12 -64 23 -79 53 -25 49
-17 56 19 17 18 -20 40 -37 48 -37z m766 43 c-15 -14 -39 -27 -53 -29 -33 -4
-26 4 28 32 56 28 56 28 25 -3z m-1068 -36 c0 -4 -16 4 -35 19 -45 34 -45 41
0 12 19 -13 35 -27 35 -31z m298 30 c2 -10 -3 -17 -12 -17 -18 0 -29 16 -21
31 9 14 29 6 33 -14z m531 -14 c-47 -52 -125 -111 -135 -101 -2 3 17 19 44 36
26 16 60 44 76 61 37 38 49 41 15 4z m-974 7 c3 -5 2 -10 -4 -10 -5 0 -13 5
-16 10 -3 6 -2 10 4 10 5 0 13 -4 16 -10z m820 -20 c-10 -11 -20 -18 -23 -15
-7 6 18 35 31 35 5 0 2 -9 -8 -20z m-723 -6 c14 -4 33 -33 26 -39 -2 -2 -28
10 -58 26 -50 27 -52 29 -20 24 19 -4 42 -9 52 -11z m1010 -24 c-18 -11 -38
-20 -45 -20 -14 1 52 39 68 40 6 0 -5 -9 -23 -20z m-867 -72 c6 -5 -12 0 -40
12 -54 23 -78 40 -56 40 8 0 11 6 7 16 -5 14 28 -12 89 -68z m540 72 c-3 -5
-14 -10 -23 -9 -14 0 -13 2 3 9 27 11 27 11 20 0z m265 -25 c0 -2 -13 -11 -29
-20 -16 -8 -32 -24 -36 -35 -4 -13 -23 -25 -57 -35 -81 -24 -79 -19 17 39 87
53 105 61 105 51z m-288 -17 c-14 -14 -162 -21 -162 -8 0 5 37 11 83 13 45 1
84 4 87 5 2 1 -1 -3 -8 -10z m373 2 c-11 -18 -66 -41 -88 -38 -18 2 -14 7 23
25 48 24 75 30 65 13z m-230 -20 c-3 -5 -16 -15 -28 -21 -19 -9 -19 -8 3 10
28 23 34 26 25 11z m-87 -17 c32 -20 31 -43 -1 -43 -24 0 -52 34 -42 50 8 13
10 13 43 -7z m-387 -19 c24 -8 62 -19 84 -24 37 -7 36 -8 -26 -9 -58 -1 -68 2
-89 24 -28 29 -26 30 31 9z m305 -11 c-9 -19 -16 -22 -36 -17 -26 7 -31 7 -95
0 -38 -5 -39 -5 -6 3 18 5 39 15 47 22 7 8 33 14 57 15 42 1 43 0 33 -23z"/>
<path d="M6967 12293 c18 -2 50 -2 70 0 21 2 7 4 -32 4 -38 0 -55 -2 -38 -4z"/>
<path d="M7243 12293 c9 -2 23 -2 30 0 6 3 -1 5 -18 5 -16 0 -22 -2 -12 -5z"/>
<path d="M8703 8495 c28 -25 57 -33 57 -16 0 15 -42 41 -65 41 -18 -1 -17 -3
8 -25z"/>
<path d="M9065 7190 c-16 -26 -238 -220 -281 -245 -27 -16 -112 -55 -189 -86
-91 -37 -141 -62 -143 -73 -4 -21 6 -20 92 5 90 27 159 62 274 139 99 66 272
228 272 254 0 18 -15 22 -25 6z"/>
<path d="M1381 7114 c0 -11 3 -14 6 -6 3 7 2 16 -1 19 -3 4 -6 -2 -5 -13z"/>
<path d="M4755 7005 c-126 -62 -464 -229 -750 -371 -682 -337 -657 -324 -679
-344 -20 -20 -14 -40 12 -40 28 0 251 104 651 304 206 102 402 199 435 213 34
15 88 44 121 64 33 19 112 60 175 89 233 107 285 133 303 148 16 14 16 16 1
34 -10 10 -22 18 -28 18 -6 0 -114 -52 -241 -115z"/>
<path d="M13181 7044 c0 -11 3 -14 6 -6 3 7 2 16 -1 19 -3 4 -6 -2 -5 -13z"/>
<path d="M9780 5823 c-1 -41 -21 -263 -31 -338 -29 -214 -87 -427 -138 -507
-53 -84 -64 -108 -47 -108 17 0 61 60 101 140 16 30 34 62 41 71 19 22 91 392
103 534 12 125 5 215 -17 223 -6 2 -12 -4 -12 -15z"/>
<path d="M10585 5778 c4 -18 16 -51 27 -72 30 -58 126 -321 144 -391 21 -85
34 -115 50 -115 23 0 16 59 -20 160 -70 196 -142 386 -159 418 -10 17 -25 32
-33 32 -12 0 -14 -7 -9 -32z"/>
<path d="M12092 5798 c-5 -7 -13 -24 -17 -38 -4 -14 -18 -46 -31 -72 -19 -38
-21 -48 -10 -48 26 0 86 106 86 151 0 22 -13 25 -28 7z"/>
<path d="M11150 5784 c0 -3 30 -39 68 -78 73 -79 199 -253 257 -356 41 -73 61
-97 72 -86 11 10 -60 144 -139 263 -78 117 -211 263 -239 263 -10 0 -19 -3
-19 -6z"/>
<path d="M10031 5633 c-11 -22 -32 -86 -46 -143 -25 -98 -86 -273 -154 -442
-34 -84 -38 -108 -17 -108 9 0 25 29 41 73 15 39 49 128 75 197 57 150 72 193
110 336 31 114 27 156 -9 87z"/>
<path d="M8130 4736 c0 -20 17 -36 108 -99 223 -157 509 -257 733 -257 38 0
61 5 69 15 7 9 11 17 9 19 -2 2 -58 9 -124 15 -88 8 -156 22 -252 51 -197 59
-218 69 -376 173 -81 54 -151 97 -157 97 -5 0 -10 -6 -10 -14z"/>
<path d="M8332 4323 c4 -22 78 -74 283 -198 273 -165 367 -239 627 -490 230
-221 285 -267 258 -213 -18 36 -456 463 -540 527 -85 64 -226 153 -398 254
-65 37 -141 83 -169 102 -60 40 -66 42 -61 18z"/>
<path d="M8050 4242 c0 -26 121 -126 481 -398 118 -89 264 -207 324 -262 105
-96 347 -337 433 -432 22 -25 43 -42 46 -39 21 20 -238 301 -439 478 -66 58
-138 122 -160 142 -22 20 -125 101 -230 180 -104 78 -243 185 -308 236 -120
96 -147 113 -147 95z"/>
<path d="M8334 3553 c-31 -54 -78 -134 -104 -178 -26 -44 -88 -163 -138 -265
-50 -102 -132 -254 -182 -338 -85 -144 -96 -172 -67 -172 27 0 191 281 379
650 60 118 129 249 153 290 25 41 45 83 45 93 0 41 -33 10 -86 -80z"/>
</g>
</svg>
