<?xml version="1.0" standalone="no"?>
<!DOCTYPE svg PUBLIC "-//W3C//DTD SVG 20010904//EN"
 "http://www.w3.org/TR/2001/REC-SVG-20010904/DTD/svg10.dtd">
<svg version="1.0" xmlns="http://www.w3.org/2000/svg"
 width="2220.000000pt" height="1920.000000pt" viewBox="0 0 2220.000000 1920.000000"
 preserveAspectRatio="xMidYMid meet">

<defs>
<filter id="invertAlpha"><feComponentTransfer><feFuncA type="table" tableValues="1 0"/></feComponentTransfer></filter>
</defs>

<g transform="translate(0.000000,1920.000000) scale(0.100000,-0.100000)"
fill="white" stroke="none" filter="url(#invertAlpha)">
<path d="M0 9600 l0 -9600 2608 0 2607 1 63 94 c35 52 189 275 344 497 338
484 663 968 972 1448 211 327 621 941 836 1255 215 312 298 538 330 900 6 66
28 280 50 475 40 360 109 1103 130 1395 22 305 48 384 243 730 210 372 377
728 499 1065 78 214 104 270 218 470 150 262 180 352 221 665 46 358 83 471
167 514 118 59 282 20 401 -96 l60 -58 4 1020 c3 1128 -1 1053 68 1194 44 89
162 207 249 249 136 66 34 62 1678 62 1331 0 1501 -2 1556 -16 155 -40 302
-157 370 -295 67 -136 66 -118 66 -1081 0 -478 3 -868 8 -868 4 0 43 11 87 25
44 13 114 30 155 36 180 28 349 -52 421 -196 21 -43 24 -64 24 -155 0 -94 -3
-111 -28 -165 -77 -163 -248 -329 -538 -521 l-129 -85 0 -75 c0 -67 2 -75 18
-70 57 17 166 28 235 23 186 -13 347 -150 418 -357 61 -180 -4 -503 -123 -605
-81 -69 -229 -101 -335 -72 l-53 14 -77 -47 -78 -46 -3 -57 c-2 -31 0 -57 4
-57 4 0 43 7 87 16 118 24 254 16 332 -20 130 -59 221 -159 264 -288 29 -89
35 -153 21 -228 -15 -87 -54 -165 -143 -291 -129 -182 -198 -228 -348 -237
-82 -4 -114 1 -206 36 -10 3 -13 -27 -13 -129 0 -103 3 -130 12 -121 18 18 42
15 62 -7 23 -26 2 -39 -24 -16 -25 23 -50 5 -50 -35 0 -27 0 -27 48 -18 26 5
97 10 157 10 143 1 205 -20 286 -101 83 -83 103 -142 104 -296 0 -117 -1 -122
-35 -190 -47 -94 -171 -218 -314 -314 -60 -40 -218 -126 -350 -191 -252 -125
-546 -279 -680 -358 -183 -107 -318 -225 -510 -447 -67 -77 -177 -198 -246
-270 -261 -272 -380 -411 -595 -695 -212 -279 -342 -435 -490 -588 -193 -200
-270 -260 -534 -421 -73 -44 -170 -107 -215 -138 -90 -63 -409 -380 -538 -533
-86 -103 -254 -350 -336 -496 -84 -148 -352 -707 -388 -806 l-13 -38 6554 0
6555 0 0 9600 0 9600 -11100 0 -11100 0 0 -9600z m10245 8221 c76 -35 121
-113 132 -227 l6 -67 -26 19 c-15 10 -27 23 -27 28 0 5 10 1 22 -10 21 -19 21
-19 14 6 -5 14 -9 41 -11 60 -1 19 -4 37 -5 40 -1 3 -2 9 -1 13 2 13 -29 67
-39 67 -6 0 -10 -8 -10 -18 0 -10 -6 -24 -12 -31 -7 -8 -8 -11 -3 -8 6 3 10
-8 11 -25 1 -17 7 -34 13 -38 10 -5 9 -9 -2 -13 -11 -4 -17 3 -21 26 -3 18
-15 46 -26 64 -52 86 -201 88 -242 2 -13 -26 -22 -32 -57 -34 -51 -4 -54 11
-12 76 39 63 94 89 186 89 47 0 83 -7 110 -19z m523 9 l132 0 0 -30 0 -29 -82
-3 -83 -3 -3 -227 -2 -228 -40 0 -40 0 -2 228 -3 227 -82 -3 -83 -4 0 39 0 38
77 -2 c43 -1 138 -2 211 -3z m567 -200 c39 -113 81 -231 93 -262 l22 -58 -49
0 c-45 0 -49 2 -55 28 -4 15 -9 36 -13 47 -5 20 -5 20 10 0 14 -18 15 -17 13
18 -2 21 -8 43 -15 50 -9 9 -7 15 9 27 l21 16 -22 49 c-17 41 -22 47 -28 31
-7 -17 -8 -18 -14 -3 -11 29 -28 19 -22 -13 10 -56 -3 -31 -35 68 -17 53 -34
104 -37 112 -4 12 -83 -198 -83 -222 0 -4 35 -8 77 -8 89 0 95 -7 8 -11 -70
-2 -76 -5 -68 -24 4 -11 24 -16 72 -17 63 -2 62 -2 -24 -7 l-90 -6 -21 -65
-21 -65 -46 -3 -47 -3 81 233 c45 128 86 248 92 266 10 32 11 33 65 30 l55 -3
72 -205z m1354 192 c47 -23 72 -61 78 -114 8 -67 -17 -109 -133 -225 l-103
-103 119 0 120 0 0 -37 0 -38 -98 1 c-180 1 -210 4 -184 16 27 13 28 30 5 54
-17 17 -17 17 -1 11 10 -3 20 -1 24 5 5 7 2 8 -6 3 -10 -6 -12 -4 -7 8 9 24
-28 16 -53 -11 -12 -12 -24 -22 -27 -22 -4 0 8 16 27 35 18 19 38 31 43 28 6
-3 7 -2 4 4 -4 6 21 37 55 69 44 43 60 53 56 37 -5 -19 -4 -20 13 -10 21 13
25 27 8 27 -6 0 0 15 15 34 40 53 48 83 35 123 -27 83 -165 73 -181 -12 -2
-16 -12 -21 -46 -23 -50 -4 -53 8 -22 76 15 33 29 47 62 62 56 25 150 26 197
2z m-1061 1 c-21 -2 -38 -8 -38 -13 0 -12 41 -40 51 -35 4 3 5 -5 2 -17 -4
-19 -3 -20 6 -8 8 11 11 -48 11 -212 l0 -228 -40 0 -40 0 0 260 0 260 43 -2
42 -1 -37 -4z m382 -253 l0 -260 -45 0 -46 0 2 120 c1 111 12 162 22 108 4
-20 4 -20 6 4 1 19 5 26 15 22 8 -3 17 -1 21 5 3 6 0 11 -7 11 -10 0 -10 2 1
9 25 16 23 68 -4 95 -14 14 -25 35 -25 48 0 19 -2 20 -10 8 -8 -12 -10 -11
-10 8 0 21 -4 22 -97 24 -76 1 -87 2 -48 7 35 4 45 8 32 13 -10 5 -16 12 -13
16 3 5 -25 10 -62 11 -131 4 -72 11 96 11 l172 0 0 -260z m-1734 33 c-4 -4
-47 -6 -96 -5 -89 1 -90 1 -90 -23 0 -24 1 -24 102 -27 72 -2 102 -7 104 -16
1 -7 0 -8 -3 -2 -3 6 -49 10 -113 10 l-109 0 2 35 2 35 104 0 c57 0 101 -3 97
-7z m-262 -158 c38 -90 177 -102 241 -19 14 18 15 17 11 -16 -3 -19 -3 -29 0
-22 3 6 10 9 15 6 6 -3 5 -12 -3 -22 -12 -15 -11 -16 4 -4 9 8 14 21 11 30 -4
14 -3 14 5 3 9 -13 14 -11 32 10 l22 24 -19 -35 c-10 -19 -38 -48 -61 -65 -35
-24 -55 -30 -112 -33 -109 -6 -179 28 -220 109 -30 58 -27 69 20 69 36 0 41
-3 54 -35z m1301 5 c3 -6 -1 -7 -9 -4 -18 7 -21 14 -7 14 6 0 13 -4 16 -10z
m1145 -136 c0 -2 -9 -4 -20 -4 -11 0 -20 4 -20 9 0 5 9 7 20 4 11 -3 20 -7 20
-9z m-648 -696 c8 -55 120 -57 134 -2 5 21 12 24 50 24 49 0 54 -11 29 -59
-42 -82 -234 -88 -289 -9 -9 12 -16 33 -16 45 0 20 5 23 44 23 39 0 45 -3 48
-22z m-3430 -115 c0 -71 1 -143 0 -162 l-1 -33 67 64 c37 36 112 108 167 161
l100 97 63 0 c34 0 62 -3 62 -7 0 -3 -63 -66 -140 -140 l-139 -134 53 -72 c73
-100 226 -324 226 -331 0 -3 -26 -6 -58 -6 l-58 0 -115 165 c-63 91 -116 165
-119 165 -3 0 -27 -19 -53 -41 l-47 -41 0 -124 0 -124 -55 0 -55 0 0 345 0
345 50 0 50 0 2 -127z m857 -71 c52 -26 88 -78 107 -155 33 -131 -12 -274
-101 -324 -54 -30 -155 -32 -203 -3 -18 11 -35 20 -37 20 -3 0 -5 -52 -5 -115
l0 -115 -45 0 -45 0 -2 295 c-1 162 -2 321 -3 353 l0 57 45 0 c40 0 45 -3 48
-23 3 -22 5 -23 22 -7 51 46 146 53 219 17z m4556 10 c35 -12 56 -27 72 -51
22 -32 23 -44 23 -202 l0 -169 25 0 c22 0 25 -4 25 -39 0 -42 -10 -51 -62 -51
-20 0 -39 9 -58 30 -24 26 -29 28 -41 14 -18 -22 -43 -33 -97 -44 -150 -28
-252 85 -193 216 22 49 65 72 160 86 114 17 140 26 147 53 18 74 -70 119 -160
81 -24 -10 -37 -24 -46 -50 -11 -33 -15 -36 -49 -36 -21 0 -40 2 -43 5 -11 11
14 90 35 113 56 60 163 78 262 44z m-4237 -192 l65 -195 64 198 64 197 50 0
c63 0 66 22 -35 -255 -127 -345 -146 -392 -173 -419 -31 -32 -88 -48 -128 -38
-26 7 -30 13 -33 50 l-3 41 34 -6 c49 -8 73 10 92 67 l17 51 -91 243 c-50 133
-91 248 -91 255 0 8 16 11 52 9 l51 -3 65 -195z m770 -57 l2 -253 -48 0 -47 0
-2 208 -2 207 -110 3 -111 3 0 -211 0 -210 -45 0 -45 0 0 255 0 255 203 -2
202 -3 3 -252z m212 157 l0 -100 110 0 109 0 3 98 3 97 48 3 47 3 0 -255 0
-256 -50 0 -50 0 0 110 0 110 -110 0 -110 0 0 -109 c0 -61 -3 -112 -7 -114 -5
-2 -25 -2 -45 0 l-38 5 0 254 0 254 45 0 45 0 0 -100z m530 5 l0 -95 93 0
c110 0 169 -23 201 -80 27 -46 27 -125 1 -169 -36 -61 -70 -71 -236 -71 -144
0 -147 0 -151 23 -7 37 -10 466 -3 477 3 5 26 10 51 10 l44 0 0 -95z m473
-165 l2 -255 -45 0 -45 0 -3 258 -2 258 45 -3 45 -3 3 -255z m217 78 l5 -177
114 180 114 180 51 -3 51 -3 3 -252 2 -253 -50 0 -50 0 0 182 0 182 -113 -180
-113 -179 -53 -5 c-28 -3 -54 -4 -57 -1 -7 7 -4 497 3 505 4 4 25 6 48 4 l40
-3 5 -177z m1075 -78 l0 -255 -45 0 -45 0 -3 213 -2 212 -110 0 -110 0 -2
-212 -3 -213 -45 0 -45 0 -3 245 c-1 134 0 250 3 258 3 10 49 12 207 10 l203
-3 0 -255z m545 5 l0 -255 -45 0 -45 0 0 210 0 210 -88 0 -89 0 -6 -108 c-14
-239 -58 -327 -159 -320 -43 3 -43 3 -46 46 l-3 42 35 0 c57 0 67 32 79 248
l10 182 179 0 178 0 0 -255z m738 153 l3 -98 109 0 110 0 0 101 0 100 48 -3
47 -3 3 -249 c1 -137 -1 -253 -6 -258 -5 -5 -27 -6 -50 -2 l-42 7 0 108 0 109
-110 0 -110 0 0 -110 0 -110 -50 0 -50 0 0 256 0 255 48 -3 47 -3 3 -97z
m6997 -14816 c63 -175 203 -314 378 -377 34 -13 62 -28 62 -35 0 -7 -28 -22
-62 -35 -176 -63 -315 -202 -378 -378 -13 -34 -28 -62 -35 -62 -7 0 -22 28
-35 62 -63 176 -202 315 -378 378 -34 13 -62 28 -62 35 0 7 28 22 62 35 88 32
165 81 230 146 82 84 119 146 168 287 9 26 28 5 50 -56z"/>
<path d="M9960 17730 c0 -5 5 -10 10 -10 6 0 10 5 10 10 0 6 -4 10 -10 10 -5
0 -10 -4 -10 -10z"/>
<path d="M10857 17807 c3 -5 -1 -13 -8 -18 -10 -6 -6 -9 14 -9 20 0 27 5 27
19 0 13 -6 19 -19 18 -11 0 -17 -5 -14 -10z"/>
<path d="M11368 17323 c6 -2 18 -2 25 0 6 3 1 5 -13 5 -14 0 -19 -2 -12 -5z"/>
<path d="M12640 17571 c0 -6 4 -12 8 -15 5 -3 9 1 9 9 0 8 -4 15 -9 15 -4 0
-8 -4 -8 -9z"/>
<path d="M12692 17362 c-16 -11 -5 -42 15 -42 8 0 11 5 8 10 -3 6 -1 10 4 10
6 0 11 7 11 15 0 16 -18 19 -38 7z"/>
<path d="M12747 17363 c-4 -3 -7 -11 -7 -17 0 -6 5 -5 12 2 6 6 9 14 7 17 -3
3 -9 2 -12 -2z"/>
<path d="M11592 17355 c-2 -33 -1 -35 29 -35 28 0 30 2 18 17 -9 11 -10 14 -2
9 9 -5 11 -2 6 10 -6 15 -7 15 -20 -2 -13 -18 -13 -17 -11 5 2 13 -2 25 -7 28
-6 2 -12 -13 -13 -32z"/>
<path d="M9064 16351 c-88 -54 -85 -279 5 -325 65 -34 132 -11 168 57 26 48
23 170 -4 223 -34 64 -106 83 -169 45z"/>
<path d="M13699 16165 c-86 -14 -117 -30 -126 -64 -24 -95 101 -133 185 -57
29 27 35 41 40 84 5 59 13 56 -99 37z"/>
<path d="M11070 16094 l0 -86 85 3 c95 4 119 19 131 76 5 27 1 37 -24 63 -29
28 -35 30 -111 30 l-81 0 0 -86z"/>
<path d="M10217 11804 c-97 -23 -167 -63 -243 -139 -74 -74 -114 -141 -139
-236 -22 -82 -22 -2201 0 -2256 104 -269 108 -751 9 -1120 l-24 -92 3 -1383
c2 -761 8 -1403 13 -1428 14 -70 83 -189 145 -251 81 -81 177 -127 294 -140
57 -6 619 -9 1540 -7 l1450 3 69 27 c84 33 164 87 217 146 47 54 99 155 106
208 4 37 1 43 -55 100 -72 73 -102 145 -110 255 -8 132 42 246 141 319 l47 35
0 194 0 194 -47 47 c-115 113 -159 280 -117 443 21 80 51 139 113 216 l51 64
0 297 0 298 -27 68 c-25 64 -28 80 -28 214 0 133 3 152 28 223 l27 78 -2 1607
-3 1607 -26 72 c-63 172 -201 298 -371 338 -92 21 -2972 21 -3061 -1z m1982
-270 c31 -22 52 -75 45 -113 -3 -16 -19 -42 -36 -58 l-29 -28 -435 0 -436 0
-29 33 c-49 54 -36 136 26 170 14 8 155 11 445 12 378 0 428 -2 449 -16z
m-1099 -464 c0 -5 -8 -7 -17 -3 -15 5 -14 3 2 -10 19 -15 7 -16 -159 -17 -154
0 -177 2 -172 15 3 8 1 15 -3 15 -5 0 -11 -5 -13 -12 -3 -7 -7 -6 -11 5 -6 16
9 17 183 17 116 0 190 -4 190 -10z m1070 6 c0 -2 -14 -9 -30 -15 -22 -7 -29
-7 -24 0 4 7 0 9 -12 6 -11 -3 -37 -11 -59 -17 -50 -14 -545 -10 -544 5 0 5
-8 12 -18 16 -10 4 141 8 335 8 193 1 352 -1 352 -3z m833 -3 c-13 -2 -23 -11
-23 -18 0 -12 -35 -14 -192 -14 -106 1 -188 3 -181 6 7 2 9 11 6 19 -4 12 26
14 203 13 115 -1 199 -4 187 -6z m-1689 -32 c3 -5 -20 -22 -52 -39 -31 -17
-86 -51 -121 -76 -85 -60 -110 -64 -196 -30 -99 38 -198 39 -276 3 -87 -41
-204 -124 -289 -205 -43 -41 -80 -74 -84 -74 -3 0 -6 13 -6 29 0 59 242 249
378 297 90 32 175 31 267 -1 105 -37 115 -36 213 38 29 22 74 46 100 53 59 16
60 16 66 5z m1238 -96 c23 -20 38 -24 58 -20 39 9 92 -16 124 -57 26 -35 33
-58 18 -58 -4 0 -26 18 -47 40 -34 34 -45 40 -82 40 -32 0 -54 8 -84 30 -31
22 -48 28 -70 23 -16 -3 -29 -1 -29 4 0 33 72 31 112 -2z m-2272 -181 c3 -251
1 -301 -10 -284 -7 12 -11 10 -19 -10 -7 -18 -10 53 -10 234 -1 257 -1 260 18
239 18 -19 20 -38 21 -179z m1294 27 c6 -10 -22 -37 -29 -29 -8 7 5 38 15 38
5 0 11 -4 14 -9z m1684 -287 c0 -105 -4 -197 -9 -205 -7 -11 -9 -11 -9 4 0 9
-5 17 -11 17 -5 0 -7 -5 -3 -12 4 -7 3 -8 -4 -4 -9 5 -12 69 -12 217 0 186 2
211 18 227 16 17 17 16 24 -18 3 -19 6 -121 6 -226z m-663 207 c7 -13 -2 -17
-52 -26 -35 -5 -43 -4 -43 8 0 9 6 18 13 20 21 9 76 7 82 -2z m-1335 -32 c0
-5 -8 -13 -17 -16 -10 -4 -40 -26 -66 -49 -36 -32 -62 -46 -102 -54 -29 -6
-58 -17 -64 -24 -23 -27 106 11 154 45 44 32 52 34 129 34 80 0 155 -20 139
-36 -4 -4 -26 -4 -48 1 -69 16 -83 9 -20 -9 33 -10 78 -28 100 -40 23 -12 58
-21 83 -21 30 0 42 -4 40 -12 -7 -22 -73 -21 -117 1 -57 29 -147 51 -181 44
-16 -3 -51 -25 -79 -48 -33 -28 -64 -45 -90 -50 -30 -5 -50 -18 -78 -48 -33
-38 -44 -43 -108 -54 l-70 -11 78 2 c69 3 81 6 105 30 46 43 58 31 18 -18 -13
-16 -36 -30 -52 -33 -106 -14 -142 -14 -193 1 -82 24 -87 23 -83 -24 6 -55
-11 -91 -68 -144 -50 -47 -107 -70 -204 -82 -28 -4 -57 -11 -64 -17 -7 -5 -15
-8 -18 -5 -2 3 -20 -10 -38 -28 -57 -57 -79 -40 -23 18 17 18 40 48 49 66 16
29 21 32 64 32 76 0 159 28 205 69 34 30 42 46 52 96 l12 60 70 -3 c68 -3 69
-3 41 12 -15 9 -46 16 -67 16 -44 0 -62 -21 -73 -83 -8 -45 -53 -98 -101 -121
-19 -10 -69 -21 -110 -25 -82 -10 -125 -30 -125 -61 0 -27 -17 -34 -25 -9 -14
44 48 83 147 92 107 10 171 51 189 121 18 71 30 93 57 106 15 7 22 15 15 17
-28 10 -53 -19 -73 -87 -23 -78 -57 -115 -100 -107 -34 7 -120 -16 -193 -53
-70 -35 -67 -34 -67 -16 0 26 75 66 149 80 40 8 75 16 78 20 3 3 14 1 25 -5
29 -16 64 22 77 83 16 71 37 107 69 115 16 4 69 -2 130 -15 114 -24 146 -19
162 22 9 25 44 51 58 42 4 -3 14 -1 22 5 11 6 6 9 -17 9 -17 0 -35 -5 -38 -10
-4 -6 -10 -8 -14 -6 -4 3 -18 -9 -30 -25 -16 -21 -26 -28 -33 -21 -7 7 0 25
21 56 37 54 64 73 112 82 48 9 79 27 114 64 42 44 85 59 85 29z m580 -35 c63
-31 148 -69 189 -86 78 -31 131 -63 131 -79 0 -15 -20 -10 -50 11 -16 11 -57
31 -92 44 -35 13 -109 46 -164 74 -56 27 -115 54 -133 60 -33 12 -42 32 -13
32 9 0 69 -25 132 -56z m610 36 c0 -6 -8 -14 -17 -17 -10 -4 -35 -17 -56 -30
-23 -14 -46 -22 -55 -18 -15 6 -15 8 3 22 25 19 96 52 113 53 6 0 12 -5 12
-10z m-865 -47 c19 -46 13 -77 -20 -99 -27 -17 -76 -14 -102 7 -24 21 -14 26
27 16 36 -10 43 -9 61 10 20 19 20 22 5 52 -16 31 -14 51 4 51 6 0 17 -17 25
-37z m-715 7 c0 -16 -21 -22 -36 -9 -11 9 -12 14 -3 20 14 8 39 1 39 -11z
m1670 14 c0 -4 -17 -26 -39 -49 -21 -23 -44 -52 -50 -64 -11 -20 -10 -21 34
-21 49 0 103 -23 154 -65 55 -47 32 -98 -33 -71 -27 11 -42 12 -70 4 -42 -13
-59 -3 -31 19 14 10 37 13 79 11 l59 -4 -29 23 c-53 44 -84 56 -136 51 -68 -7
-80 10 -48 68 30 58 110 129 110 98z m450 -4 c25 -14 77 -157 62 -172 -17 -17
-27 -2 -41 57 -7 28 -19 61 -27 73 -15 22 -20 23 -76 17 -48 -6 -60 -5 -56 6
8 25 102 38 138 19z m-2220 -23 c0 -14 -67 -40 -82 -31 -14 9 -9 21 15 32 31
15 67 14 67 -1z m1100 -62 c52 -24 111 -48 131 -54 54 -17 120 -62 206 -142
95 -88 125 -102 226 -100 42 0 77 -3 77 -8 0 -15 -29 -21 -99 -21 -86 0 -142
27 -231 111 -89 84 -133 115 -192 135 -28 9 -88 34 -134 55 -87 40 -121 47
-155 29 -28 -15 -26 14 3 34 28 20 50 15 168 -39z m-1200 26 c0 -5 -14 -21
-32 -36 -23 -19 -34 -23 -37 -14 -2 7 8 23 23 36 28 24 46 29 46 14z m1597
-73 c18 -34 30 -64 27 -67 -13 -13 -39 20 -55 70 -22 64 -21 59 -11 59 4 0 22
-28 39 -62z m-452 26 c33 -14 94 -39 135 -56 88 -35 112 -52 207 -147 89 -89
152 -121 242 -121 122 0 165 -38 260 -227 41 -82 68 -121 135 -191 46 -49 91
-103 100 -120 23 -45 20 -100 -9 -147 -33 -54 -33 -97 1 -124 24 -19 35 -21
103 -15 73 6 78 5 101 -19 21 -22 89 -192 90 -224 0 -7 -7 -13 -15 -13 -17 0
-39 46 -31 67 7 16 -45 133 -67 152 -12 10 -34 11 -86 6 -57 -6 -75 -4 -100
11 -61 36 -67 106 -16 183 26 39 27 44 16 83 -9 29 -39 68 -104 137 -78 81
-102 115 -155 217 -34 66 -78 136 -97 154 -33 32 -39 34 -127 40 -119 8 -171
34 -287 150 -58 57 -99 90 -126 98 -22 8 -84 34 -138 59 -67 31 -105 43 -121
39 -13 -3 -40 -28 -60 -55 -19 -28 -47 -58 -62 -67 -26 -17 -28 -17 -112 26
-68 35 -98 45 -149 48 l-64 4 -59 -61 c-32 -33 -65 -61 -73 -61 -12 0 -15 -11
-14 -47 2 -42 -1 -49 -25 -61 -36 -17 -122 -27 -145 -16 -10 4 -24 8 -32 8 -8
1 -16 7 -19 14 -5 15 27 16 64 2 20 -8 41 -7 76 2 61 15 72 27 58 64 -14 37
-8 50 32 63 19 7 44 28 60 50 59 83 163 93 283 27 92 -50 114 -48 160 14 40
54 71 80 95 80 8 0 42 -12 75 -26z m-165 -6 c0 -14 -30 -48 -42 -48 -13 0 -9
22 9 42 18 21 33 23 33 6z m728 -39 c-3 -24 -33 -48 -44 -36 -11 10 17 57 33
57 9 0 13 -8 11 -21z m-1951 -66 c-27 -27 -41 -4 -15 24 20 21 23 22 26 8 2
-10 -3 -24 -11 -32z m2009 -37 c-3 -14 -13 -26 -21 -26 -18 0 -19 23 -4 52 15
27 34 8 25 -26z m-2046 5 c0 -12 -20 -25 -27 -18 -7 7 6 27 18 27 5 0 9 -4 9
-9z m-54 -36 c-22 -17 -36 -19 -36 -7 0 14 12 22 34 22 21 -1 21 -1 2 -15z
m2804 -34 c0 -9 7 -27 16 -39 9 -13 14 -37 12 -59 -4 -46 -28 -58 -28 -14 0
17 -10 50 -21 75 -24 48 -20 88 6 66 8 -7 15 -20 15 -29z m-555 -7 c18 -7 66
-98 123 -237 56 -132 96 -191 191 -277 131 -119 160 -175 140 -267 -9 -38 -18
-54 -33 -59 -11 -4 -28 -17 -38 -29 -22 -28 -54 -37 -69 -19 -9 11 -8 14 7 14
29 0 93 63 105 101 7 24 6 47 -2 79 -10 37 -31 63 -119 150 -120 118 -135 142
-225 341 -81 177 -85 183 -147 175 -31 -4 -48 -3 -48 4 0 22 77 38 115 24z
m-1737 -39 c8 -7 12 -21 10 -31 -3 -17 -4 -17 -22 2 -11 10 -24 19 -30 20 -6
0 -17 2 -23 2 -7 1 -13 9 -13 18 0 12 7 14 33 9 17 -4 38 -13 45 -20z m1782
-121 c21 -45 55 -121 76 -170 35 -83 45 -96 154 -204 144 -142 155 -165 114
-241 -27 -48 -77 -89 -88 -70 -3 4 8 21 25 37 43 40 62 81 54 113 -4 15 -53
72 -117 134 l-110 108 -79 165 c-43 91 -79 172 -79 181 0 8 -9 17 -20 20 -20
5 -26 23 -13 36 13 14 45 -29 83 -109z m73 39 c14 -32 39 -92 57 -134 40 -100
84 -160 151 -209 30 -22 86 -74 124 -115 60 -64 70 -81 73 -116 4 -44 -14
-102 -30 -97 -12 4 -12 4 -3 51 5 23 3 49 -5 67 -14 33 -98 122 -206 216 -74
66 -94 97 -166 274 -22 52 -42 101 -45 108 -3 6 1 12 10 12 8 0 25 -25 40 -57z
m78 42 c-1 -15 -24 -12 -29 3 -3 9 2 13 12 10 10 -1 17 -7 17 -13z m-994 -5
c164 -22 298 -86 445 -213 87 -73 168 -181 278 -365 133 -225 179 -289 308
-425 176 -185 219 -296 209 -547 -7 -169 -37 -292 -136 -552 -87 -231 -103
-292 -147 -570 -40 -255 -50 -294 -111 -441 -108 -257 -308 -477 -585 -642
-165 -98 -298 -125 -448 -90 -214 50 -618 225 -719 312 -106 90 -213 280 -271
478 -76 260 -149 401 -269 520 -39 38 -61 67 -61 82 0 13 3 23 8 23 16 0 182
-178 216 -232 46 -72 90 -182 150 -373 92 -289 192 -436 362 -531 89 -50 342
-156 474 -199 153 -50 273 -58 370 -25 148 50 334 176 475 321 109 112 190
231 246 361 55 126 74 201 114 447 42 258 60 330 124 497 75 199 129 373 146
469 33 189 12 396 -52 504 -15 25 -73 95 -130 154 -118 123 -171 196 -285 387
-194 324 -293 432 -491 531 -220 111 -452 95 -820 -55 -72 -30 -197 -73 -277
-97 -257 -75 -425 -151 -561 -255 -31 -24 -59 -40 -63 -37 -19 19 -3 51 42 84
142 105 265 161 547 249 110 34 236 77 280 95 184 76 364 126 500 138 22 2 43
4 47 5 4 1 42 -3 85 -8z m-977 -34 c0 -23 -45 -70 -58 -62 -8 5 -3 18 16 42
29 37 42 43 42 20z m2078 -35 c5 -33 -14 -49 -34 -29 -13 13 -14 20 -4 37 14
27 34 23 38 -8z m-2627 -26 c5 3 6 -2 2 -11 -4 -12 -3 -15 5 -10 9 5 12 -33
11 -151 0 -87 -3 -152 -6 -145 -12 30 -22 6 -26 -60 -1 -40 -3 35 -4 167 0
132 1 232 4 222 2 -9 9 -15 14 -12z m2869 4 c0 -6 -9 -13 -20 -16 -20 -5 -28
-23 -11 -23 5 0 32 -22 60 -49 39 -38 51 -57 51 -80 0 -38 -12 -40 -30 -6 -8
14 -43 53 -78 87 l-65 61 22 19 c25 20 71 25 71 7z m-755 -80 c10 -15 -1 -23
-20 -15 -9 3 -13 10 -10 16 8 13 22 13 30 -1z m71 -34 c15 -15 24 -34 22 -47
-4 -31 -28 -35 -28 -5 0 13 -9 32 -20 42 -11 10 -20 22 -20 27 0 16 21 8 46
-17z m83 -31 c22 -28 28 -54 12 -54 -8 0 -51 64 -51 76 0 13 21 1 39 -22z
m-2159 -37 c0 -18 -57 -97 -70 -97 -13 0 -13 27 0 35 5 3 15 15 20 25 9 16 8
19 -7 14 -13 -4 -12 0 6 15 27 24 51 27 51 8z m1424 -12 c171 -47 351 -184
458 -349 21 -32 74 -131 119 -219 44 -88 121 -226 170 -308 166 -274 195 -361
186 -559 -4 -83 -14 -146 -35 -225 -81 -301 -96 -366 -137 -575 -52 -261 -83
-383 -119 -464 -81 -184 -248 -344 -473 -455 -134 -66 -174 -76 -308 -76 -103
1 -136 5 -235 32 -198 55 -337 115 -406 175 -88 77 -127 166 -219 503 -52 189
-99 298 -179 419 -67 101 -183 225 -269 290 -48 36 -63 53 -60 67 3 11 9 19
13 19 17 0 141 -104 216 -181 81 -84 166 -204 219 -309 37 -74 66 -160 126
-380 62 -224 100 -313 166 -377 62 -62 118 -91 281 -147 245 -84 372 -93 532
-40 170 57 375 207 475 348 91 129 115 200 180 524 48 244 81 386 140 607 29
109 38 166 42 255 8 180 -16 254 -172 516 -47 78 -126 223 -178 321 -51 98
-112 206 -136 241 -112 165 -277 275 -469 313 -300 58 -888 -157 -1334 -488
-83 -61 -108 -70 -108 -38 0 29 218 183 405 287 235 131 568 255 774 288 78
12 264 4 335 -15z m1466 -245 c0 -220 -1 -230 -19 -230 -11 0 -22 -6 -24 -12
-3 -7 -5 93 -5 222 0 129 2 229 5 222 4 -10 9 -8 20 7 8 12 16 21 19 21 2 0 4
-103 4 -230z m-1692 171 c3 -8 -1 -12 -9 -9 -7 2 -15 10 -17 17 -3 8 1 12 9 9
7 -2 15 -10 17 -17z m987 -37 c14 -28 21 -52 16 -57 -11 -11 -64 89 -55 104 8
13 9 11 39 -47z m-917 28 c2 -7 -3 -12 -12 -12 -9 0 -16 7 -16 16 0 17 22 14
28 -4z m57 -2 c3 -5 -1 -10 -10 -10 -9 0 -13 5 -10 10 3 6 8 10 10 10 2 0 7
-4 10 -10z m-355 -14 c0 -11 -19 -15 -25 -6 -3 5 1 10 9 10 9 0 16 -2 16 -4z
m470 -6 c0 -5 -9 -10 -19 -10 -11 0 -23 5 -26 10 -4 6 5 10 19 10 14 0 26 -4
26 -10z m-590 -28 c0 -13 -12 -22 -22 -16 -10 6 -1 24 13 24 5 0 9 -4 9 -8z
m680 -2 c8 -5 12 -11 9 -14 -7 -8 -49 5 -49 15 0 12 21 11 40 -1z m-800 -50
c0 -13 -28 -25 -38 -16 -3 4 0 11 8 16 20 13 30 12 30 0z m885 -1 c4 -6 5 -12
2 -15 -7 -7 -37 7 -37 17 0 13 27 11 35 -2z m785 -4 c44 -23 106 -167 76 -177
-5 -2 -15 19 -23 45 -11 40 -17 46 -28 37 -10 -8 -19 -8 -33 -1 -11 6 -48 8
-88 4 -68 -5 -70 -5 -82 21 -15 33 -15 46 -2 46 6 0 15 -11 20 -25 11 -28 19
-29 71 -15 25 7 46 7 63 0 22 -8 28 -7 33 7 8 21 -22 43 -59 43 -17 0 -37 -10
-52 -27 -31 -33 -44 -25 -20 12 29 44 75 55 124 30z m-1850 -65 c0 -5 -5 -10
-11 -10 -5 0 -7 5 -4 10 3 6 8 10 11 10 2 0 4 -4 4 -10z m595 -10 c-3 -5 -17
-10 -31 -10 -13 0 -24 5 -24 10 0 6 14 10 31 10 17 0 28 -4 24 -10z m113 -8
c3 -9 -4 -11 -25 -6 -44 10 -54 26 -14 22 19 -2 36 -9 39 -16z m-258 -2 c0 -5
-9 -10 -20 -10 -11 0 -20 5 -20 10 0 6 9 10 20 10 11 0 20 -4 20 -10z m-529
-23 c-13 -13 -26 -3 -16 12 3 6 11 8 17 5 6 -4 6 -10 -1 -17z m864 13 c3 -5
-1 -10 -9 -10 -9 0 -16 5 -16 10 0 6 4 10 9 10 6 0 13 -4 16 -10z m405 -6 c0
-14 -3 -14 -15 -4 -8 7 -15 14 -15 16 0 2 7 4 15 4 8 0 15 -7 15 -16z m-360
-4 c0 -5 -7 -10 -15 -10 -8 0 -15 5 -15 10 0 6 7 10 15 10 8 0 15 -4 15 -10z
m-490 -10 c0 -5 -9 -10 -20 -10 -11 0 -20 5 -20 10 0 6 9 10 20 10 11 0 20 -4
20 -10z m418 -31 c162 -41 254 -104 340 -233 71 -107 151 -312 258 -666 37
-121 38 -130 38 -275 0 -166 -8 -220 -78 -505 -89 -362 -217 -580 -393 -667
-70 -34 -82 -37 -187 -41 -65 -3 -135 0 -167 7 -91 20 -197 78 -264 146 -96
97 -116 149 -205 535 -29 123 -68 206 -131 274 -43 47 -72 65 -206 131 -182
88 -244 128 -330 209 -62 57 -63 59 -63 110 l1 51 21 -39 c48 -93 154 -171
390 -288 262 -131 307 -193 382 -528 24 -107 54 -221 66 -252 75 -200 245
-318 458 -318 170 0 275 49 368 174 59 77 124 205 160 308 25 74 93 371 119
518 17 98 19 244 5 321 -17 90 -138 471 -184 582 -71 170 -157 286 -251 341
-102 60 -290 94 -422 76 -103 -13 -274 -57 -413 -105 -280 -97 -570 -283 -665
-424 -45 -68 -45 -70 -46 -157 -1 -60 -4 -81 -9 -64 -8 25 -8 25 -10 -5 -1
-16 -5 -39 -10 -50 -5 -12 -9 58 -9 178 -1 109 3 196 7 193 5 -3 7 -19 4 -36
-2 -16 1 -37 8 -45 7 -8 10 -22 6 -30 -3 -8 -1 -15 4 -15 14 0 12 64 -2 78 -9
9 -9 12 0 12 7 0 12 -5 12 -11 0 -7 35 22 78 62 72 70 201 158 352 242 169 94
489 197 715 231 52 7 172 -4 253 -25z m166 25 c25 -10 19 -26 -6 -19 -31 10
-47 25 -26 25 9 0 23 -3 32 -6z m1316 -47 c0 -13 -30 -47 -41 -47 -5 0 -4 11
1 24 5 13 6 34 3 47 -6 24 -6 24 15 5 12 -11 22 -24 22 -29z m-2420 24 c0 -12
-20 -25 -27 -18 -7 7 6 27 18 27 5 0 9 -4 9 -9z m390 0 c0 -13 -37 -24 -52
-15 -8 5 -6 10 8 15 27 11 44 11 44 0z m790 -21 c0 -5 -4 -10 -10 -10 -5 0
-10 5 -10 10 0 6 5 10 10 10 6 0 10 -4 10 -10z m247 -16 c-9 -9 -28 6 -21 18
4 6 10 6 17 -1 6 -6 8 -13 4 -17z m-1156 -4 c-22 -19 -51 -27 -51 -15 0 6 59
34 70 34 3 0 -6 -9 -19 -19z m-321 1 c0 -5 -6 -14 -14 -20 -16 -13 -32 2 -21
19 8 12 35 13 35 1z m1285 -19 c-8 -8 -25 10 -19 20 4 6 9 5 15 -3 4 -7 6 -15
4 -17z m55 -66 c30 -45 37 -66 21 -66 -9 0 -71 91 -71 103 0 19 22 2 50 -37z
m-1370 5 c0 -10 -45 -41 -60 -41 -20 0 -10 19 18 34 32 18 42 19 42 7z m1551
-4 c-1 -12 -15 -9 -19 4 -3 6 1 10 8 8 6 -3 11 -8 11 -12z m929 -12 c30 -16
70 -72 70 -99 0 -27 -14 -18 -42 30 -18 28 -39 49 -58 55 -32 12 -41 29 -15
29 9 0 29 -7 45 -15z m-2360 1 c0 -11 -19 -15 -25 -6 -3 5 1 10 9 10 9 0 16
-2 16 -4z m-210 -34 c0 -12 -23 -32 -37 -32 -17 0 -17 27 0 33 19 8 37 8 37
-1z m2550 -31 c8 -12 32 -43 53 -69 36 -46 46 -72 27 -72 -5 0 -33 32 -62 70
l-52 70 -53 0 c-42 0 -53 3 -53 16 0 10 6 14 15 11 8 -4 17 -2 19 2 10 15 90
-6 106 -28z m-873 14 c8 -22 -6 -33 -17 -15 -13 20 -12 30 0 30 6 0 13 -7 17
-15z m-668 -15 c72 -13 156 -57 208 -108 60 -58 104 -156 153 -339 22 -84 58
-208 79 -276 53 -165 75 -343 68 -532 -8 -211 -53 -341 -167 -482 -38 -47 -65
-69 -117 -95 -62 -30 -75 -33 -163 -33 -85 0 -102 4 -161 31 -83 39 -155 111
-195 195 -17 35 -50 125 -74 199 -83 266 -138 341 -360 490 -156 105 -221 169
-263 257 -30 63 -32 76 -32 173 0 127 18 172 104 254 102 96 222 151 467 211
261 65 347 75 453 55z m506 -11 c-8 -12 -35 -12 -35 0 0 11 22 20 33 14 4 -2
5 -9 2 -14z m-1530 -39 c3 -5 1 -10 -4 -10 -6 0 -11 5 -11 10 0 6 2 10 4 10 3
0 8 -4 11 -10z m1555 -16 c0 -16 -16 -19 -25 -4 -8 13 4 32 16 25 5 -4 9 -13
9 -21z m-1750 2 c0 -7 -6 -19 -14 -25 -19 -16 -32 5 -16 24 16 19 30 19 30 1z
m1939 -35 c-3 -6 -10 -7 -18 -2 -7 5 -10 14 -6 21 9 14 29 -2 24 -19z m-164
-1 c11 -17 -5 -32 -21 -19 -8 6 -14 15 -14 20 0 12 27 11 35 -1z m-1745 -65
c0 -8 -7 -15 -15 -15 -8 0 -15 7 -15 15 0 8 7 15 15 15 8 0 15 -7 15 -15z
m1965 -16 c12 -19 -5 -23 -22 -6 -16 16 -16 17 -1 17 9 0 20 -5 23 -11z
m-2005 -20 c0 -5 -5 -9 -11 -9 -6 0 -18 -7 -27 -16 -11 -11 -17 -13 -20 -5 -2
6 7 20 20 30 23 19 38 19 38 0z m2050 -75 c0 -8 -5 -12 -10 -9 -6 4 -8 11 -5
16 9 14 15 11 15 -7z m860 -250 c0 -112 -2 -204 -5 -204 -6 0 -25 46 -29 67
-1 7 -5 16 -9 19 -4 4 -7 74 -7 156 0 113 3 147 13 146 6 -2 11 5 11 14 -1 10
4 14 12 11 11 -4 14 -45 14 -209z m-820 191 c0 -8 -4 -15 -10 -15 -5 0 -10 7
-10 15 0 8 5 15 10 15 6 0 10 -7 10 -15z m772 -329 c5 -22 3 -24 -21 -15 -14
6 -36 8 -48 4 -13 -3 -23 -1 -23 4 0 15 31 30 61 31 20 0 28 -6 31 -24z m-805
-41 c6 -14 7 -25 2 -25 -5 0 -9 5 -9 10 0 6 -7 10 -15 10 -16 0 -20 12 -8 23
11 12 18 8 30 -18z m793 -39 c0 -7 -9 -16 -20 -19 -27 -7 -25 -33 5 -63 24
-24 34 -54 17 -54 -17 0 -62 57 -68 87 -5 25 -2 34 17 47 29 20 49 21 49 2z
m-748 -59 c48 -100 45 -184 -8 -262 -14 -21 -30 -49 -35 -62 -5 -13 -13 -23
-19 -23 -16 0 -12 46 6 61 26 21 64 106 64 143 0 19 -9 63 -20 98 -22 71 -23
78 -12 78 5 0 15 -15 24 -33z m-2142 -149 c0 -5 -7 -8 -15 -8 -15 0 -20 21 -8
33 7 7 23 -11 23 -25z m2898 -11 c2 -27 -1 -37 -11 -37 -10 0 -13 7 -10 21 5
16 2 20 -12 18 -10 -2 -23 -13 -29 -24 -6 -11 -17 -24 -23 -28 -23 -15 -14
-36 27 -62 45 -29 51 -40 16 -31 -22 5 -24 3 -28 -49 -4 -44 -11 -62 -33 -85
-16 -16 -37 -32 -47 -36 -20 -6 -24 -46 -9 -87 8 -20 16 -25 45 -24 43 1 76
-26 76 -62 -1 -48 -43 -81 -103 -81 -19 0 -39 -6 -45 -12 -13 -17 9 -100 43
-168 42 -83 30 -160 -29 -185 -35 -15 -46 -36 -46 -92 0 -24 7 -37 31 -54 40
-28 25 -48 -20 -25 -36 19 -46 49 -37 113 7 56 11 62 52 79 26 11 36 23 44 55
10 35 8 45 -10 76 -27 47 -60 145 -60 182 0 38 31 61 82 61 37 0 78 26 78 50
0 14 -48 43 -60 35 -34 -21 -80 39 -80 106 0 33 24 69 45 69 39 0 78 118 50
150 -20 22 -34 65 -27 77 13 21 107 93 117 90 5 -2 11 -20 13 -40z m-2824 -27
c27 -22 18 -28 -26 -17 -52 13 -52 13 -44 26 8 13 51 8 70 -9z m76 -44 c0 -8
11 -17 25 -20 39 -10 29 -25 -15 -23 -40 1 -46 9 -34 41 8 20 24 21 24 2z
m-209 -217 c-1 -105 2 -156 11 -166 9 -11 9 -16 -3 -24 -13 -8 -6 -13 14 -10
4 0 7 -20 7 -46 0 -33 -3 -43 -9 -33 -6 8 -7 18 -5 22 3 4 1 8 -5 8 -5 0 -12
-10 -14 -22 -2 -13 -5 80 -6 206 0 126 2 227 5 223 3 -3 6 -74 5 -158z m304
129 c9 -19 17 -23 53 -21 49 2 55 -10 12 -26 -50 -17 -90 7 -90 55 0 21 14 17
25 -8z m-278 -10 c-3 -8 -6 -5 -6 6 -1 11 2 17 5 13 3 -3 4 -12 1 -19z m48 -9
c10 -15 -1 -23 -20 -15 -9 3 -13 10 -10 16 8 13 22 13 30 -1z m2875 1 c0 -22
-31 -70 -45 -70 -20 0 -19 9 5 48 19 31 40 43 40 22z m-2780 -62 c0 -10 -3
-10 -35 2 -14 5 -24 14 -20 20 7 11 55 -8 55 -22z m1954 11 c-3 -5 -10 -7 -15
-3 -5 3 -7 10 -3 15 3 5 10 7 15 3 5 -3 7 -10 3 -15z m866 -37 c19 23 19 21
20 -175 0 -120 -4 -196 -9 -192 -5 3 -12 1 -16 -4 -3 -5 3 -14 12 -20 10 -5
14 -13 10 -17 -5 -5 -12 -2 -17 6 -10 16 -15 7 -23 -40 -3 -16 -5 -11 -6 15
-1 32 -6 42 -26 52 -34 15 -40 1 -19 -52 26 -69 22 -235 -5 -235 -5 0 -7 36
-4 80 5 66 2 90 -16 140 -17 46 -20 64 -11 75 16 19 -5 29 -29 13 -15 -9 -19
-19 -14 -38 10 -42 21 -68 32 -75 16 -9 13 -150 -3 -190 -8 -19 -24 -40 -35
-47 -28 -17 -26 -40 5 -88 32 -48 28 -62 -37 -140 -44 -54 -49 -64 -49 -109 0
-73 -27 -135 -122 -279 -123 -186 -127 -194 -143 -271 -19 -90 -27 -110 -61
-152 l-28 -34 28 25 c37 33 61 82 86 175 25 93 43 130 73 150 13 8 43 50 67
92 24 43 54 92 67 109 36 48 64 140 53 170 -18 47 -12 69 30 103 22 18 47 47
54 64 8 18 15 26 15 20 1 -7 6 -13 11 -13 15 0 12 46 -4 59 -25 21 -39 67 -26
90 9 17 20 21 60 21 43 0 50 -3 50 -20 0 -18 -5 -20 -39 -14 -21 3 -41 2 -44
-3 -9 -15 15 -73 31 -73 45 0 10 -70 -65 -129 -49 -40 -71 -75 -52 -87 26 -15
-19 -183 -51 -191 -10 -3 -20 -17 -23 -32 -3 -16 -26 -58 -51 -95 -26 -36 -46
-75 -46 -86 0 -22 -16 -35 -25 -20 -16 26 -32 -7 -70 -145 -24 -86 -48 -127
-101 -174 -57 -50 -157 -101 -198 -101 -44 0 -74 -24 -82 -66 -8 -42 -30 -40
-26 2 4 42 66 98 98 90 24 -6 94 22 146 58 20 14 20 15 -7 18 l-28 3 39 25
c50 33 71 72 83 153 11 78 41 136 142 278 38 53 83 126 100 163 28 59 31 75
26 127 -5 55 -3 61 19 76 13 8 40 37 60 64 l36 50 -26 37 c-36 52 -35 95 4
122 54 39 65 130 24 215 -17 38 -24 67 -22 96 3 38 6 42 42 54 21 7 51 25 66
40 28 26 46 75 28 75 -24 0 -108 118 -108 152 0 18 54 58 78 58 22 0 13 -19
-18 -35 -42 -22 -38 -48 17 -103 25 -26 37 -36 26 -22 -50 61 -52 97 -7 126
16 11 25 27 26 48 1 28 2 27 5 -7 l4 -38 19 23z m-2540 30 c0 -13 -12 -22 -22
-16 -10 6 -1 24 13 24 5 0 9 -4 9 -8z m60 -26 c0 -3 -4 -8 -10 -11 -5 -3 -10
-1 -10 4 0 6 5 11 10 11 6 0 10 -2 10 -4z m1595 -18 c-11 -36 -25 -45 -25 -17
0 27 7 39 22 39 5 0 6 -10 3 -22z m-1895 -3 c0 -8 -4 -15 -9 -15 -13 0 -22 16
-14 24 11 11 23 6 23 -9z m340 -9 c0 -8 -4 -17 -9 -21 -12 -7 -24 12 -16 25 9
15 25 12 25 -4z m1760 -25 c0 -31 -13 -47 -29 -37 -10 7 9 66 21 66 4 0 8 -13
8 -29z m-2070 -5 c0 -11 -19 -15 -25 -6 -3 5 1 10 9 10 9 0 16 -2 16 -4z m390
-31 c0 -23 -26 -81 -40 -90 -22 -14 -22 4 1 54 24 50 39 64 39 36z m-360 -5
c0 -5 -4 -10 -10 -10 -5 0 -10 5 -10 10 0 6 5 10 10 10 6 0 10 -4 10 -10z
m1850 -30 c50 -32 86 -67 78 -75 -3 -3 -23 8 -45 24 -22 16 -54 36 -72 45 -17
9 -29 21 -26 26 9 14 14 13 65 -20z m-1810 -4 c0 -3 -4 -8 -10 -11 -5 -3 -10
-1 -10 4 0 6 5 11 10 11 6 0 10 -2 10 -4z m380 -13 c0 -13 -49 -69 -50 -56 0
25 20 63 35 63 8 0 15 -3 15 -7z m1592 -33 c-2 -19 -13 -62 -23 -96 -26 -83
-49 -209 -60 -321 -21 -225 -86 -386 -205 -509 -88 -90 -142 -130 -155 -117
-7 7 10 25 53 57 35 26 63 50 63 54 0 4 21 28 47 54 92 91 152 249 168 443 14
168 26 253 44 303 8 23 13 42 9 42 -3 0 -1 6 5 13 7 7 16 37 23 66 12 58 36
66 31 11z m-1912 6 c0 -3 -4 -8 -10 -11 -5 -3 -10 -1 -10 4 0 6 5 11 10 11 6
0 10 -2 10 -4z m50 -16 c8 -5 12 -11 9 -14 -7 -8 -49 5 -49 15 0 12 21 11 40
-1z m1730 -60 c14 -10 22 -21 19 -24 -9 -9 -129 65 -123 76 6 9 59 -18 104
-52z m-1460 22 c0 -14 -39 -46 -47 -39 -3 4 2 16 12 27 19 21 35 26 35 12z
m-175 -62 c24 -27 13 -36 -18 -15 -16 10 -27 12 -31 6 -9 -14 -36 -2 -36 15 0
22 64 18 85 -6z m1603 -36 c15 -12 24 -25 20 -29 -9 -9 -119 66 -112 76 6 10
47 -11 92 -47z m-1418 34 c-1 -14 -34 -58 -44 -58 -11 0 -6 21 12 45 19 27 32
32 32 13z m50 -61 c0 -13 -84 -107 -95 -107 -14 0 -2 24 37 74 39 51 58 61 58
33z m1327 -23 c46 -32 66 -54 47 -54 -10 0 -113 75 -114 83 0 14 15 7 67 -29z
m-1514 -31 c3 -16 2 -32 -3 -37 -11 -11 -33 31 -26 50 9 23 23 16 29 -13z
m220 -55 c2 -28 -1 -48 -9 -57 -19 -20 -29 -6 -17 22 7 15 8 29 1 40 -5 10 -6
22 -3 27 13 21 23 9 28 -32z m-43 4 c0 -13 -61 -55 -68 -47 -4 4 7 18 23 31
31 25 45 30 45 16z m1310 -21 c19 -16 33 -32 30 -35 -7 -6 -90 46 -90 57 0 15
26 5 60 -22z m-1449 -94 c-17 -17 -24 -1 -10 25 12 21 14 21 17 4 2 -10 -1
-23 -7 -29z m1427 27 c12 -8 22 -20 22 -26 0 -6 -8 -4 -18 5 -10 10 -24 17
-30 17 -7 0 -12 5 -12 10 0 14 12 12 38 -6z m-1228 -7 c0 -8 -9 -22 -19 -31
-26 -24 -39 -1 -15 24 23 23 34 25 34 7z m-15 -74 c-9 -8 -18 -13 -21 -10 -8
8 19 36 29 30 4 -2 0 -11 -8 -20z m1244 -8 c27 -31 31 -43 31 -90 0 -53 -42
-185 -62 -193 -4 -2 -8 -10 -8 -17 0 -19 -117 -124 -146 -131 -41 -10 -38 2 8
29 43 25 136 113 139 132 1 6 11 30 22 54 11 25 22 72 25 106 4 58 3 64 -27
97 -17 20 -31 38 -31 42 0 15 21 3 49 -29z m-1369 -21 c0 -8 -4 -12 -10 -9 -5
3 -10 10 -10 16 0 5 5 9 10 9 6 0 10 -7 10 -16z m165 10 c9 -4 36 -46 60 -95
25 -48 49 -90 55 -94 6 -3 8 -11 4 -16 -8 -14 -41 17 -71 68 -28 48 -28 48
-63 28 -29 -16 -40 -18 -40 -7 0 5 16 16 35 25 42 20 43 30 10 61 -29 27 -24
43 10 30z m-15 -44 c0 -5 -7 -10 -15 -10 -8 0 -15 -4 -15 -10 0 -5 -5 -10 -12
-10 -6 0 -3 9 7 20 20 22 35 26 35 10z m2080 -10 c0 -5 -5 -10 -11 -10 -5 0
-7 5 -4 10 3 6 8 10 11 10 2 0 4 -4 4 -10z m-880 -10 c0 -5 -4 -10 -10 -10 -5
0 -10 5 -10 10 0 6 5 10 10 10 6 0 10 -4 10 -10z m-1344 -26 c-3 -9 -6 -21 -6
-27 0 -8 -3 -8 -10 -1 -12 12 -3 44 12 44 6 0 7 -7 4 -16z m1244 -12 c0 -9
-40 -35 -46 -29 -3 2 -2 12 2 21 6 16 44 23 44 8z m93 -12 c3 -13 0 -20 -9
-20 -8 0 -14 9 -14 20 0 11 4 20 9 20 5 0 11 -9 14 -20z m-1919 -33 c-7 -19
-29 -23 -39 -6 -8 13 27 41 38 30 4 -4 5 -15 1 -24z m774 -34 c-15 -15 -31
-23 -35 -19 -9 8 32 46 50 46 7 0 -1 -12 -15 -27z m996 6 c-3 -5 -10 -7 -15
-3 -5 3 -7 10 -3 15 3 5 10 7 15 3 5 -3 7 -10 3 -15z m146 17 c0 -15 -14 -35
-21 -30 -15 9 -10 34 6 34 8 0 15 -2 15 -4z m-1290 -46 c0 -11 0 -22 0 -25 0
-3 -3 -6 -7 -7 -4 -2 -9 9 -10 25 -1 15 2 27 8 27 5 0 9 -9 9 -20z m1124 11
c6 -10 -43 -46 -51 -38 -5 6 28 45 39 46 4 1 9 -3 12 -8z m-934 -20 c0 -11
-65 -61 -79 -61 -20 0 -10 15 27 42 40 29 52 33 52 19z m1060 1 c0 -5 -11 -19
-25 -32 -14 -13 -23 -30 -21 -37 3 -7 1 -15 -5 -18 -23 -15 -18 27 6 60 26 33
45 45 45 27z m1013 -42 c-3 -11 -1 -10 10 3 14 16 15 16 19 -6 4 -23 2 -278
-3 -308 -1 -10 -9 -15 -21 -11 -17 4 -18 18 -17 191 0 102 4 177 8 166 5 -11
6 -27 4 -35z m-2946 8 c-3 -8 -6 -5 -6 6 -1 11 2 17 5 13 3 -3 4 -12 1 -19z
m-11 -18 c17 0 19 -40 2 -41 -10 0 -10 -2 0 -6 8 -3 12 -27 12 -69 0 -44 -4
-64 -12 -64 -9 0 -8 -3 2 -10 12 -7 11 -12 -5 -31 -11 -12 -15 -19 -8 -16 6 4
14 3 18 -3 3 -5 -1 -10 -9 -10 -11 0 -15 -13 -15 -56 0 -31 -2 -58 -5 -62 -3
-3 -6 84 -5 194 0 109 3 193 6 187 2 -7 11 -13 19 -13z m1033 -9 c46 -29 141
-64 207 -77 32 -6 52 -20 42 -30 -6 -5 -151 32 -203 52 -53 20 -116 64 -109
75 8 13 13 12 63 -20z m731 25 c0 -11 -19 -15 -25 -6 -3 5 1 10 9 10 9 0 16
-2 16 -4z m-1070 -27 c0 -5 -4 -9 -10 -9 -5 0 -10 7 -10 16 0 8 5 12 10 9 6
-3 10 -10 10 -16z m1030 2 c0 -5 -7 -12 -16 -15 -24 -9 -28 -7 -14 9 14 17 30
20 30 6z m-770 -10 c0 -5 -12 -17 -27 -26 -78 -51 -73 -48 -73 -33 0 9 17 27
38 41 38 27 62 34 62 18z m1980 -11 c0 -5 -17 -21 -39 -34 -25 -16 -44 -39
-55 -65 -18 -47 -21 -75 -5 -66 14 9 46 -21 53 -51 7 -28 -10 -68 -25 -58 -5
3 -7 14 -4 24 8 24 -11 60 -30 60 -8 0 -15 -8 -15 -17 -1 -33 -58 -152 -103
-215 -24 -35 -59 -92 -78 -128 -30 -59 -33 -73 -34 -155 0 -71 -4 -97 -19
-122 -11 -18 -26 -35 -33 -37 -24 -10 -25 16 -2 41 22 22 24 34 25 116 0 86 3
97 38 165 20 40 52 94 70 120 48 66 93 158 106 217 31 136 40 155 82 185 42
30 68 38 68 20z m-2235 -10 c3 -5 -1 -10 -10 -10 -9 0 -13 5 -10 10 3 6 8 10
10 10 2 0 7 -4 10 -10z m900 -40 c3 -5 1 -10 -4 -10 -6 0 -11 5 -11 10 0 6 2
10 4 10 3 0 8 -4 11 -10z m-595 -8 c0 -16 -79 -84 -89 -77 -8 4 4 21 31 45 43
39 58 47 58 32z m560 -2 c0 -5 -4 -10 -10 -10 -5 0 -10 5 -10 10 0 6 5 10 10
10 6 0 10 -4 10 -10z m-820 -55 c6 -19 9 -41 7 -48 -5 -13 -37 53 -37 78 0 26
17 8 30 -30z m755 35 c-3 -5 -21 -10 -38 -10 -24 0 -28 3 -17 10 20 13 63 13
55 0z m-158 -6 c-3 -3 -12 -4 -19 -1 -8 3 -5 6 6 6 11 1 17 -2 13 -5z m53 -2
c0 -4 -9 -8 -20 -9 -11 -1 -20 2 -20 8 0 5 9 9 20 9 11 0 20 -4 20 -8z m-347
-84 c-23 -23 -46 -39 -49 -35 -10 10 56 77 75 77 10 0 0 -16 -26 -42z m270
-91 c15 -20 36 -39 47 -42 19 -6 28 -25 12 -25 -11 0 -55 32 -74 55 -24 28
-42 90 -33 112 6 14 10 9 15 -23 3 -23 18 -58 33 -77z m-1236 81 c6 -7 13 -33
16 -58 10 -72 37 -154 48 -143 6 6 4 22 -4 44 -8 19 -17 53 -21 77 -6 38 -4
43 11 40 14 -2 19 -16 23 -58 l5 -55 7 45 c4 25 10 55 14 68 5 18 2 22 -16 22
-13 0 -20 5 -18 13 7 18 30 19 52 2 17 -13 18 -18 6 -60 -7 -26 -13 -60 -12
-76 1 -36 41 -107 92 -163 57 -64 80 -102 106 -174 15 -40 35 -76 51 -89 32
-26 27 -37 -11 -27 -34 8 -52 35 -66 98 -14 64 -29 90 -87 156 -26 31 -56 67
-66 80 -9 14 -6 1 9 -29 14 -30 47 -77 74 -105 39 -42 49 -60 55 -101 9 -65
33 -105 67 -112 23 -5 26 -8 17 -24 -5 -11 -16 -19 -24 -19 -19 0 -73 68 -79
99 -3 14 -7 42 -10 62 -4 22 -23 56 -52 89 -26 30 -57 78 -71 107 -14 29 -32
58 -40 65 -25 21 58 -124 104 -181 24 -29 44 -65 44 -80 6 -102 3 -151 -8
-151 -21 0 -26 20 -24 96 l2 73 -68 74 c-104 114 -152 204 -178 335 -6 28 -4
32 17 33 l23 2 -22 4 c-23 4 -29 14 -16 26 11 11 40 8 50 -5z m1628 2 c-3 -5
-11 -10 -16 -10 -6 0 -7 5 -4 10 3 6 11 10 16 10 6 0 7 -4 4 -10z m-598 -37
c-14 -15 -29 -24 -33 -20 -3 3 7 17 22 31 38 32 46 23 11 -11z m-337 23 c0 -3
-4 -8 -10 -11 -5 -3 -10 -1 -10 4 0 6 5 11 10 11 6 0 10 -2 10 -4z m890 -26
c0 -5 -4 -10 -10 -10 -5 0 -10 5 -10 10 0 6 5 10 10 10 6 0 10 -4 10 -10z
m-845 -20 c10 -11 24 -20 32 -20 7 0 13 -7 13 -15 0 -8 -5 -15 -10 -15 -18 0
-70 43 -70 57 0 19 14 16 35 -7z m802 -17 c-9 -9 -20 -12 -28 -8 -9 6 -8 11 6
21 23 17 42 6 22 -13z m-567 7 c0 -5 -5 -10 -11 -10 -5 0 -7 5 -4 10 3 6 8 10
11 10 2 0 4 -4 4 -10z m-10 -30 c0 -5 -5 -10 -11 -10 -5 0 -7 5 -4 10 3 6 8
10 11 10 2 0 4 -4 4 -10z m-90 -10 c0 -13 -11 -13 -30 0 -12 8 -11 10 8 10 12
0 22 -4 22 -10z m1920 -15 c12 -15 5 -55 -10 -55 -5 0 -16 10 -24 22 -11 16
-13 25 -4 35 14 17 23 16 38 -2z m-1080 -5 c0 -5 -7 -10 -15 -10 -8 0 -15 5
-15 10 0 6 7 10 15 10 8 0 15 -4 15 -10z m-775 -9 c3 -5 1 -12 -5 -16 -5 -3
-10 1 -10 9 0 18 6 21 15 7z m470 -1 c-3 -5 -15 -10 -26 -10 -11 0 -17 5 -14
10 3 6 15 10 26 10 11 0 17 -4 14 -10z m245 -30 c0 -5 -7 -10 -16 -10 -8 0
-12 5 -9 10 3 6 10 10 16 10 5 0 9 -4 9 -10z m-615 -21 c12 -19 -5 -23 -22 -6
-16 16 -16 17 -1 17 9 0 20 -5 23 -11z m65 -23 c0 -11 -19 -15 -25 -6 -3 5 1
10 9 10 9 0 16 -2 16 -4z m70 -26 c0 -5 -4 -10 -9 -10 -6 0 -13 5 -16 10 -3 6
1 10 9 10 9 0 16 -4 16 -10z m234 0 c-6 -6 -35 -13 -65 -17 -50 -6 -53 -5 -40
10 9 12 29 17 64 17 35 0 48 -3 41 -10z m-164 -10 c0 -5 -4 -10 -10 -10 -5 0
-10 5 -10 10 0 6 5 10 10 10 6 0 10 -4 10 -10z m1128 -52 c-3 -7 -19 -22 -36
-33 -23 -15 -31 -28 -32 -48 0 -40 -24 -29 -28 12 -5 49 21 81 64 81 24 0 34
-4 32 -12z m-158 -194 c0 -8 -7 -14 -16 -14 -8 0 -22 -16 -30 -35 -8 -19 -19
-35 -24 -35 -20 0 -9 41 21 75 30 34 49 38 49 9z m665 -34 c5 -25 15 -40 15
-22 0 7 3 12 8 12 4 0 6 -64 5 -142 -3 -218 -5 -265 -10 -240 -5 24 -18 29
-26 10 -3 -7 -6 83 -6 201 -1 197 2 241 14 181z m-2377 -30 c3 -26 -21 -70
-32 -59 -4 3 -2 18 3 33 9 23 8 26 -9 26 -11 0 -20 4 -20 8 0 34 54 26 58 -8z
m2312 -77 c0 -10 -13 -26 -30 -35 -22 -13 -44 -47 -89 -141 -97 -202 -174
-264 -456 -367 -238 -87 -287 -122 -301 -217 -5 -37 -9 -43 -31 -43 -24 0 -25
2 -18 46 18 124 61 156 355 266 260 96 338 164 419 360 22 53 45 88 72 112 42
39 79 47 79 19z m-2313 -25 c27 -30 39 -68 21 -68 -11 0 -53 53 -66 83 -8 17
26 5 45 -15z m208 13 c3 -5 1 -12 -5 -16 -5 -3 -10 -15 -10 -26 0 -25 -23 -20
-28 5 -6 29 29 59 43 37z m-415 -20 c34 -15 48 -17 67 -8 28 12 41 3 23 -18
-25 -30 -129 -9 -143 30 -8 20 2 19 53 -4z m1898 -13 c-5 -14 -75 -40 -125
-45 -34 -4 -43 -10 -53 -34 -13 -30 -24 -36 -35 -18 -4 5 1 19 11 30 19 21 7
26 -20 6 -19 -14 -20 -28 -11 -108 9 -70 -5 -103 -41 -96 -19 3 -24 0 -24 -15
0 -11 -5 -18 -12 -15 -7 2 -13 15 -13 28 0 20 5 24 29 24 45 0 54 24 31 91
-17 50 -17 59 -4 82 20 36 54 52 115 52 29 0 71 8 95 19 42 19 63 19 57 -1z
m-2068 -52 c-1 -21 -1 -21 -20 3 -11 12 -17 27 -14 33 9 14 34 -12 34 -36z
m832 -10 c16 -17 62 -35 153 -61 72 -20 154 -50 182 -66 64 -35 72 -36 119 -4
57 39 114 30 114 -17 0 -22 -16 -24 -24 -3 -8 23 -48 18 -86 -10 -43 -32 -59
-31 -123 4 -28 17 -115 48 -191 70 -80 23 -148 49 -161 61 -27 26 -67 26 -90
0 -10 -11 -24 -20 -32 -20 -11 0 -11 5 2 29 17 34 27 39 77 40 27 1 44 -6 60
-23z m-1036 -52 c8 3 14 1 14 -4 0 -6 -4 -10 -10 -10 -5 0 -10 -12 -10 -27 0
-22 2 -25 10 -13 7 10 10 -27 10 -115 0 -78 4 -125 9 -116 16 25 74 -33 132
-131 30 -51 83 -123 118 -160 l63 -68 372 -1 c204 -1 360 -5 346 -9 -23 -7
-23 -8 -3 -9 12 -1 25 -5 28 -11 4 -7 -139 -10 -422 -9 -235 1 -418 4 -405 6
12 2 22 9 22 14 0 6 4 8 9 5 5 -4 20 -2 33 3 22 9 21 10 -8 10 -41 1 -115 78
-177 186 -25 44 -62 96 -81 114 -34 33 -36 34 -36 12 0 -12 -4 -19 -10 -16 -5
3 -10 3 -11 -2 -12 -149 -19 -88 -18 158 1 134 4 231 6 216 3 -20 9 -27 19
-23z m1127 -51 c86 -28 122 -45 154 -74 48 -43 87 -57 115 -40 24 15 128 3
135 -16 8 -21 3 -22 -69 -8 -56 10 -69 10 -81 -2 -20 -21 -57 -8 -109 39 -36
31 -70 48 -150 74 -56 19 -111 34 -120 34 -18 0 -23 11 -11 23 10 11 16 9 136
-30z m616 -86 c6 -8 8 -17 4 -20 -7 -8 -33 11 -33 24 0 13 16 11 29 -4z
m-1199 -7 c12 -8 12 -10 -3 -16 -20 -7 -47 1 -47 16 0 12 30 13 50 0z m1284
-9 c3 -4 3 -11 0 -14 -8 -7 -44 4 -44 14 0 12 37 12 44 0z m66 -1 c0 -5 -4
-10 -10 -10 -5 0 -10 5 -10 10 0 6 5 10 10 10 6 0 10 -4 10 -10z m-255 -30
c27 -30 11 -35 -34 -13 -22 11 -38 23 -34 27 13 13 51 5 68 -14z m-511 -9 c20
-22 46 -101 46 -139 0 -45 -27 -6 -39 58 -8 40 -18 63 -31 70 -34 18 -49 3
-74 -72 -8 -25 -26 -22 -26 3 0 23 15 55 38 82 20 23 65 22 86 -2z m444 -13
c-6 -18 -28 -21 -28 -4 0 9 7 16 16 16 9 0 14 -5 12 -12z m1379 -65 c-3 -10
-5 -4 -5 12 0 17 2 24 5 18 2 -7 2 -21 0 -30z m-1318 -39 c6 -15 9 -29 6 -33
-7 -7 -45 36 -45 50 0 20 28 7 39 -17z m1318 -71 c-2 -16 -4 -5 -4 22 0 28 2
40 4 28 2 -13 2 -35 0 -50z m-2212 -36 c28 -21 0 -32 -30 -13 -14 9 -25 19
-25 21 0 10 37 4 55 -8z m153 -48 c-2 -6 -8 -10 -13 -10 -5 0 -11 4 -13 10 -2
6 4 11 13 11 9 0 15 -5 13 -11z m497 -19 c12 -20 -5 -29 -35 -18 -44 15 -46
28 -6 28 19 0 38 -4 41 -10z m840 -170 c-3 -5 -12 -7 -20 -3 -8 3 -15 0 -15
-5 0 -6 10 -13 23 -15 12 -2 -123 -5 -300 -6 -241 -1 -322 2 -320 11 1 6 -9
15 -23 19 -14 4 129 7 318 7 194 0 340 -3 337 -8z m548 3 c-34 -6 -28 -22 7
-21 17 1 33 -2 37 -5 3 -4 -46 -7 -109 -7 -81 0 -118 4 -120 12 -3 7 -29 13
-63 15 -120 6 -62 13 101 12 93 -1 159 -4 147 -6z m-198 -23 c3 -5 1 -10 -4
-10 -6 0 -11 5 -11 10 0 6 2 10 4 10 3 0 8 -4 11 -10z m282 -6 c-3 -3 -12 -4
-19 -1 -8 3 -5 6 6 6 11 1 17 -2 13 -5z m-753 -500 c19 -7 21 -35 4 -52 -9 -9
-161 -12 -623 -12 -641 0 -656 1 -640 43 7 16 51 17 609 20 330 1 609 3 618 5
9 1 23 -1 32 -4z"/>
<path d="M11317 11482 c-24 -26 -21 -68 5 -86 19 -14 76 -16 418 -16 435 0
443 1 448 56 6 65 15 64 -442 64 -387 0 -414 -1 -429 -18z"/>
<path d="M13226 10543 c-6 -14 -5 -15 5 -6 7 7 10 15 7 18 -3 3 -9 -2 -12 -12z"/>
<path d="M11184 10563 c-21 -14 -55 -32 -74 -39 -30 -11 -32 -13 -10 -13 14
-1 44 12 66 27 23 15 50 32 60 39 11 6 14 12 8 12 -6 1 -29 -11 -50 -26z"/>
<path d="M11260 10570 c-18 -12 -2 -12 25 0 13 6 15 9 5 9 -8 0 -22 -4 -30 -9z"/>
<path d="M11199 10535 c-19 -13 -44 -32 -56 -41 -13 -9 -46 -18 -75 -20 -31
-2 -54 -8 -57 -16 -8 -24 -58 -67 -87 -74 -15 -4 -48 -2 -72 5 -25 6 -47 10
-49 7 -3 -3 15 -10 38 -16 56 -15 139 -8 154 14 7 9 16 16 20 16 4 0 23 14 42
30 18 17 43 30 54 30 27 0 47 12 92 54 45 42 43 46 -4 11z"/>
<path d="M10711 10274 c-2 -36 -55 -98 -110 -128 -38 -20 -72 -30 -120 -34
-67 -5 -101 -15 -101 -31 0 -5 12 -6 28 -1 15 5 58 13 96 19 44 6 85 20 114
38 51 31 107 110 99 140 -4 15 -5 15 -6 -3z"/>
<path d="M11230 9344 c-368 -84 -538 -172 -607 -312 -24 -49 -28 -69 -27 -137
1 -153 67 -244 289 -395 228 -155 288 -239 375 -520 23 -74 53 -157 67 -183
35 -70 97 -132 162 -164 50 -25 67 -28 156 -28 118 0 158 16 224 91 135 153
178 303 168 577 -6 174 -24 287 -67 421 -17 52 -48 165 -70 251 -62 247 -117
340 -237 400 -52 26 -70 29 -168 32 -96 2 -129 -2 -265 -33z m180 -25 c0 -5
-7 -9 -15 -9 -15 0 -20 12 -9 23 8 8 24 -1 24 -14z m70 5 c0 -17 -22 -14 -28
4 -2 7 3 12 12 12 9 0 16 -7 16 -16z m95 -5 c11 -17 0 -20 -21 -4 -17 13 -17
14 -2 15 9 0 20 -5 23 -11z m58 -14 c-3 -8 -9 -15 -14 -15 -10 0 -12 24 -3 33
11 11 24 -3 17 -18z m-313 5 c0 -5 -2 -10 -4 -10 -3 0 -8 5 -11 10 -3 6 -1 10
4 10 6 0 11 -4 11 -10z m-40 -9 c0 -12 -29 -23 -41 -15 -5 3 -7 10 -4 15 8 12
45 12 45 0z m-82 -22 c-2 -6 -7 -10 -11 -10 -3 0 -22 -6 -41 -14 -22 -10 -37
-11 -41 -5 -7 11 6 18 42 23 12 2 26 6 29 10 11 11 26 8 22 -4z m500 -32 c3
-16 1 -17 -17 -5 -25 16 -27 31 -4 26 10 -2 19 -11 21 -21z m-612 -14 c-10
-10 -19 5 -10 18 6 11 8 11 12 0 2 -7 1 -15 -2 -18z m-29 1 c5 -14 -55 -35
-63 -22 -7 11 -7 11 21 26 22 12 37 11 42 -4z m669 -31 c-10 -10 -19 5 -10 18
6 11 8 11 12 0 2 -7 1 -15 -2 -18z m-768 -5 c-6 -18 -28 -21 -28 -4 0 9 7 16
16 16 9 0 14 -5 12 -12z m-48 -19 c0 -5 -4 -9 -10 -9 -5 0 -10 7 -10 16 0 8 5
12 10 9 6 -3 10 -10 10 -16z m531 9 c22 -6 39 -15 39 -21 0 -5 -9 -6 -22 -2
-50 17 -168 17 -224 -1 -56 -17 -82 -14 -44 6 52 28 187 38 251 18z m319 -13
c0 -8 -4 -15 -10 -15 -5 0 -10 7 -10 15 0 8 5 15 10 15 6 0 10 -7 10 -15z
m-922 -17 c-3 -7 -13 -15 -24 -17 -16 -3 -17 -1 -5 13 16 19 34 21 29 4z m566
-4 c29 -11 8 -19 -41 -15 -36 3 -43 6 -28 12 25 10 49 11 69 3z m186 2 c0 -11
-19 -15 -25 -6 -3 5 1 10 9 10 9 0 16 -2 16 -4z m-290 -15 c0 -9 -62 -22 -70
-14 -8 7 24 23 48 23 12 0 22 -4 22 -9z m490 -17 c0 -8 -4 -12 -10 -9 -5 3
-10 10 -10 16 0 5 5 9 10 9 6 0 10 -7 10 -16z m-594 -6 c5 -8 2 -9 -9 -5 -10
3 -17 2 -17 -3 0 -6 -8 -10 -17 -10 -24 0 -123 -58 -130 -75 -7 -19 -23 -19
-23 -1 0 19 53 59 110 85 53 23 76 26 86 9z m-451 -28 c-10 -11 -23 -20 -28
-20 -6 0 0 11 13 25 27 29 42 25 15 -5z m295 21 c0 -5 -17 -15 -37 -22 -21 -6
-44 -17 -52 -23 -11 -8 -13 -8 -10 3 4 10 68 44 97 50 1 1 2 -3 2 -8z m474
-25 c14 -19 26 -37 26 -41 0 -3 9 -18 21 -34 25 -34 23 -94 -3 -99 -11 -2 -18
3 -18 12 0 9 5 16 10 16 6 0 10 7 10 15 0 17 -28 76 -39 85 -10 7 -51 67 -51
74 0 16 20 3 44 -28z m162 -13 c-7 -7 -26 7 -26 19 0 6 6 6 15 -2 9 -7 13 -15
11 -17z m154 -3 c0 -5 -5 -10 -11 -10 -5 0 -7 5 -4 10 3 6 8 10 11 10 2 0 4
-4 4 -10z m-910 -20 c0 -5 -4 -10 -10 -10 -5 0 -10 5 -10 10 0 6 5 10 10 10 6
0 10 -4 10 -10z m477 -5 c2 -6 -21 -10 -54 -10 -32 0 -75 -4 -95 -8 -31 -6
-38 -5 -38 7 0 11 10 15 35 14 19 -1 38 2 42 6 11 10 106 3 110 -9z m314 -48
c15 -34 14 -77 -2 -77 -5 0 -7 11 -3 24 3 13 1 27 -5 30 -6 4 -11 16 -11 27 0
10 -4 19 -10 19 -5 0 -10 4 -10 10 0 20 27 -2 41 -33z m132 10 c-3 -5 -9 -3
-14 4 -4 7 -5 17 -2 22 3 5 9 3 14 -4 4 -7 5 -17 2 -22z m-683 9 c0 -17 -51
-98 -58 -91 -2 2 5 19 17 38 11 19 21 42 21 51 0 9 5 16 10 16 6 0 10 -6 10
-14z m287 -22 c-9 -10 -38 16 -31 28 4 6 13 4 22 -6 9 -8 13 -19 9 -22z m-607
-4 c0 -10 -4 -21 -9 -25 -12 -7 -25 31 -16 45 9 15 25 2 25 -20z m170 -4 c0
-18 -24 -66 -30 -59 -13 12 1 63 16 63 8 0 14 -2 14 -4z m473 -58 c6 -4 8 -10
4 -14 -10 -10 -36 27 -36 51 0 17 2 16 10 -5 6 -13 15 -28 22 -32z m-833 12
c0 -11 -7 -20 -15 -20 -17 0 -18 2 -9 24 9 23 24 20 24 -4z m195 -20 c10 -11
14 -20 9 -20 -12 1 -44 25 -44 34 0 12 17 6 35 -14z m2 -32 c11 -13 28 -38 37
-55 18 -36 26 -39 58 -22 11 6 22 8 24 6 3 -3 -8 -11 -24 -19 -38 -19 -67 -8
-81 33 -6 18 -21 43 -33 56 -12 13 -17 23 -11 23 5 0 19 -10 30 -22z m224 -11
c-16 -16 -26 0 -10 19 9 11 15 12 17 4 2 -6 -1 -17 -7 -23z m-46 -18 c0 -7 -8
-15 -17 -17 -12 -2 -15 2 -11 18 6 23 28 22 28 -1z m-365 -28 c0 -6 -4 -13
-10 -16 -5 -3 -10 1 -10 9 0 9 5 16 10 16 6 0 10 -4 10 -9z m10 -35 c0 -3 -4
-8 -10 -11 -5 -3 -10 -1 -10 4 0 6 5 11 10 11 6 0 10 -2 10 -4z m10 -30 c0 -3
-4 -8 -10 -11 -5 -3 -10 -1 -10 4 0 6 5 11 10 11 6 0 10 -2 10 -4z m1131 -72
c-1 -19 3 -41 9 -49 22 -26 5 -40 -18 -17 -23 23 -26 71 -8 101 13 20 21 3 17
-35z m-1058 -29 c13 -19 15 -25 4 -25 -17 0 -37 20 -37 37 0 20 13 15 33 -12z
m79 -70 c0 -5 -5 -11 -11 -13 -6 -2 -11 4 -11 13 0 9 5 15 11 13 6 -2 11 -8
11 -13z m48 -45 c0 -5 -4 -10 -10 -10 -5 0 -10 5 -10 10 0 6 5 10 10 10 6 0
10 -4 10 -10z m1090 -8 c0 -10 5 -23 11 -29 8 -8 8 -13 -1 -18 -15 -9 -19 -5
-26 33 -4 21 -3 32 5 32 6 0 11 -8 11 -18z m-1050 -12 c0 -5 -4 -10 -10 -10
-5 0 -10 5 -10 10 0 6 5 10 10 10 6 0 10 -4 10 -10z m30 -20 c0 -5 -4 -10 -10
-10 -5 0 -10 5 -10 10 0 6 5 10 10 10 6 0 10 -4 10 -10z m40 -30 c0 -5 -4 -10
-10 -10 -5 0 -10 5 -10 10 0 6 5 10 10 10 6 0 10 -4 10 -10z m1000 -45 c-10
-12 -10 -19 -2 -27 17 -17 15 -58 -3 -58 -10 0 -15 10 -15 34 0 19 -3 41 -6
50 -4 12 0 16 16 16 19 0 21 -2 10 -15z m-890 -29 c0 -11 -19 -15 -25 -6 -3 5
1 10 9 10 9 0 16 -2 16 -4z m158 -23 c-2 -10 12 -33 30 -53 18 -19 42 -51 52
-71 27 -52 57 -68 112 -62 44 5 47 4 62 -26 21 -40 7 -64 -50 -86 -32 -12 -41
-20 -37 -32 4 -11 2 -14 -8 -11 -27 9 -13 33 34 58 40 21 47 29 45 50 -3 23
-7 25 -58 25 -63 1 -105 23 -114 61 -4 13 -21 41 -39 62 -55 64 -71 102 -41
102 9 0 14 -7 12 -17z m612 -11 c0 -5 -7 -17 -15 -28 -8 -10 -15 -29 -15 -41
0 -13 -4 -23 -10 -23 -14 0 -13 43 2 75 10 23 38 36 38 17z m-730 -12 c0 -5
-7 -10 -16 -10 -8 0 -12 5 -9 10 3 6 10 10 16 10 5 0 9 -4 9 -10z m780 -68
c14 -52 12 -177 -4 -237 -29 -110 -114 -248 -178 -290 -61 -41 -57 -22 9 39
110 101 173 282 154 436 -5 36 -10 70 -11 75 -10 44 17 23 30 -23z m-750 34
c0 -2 3 -11 6 -20 9 -23 -9 -20 -24 4 -10 17 -10 20 3 20 8 0 15 -2 15 -4z
m830 -41 c0 -37 -14 -54 -24 -29 -8 21 -8 59 0 67 13 13 24 -5 24 -38z m-795
-14 c3 -5 1 -12 -5 -16 -5 -3 -10 1 -10 9 0 18 6 21 15 7z m535 -5 c0 -15 -18
-31 -26 -23 -7 7 7 37 17 37 5 0 9 -6 9 -14z m120 -21 c0 -8 0 -18 1 -22 0 -4
-4 -9 -10 -11 -6 -2 -11 8 -11 22 0 14 5 26 10 26 6 0 10 -7 10 -15z m-630
-25 c0 -5 -4 -10 -10 -10 -5 0 -10 5 -10 10 0 6 5 10 10 10 6 0 10 -4 10 -10z
m510 -36 c0 -21 -5 -34 -13 -34 -9 0 -11 12 -9 40 5 48 22 43 22 -6z m268 1
l2 -40 -20 25 c-25 32 -26 63 -2 58 12 -2 18 -14 20 -43z m-198 -210 c-53
-110 -99 -166 -147 -180 -41 -12 -73 -9 -73 6 0 5 7 9 15 9 9 0 12 6 9 15 -4
8 -1 15 6 15 7 0 19 8 26 17 7 10 16 14 21 10 4 -5 -3 -17 -17 -27 -21 -16
-23 -20 -8 -25 18 -7 58 10 58 25 0 5 11 20 24 33 32 33 93 155 96 192 5 77 0
82 -28 25 -15 -31 -33 -72 -41 -93 -8 -20 -18 -37 -22 -37 -11 0 23 99 63 185
l33 71 12 -81 11 -80 -38 -80z m-563 206 c-1 -15 -4 -17 -14 -9 -17 14 -16 28
1 28 8 0 14 -9 13 -19z m763 -55 c0 -16 -18 -31 -27 -22 -8 8 5 36 17 36 5 0
10 -6 10 -14z m-285 -36 c-5 -8 -11 -8 -17 -2 -6 6 -7 16 -3 22 5 8 11 8 17 2
6 -6 7 -16 3 -22z m-445 10 c0 -5 -4 -10 -10 -10 -5 0 -10 5 -10 10 0 6 5 10
10 10 6 0 10 -4 10 -10z m710 -78 c-16 -97 -116 -276 -181 -324 -68 -50 -178
-74 -219 -48 -19 12 -17 12 51 15 72 2 157 42 195 93 48 61 122 216 129 268 9
57 14 69 25 57 5 -4 4 -32 0 -61z m-700 48 c0 -5 -5 -10 -11 -10 -5 0 -7 5 -4
10 3 6 8 10 11 10 2 0 4 -4 4 -10z m400 1 c0 -5 -6 -11 -12 -13 -7 -3 -13 -13
-13 -24 0 -16 -7 -19 -45 -19 -67 0 -72 -6 -50 -67 10 -29 16 -56 13 -61 -8
-13 -17 3 -38 66 -22 69 -15 81 51 83 34 1 49 7 60 23 16 22 34 28 34 12z
m-390 -41 c0 -5 -4 -10 -10 -10 -5 0 -10 5 -10 10 0 6 5 10 10 10 6 0 10 -4
10 -10z m96 -35 c4 -8 3 -23 -1 -32 -7 -17 -8 -16 -15 2 -5 11 -9 26 -9 33 -1
17 18 15 25 -3z m24 -78 c0 -8 14 -33 30 -55 17 -24 25 -42 18 -42 -15 0 -53
53 -63 88 -4 13 -2 22 4 22 6 0 11 -6 11 -13z m300 4 c0 -12 -20 -25 -27 -18
-7 7 6 27 18 27 5 0 9 -4 9 -9z m-372 -22 c-2 -6 -8 -10 -13 -10 -5 0 -11 4
-13 10 -2 6 4 11 13 11 9 0 15 -5 13 -11z m17 -39 c3 -5 1 -10 -4 -10 -6 0
-11 5 -11 10 0 6 2 10 4 10 3 0 8 -4 11 -10z m155 -65 c7 -8 8 -15 2 -15 -5 0
-15 7 -22 15 -7 8 -8 15 -2 15 5 0 15 -7 22 -15z m-116 -18 c-1 -9 28 -32 72
-58 40 -24 71 -45 69 -47 -10 -11 -78 23 -119 59 -43 38 -62 76 -33 66 6 -2
11 -11 11 -20z m212 -7 c8 0 14 -7 14 -15 0 -16 -35 -21 -44 -6 -3 5 -16 7
-29 4 -22 -4 -22 -4 -2 11 11 9 26 14 33 11 8 -3 20 -5 28 -5z"/>
<path d="M13210 8150 c0 -5 5 -10 11 -10 5 0 7 5 4 10 -3 6 -8 10 -11 10 -2 0
-4 -4 -4 -10z"/>
<path d="M13186 8121 c-5 -7 -3 -18 3 -24 14 -14 20 -6 11 17 -5 15 -9 16 -14
7z"/>
<path d="M13207 8059 c4 -13 8 -18 11 -10 2 7 -1 18 -6 23 -8 8 -9 4 -5 -13z"/>
<path d="M13167 7881 l-28 -18 28 -6 c28 -5 43 5 43 31 0 16 -9 14 -43 -7z"/>
<path d="M13223 7843 c-7 -3 -13 -11 -13 -18 0 -8 6 -17 13 -21 6 -4 9 -4 5 1
-4 4 -3 14 4 22 13 15 9 22 -9 16z"/>
<path d="M10326 7031 c-10 -15 12 -97 39 -149 28 -55 85 -141 85 -129 0 5 -14
28 -31 53 -42 62 -67 121 -73 178 -6 53 -11 63 -20 47z"/>
<path d="M12665 6760 c-3 -5 -2 -10 4 -10 5 0 13 5 16 10 3 6 2 10 -4 10 -5 0
-13 -4 -16 -10z"/>
<path d="M10610 5620 c0 -5 12 -10 26 -10 14 0 23 4 19 10 -3 6 -15 10 -26 10
-10 0 -19 -4 -19 -10z"/>
<path d="M13910 9605 c-30 -8 -81 -25 -112 -36 l-58 -21 0 -454 c0 -250 2
-454 5 -454 12 0 245 161 316 218 148 119 262 259 301 370 15 44 19 74 16 128
-7 109 -57 182 -162 236 -54 29 -223 35 -306 13z"/>
<path d="M9343 9464 c-8 -3 -2 -20 17 -52 64 -104 74 -221 34 -401 -33 -145
-68 -234 -109 -275 -30 -30 -91 -56 -132 -56 -15 0 -27 -18 -53 -87 -40 -108
-74 -176 -156 -319 -35 -61 -64 -115 -64 -120 0 -6 27 -23 60 -39 61 -29 109
-70 97 -82 -4 -3 -15 1 -24 9 -20 18 -138 78 -152 78 -5 0 -23 -33 -39 -72
-37 -87 -32 -100 46 -138 29 -14 52 -31 52 -37 0 -7 -2 -13 -5 -13 -13 0 -92
44 -112 63 -18 16 -24 17 -27 6 -156 -433 -307 -761 -546 -1184 -176 -311
-200 -385 -225 -695 -44 -547 -103 -1172 -140 -1480 -13 -113 -31 -281 -40
-375 -41 -442 -113 -616 -450 -1100 -153 -219 -507 -752 -710 -1068 -195 -304
-634 -964 -796 -1197 -419 -603 -549 -790 -559 -809 l-11 -21 1860 0 1859 0
33 83 c49 123 277 599 360 750 148 272 299 481 506 702 275 295 372 377 633
535 182 110 241 151 336 232 167 141 363 362 627 708 257 338 353 451 612 720
71 74 184 198 251 275 265 306 386 401 765 600 191 101 226 122 168 104 -20
-7 -152 -14 -326 -16 -212 -4 -290 -8 -287 -17 2 -6 10 -39 18 -74 11 -46 11
-62 3 -59 -14 4 -35 70 -36 114 l-1 32 -1227 3 -1228 3 -65 22 c-36 13 -80 32
-98 43 l-33 20 8 -92 c13 -153 7 -403 -11 -507 -32 -176 -97 -347 -194 -503
-19 -32 -39 -58 -43 -58 -14 0 -12 5 31 74 166 273 228 559 200 931 l-12 160
-63 61 c-90 88 -120 143 -118 219 1 46 -3 65 -17 80 -11 11 -27 38 -37 60 -17
37 -18 102 -23 943 l-5 903 -135 -111 c-74 -60 -143 -122 -152 -137 -14 -22
-18 -50 -18 -123 l0 -96 49 -48 c51 -50 97 -135 106 -197 4 -26 -3 -15 -30 40
-33 69 -98 161 -113 161 -4 0 -5 -70 -3 -155 2 -103 0 -155 -7 -155 -6 0 -13
19 -16 43 -8 59 -34 327 -41 420 -4 42 -10 77 -15 77 -4 0 -32 -11 -61 -24
-77 -33 -158 -51 -171 -38 -12 12 -14 12 67 31 74 18 163 61 186 89 23 30 91
241 188 588 39 138 73 258 76 267 6 13 -8 15 -103 14 -80 -2 -113 2 -125 12
-10 7 -17 16 -17 20 0 3 55 5 122 3 68 -1 128 1 134 5 28 21 130 359 161 538
24 142 25 542 0 671 -64 337 -198 511 -400 520 -40 2 -77 1 -84 -2z m-198
-3248 c-27 -41 -173 -163 -254 -212 -87 -53 -382 -196 -389 -189 -8 7 -12 5
188 103 228 112 293 155 390 253 76 78 96 92 65 45z m1877 -1625 c15 -43 64
-168 109 -277 90 -219 132 -335 124 -343 -9 -8 -22 12 -35 54 -7 22 -50 132
-95 245 -82 202 -145 373 -145 391 0 5 3 9 8 9 4 0 19 -35 34 -79z m775 -84
c67 -89 148 -202 181 -252 72 -108 167 -284 158 -292 -8 -8 -1 -17 -80 122
-86 151 -202 318 -399 573 -6 8 -5 12 4 12 8 -1 69 -74 136 -163z m-1417 -9
c0 -29 -52 -237 -84 -341 -58 -184 -190 -467 -217 -467 -6 0 -9 3 -7 8 2 4 38
77 80 162 87 175 144 336 184 523 16 70 32 127 36 127 4 0 8 -6 8 -12z m-2144
-1178 c111 -88 200 -142 312 -185 139 -53 373 -95 534 -95 63 0 78 -3 78 -15
0 -20 -64 -20 -234 0 -236 28 -398 79 -561 179 -120 73 -254 186 -220 186 2 0
43 -31 91 -70z m209 -495 c44 -28 154 -93 245 -144 330 -186 431 -268 665
-537 145 -166 234 -249 326 -307 65 -40 82 -57 58 -57 -24 0 -148 92 -224 167
-44 43 -127 132 -185 198 -211 240 -329 339 -565 471 -230 129 -424 251 -425
267 0 9 -3 11 105 -58z m-350 -115 c22 -20 159 -128 305 -241 146 -114 299
-237 340 -274 41 -37 116 -101 166 -141 51 -41 120 -107 155 -147 187 -215
371 -390 454 -433 30 -16 55 -35 55 -42 0 -22 -111 42 -190 111 -41 35 -129
125 -195 198 -66 73 -145 160 -175 193 -73 79 -312 282 -485 414 -308 233
-515 404 -515 425 0 10 12 1 85 -63z m306 -676 c-12 -20 -76 -133 -143 -252
-67 -120 -182 -323 -256 -452 -74 -129 -170 -301 -214 -382 -44 -82 -85 -148
-90 -148 -12 0 78 170 232 440 65 113 173 304 240 425 171 308 229 405 241
405 6 0 1 -16 -10 -36z"/>
<path d="M9274 9405 c-32 -49 -67 -226 -104 -533 -7 -52 -16 -108 -21 -124
l-8 -31 38 6 c21 2 50 13 65 22 74 49 155 353 134 507 -8 58 -61 178 -79 178
-5 0 -16 -11 -25 -25z"/>
<path d="M13860 8371 c-19 -5 -38 -31 -77 -106 -63 -121 -94 -230 -100 -350
-11 -199 62 -349 204 -421 53 -27 67 -29 163 -29 97 0 109 2 153 28 56 33 99
89 122 157 12 35 13 54 6 67 -6 10 -15 44 -21 75 -26 133 -116 251 -235 307
-36 17 -65 37 -65 44 0 26 36 47 79 47 87 0 198 -88 255 -202 24 -47 26 -49
26 -22 0 16 -6 52 -14 80 -42 159 -171 290 -318 324 -48 11 -140 12 -178 1z"/>
<path d="M13763 8353 c-19 -4 -23 -11 -23 -45 l0 -41 30 41 c31 43 35 53 23
51 -5 -1 -18 -4 -30 -6z"/>
<path d="M14050 8153 c0 -5 20 -16 45 -27 92 -37 207 -169 235 -270 15 -53 35
-51 25 2 -19 104 -115 241 -197 283 -36 19 -108 26 -108 12z"/>
<path d="M9697 7598 c-26 -84 -69 -235 -97 -335 -27 -100 -61 -217 -75 -259
-13 -43 -23 -79 -21 -81 1 -2 57 45 124 103 l122 106 0 309 c0 170 -2 309 -4
309 -2 0 -24 -69 -49 -152z"/>
<path d="M13740 7454 l0 -65 48 27 c26 15 48 28 49 29 1 0 -20 17 -47 37 l-50
37 0 -65z"/>
<path d="M13810 7162 l-65 -17 -3 -45 -3 -45 43 43 c24 23 49 42 56 42 22 0
-23 -73 -111 -179 -96 -116 -130 -173 -152 -256 -54 -208 51 -405 247 -467
107 -33 213 -21 294 33 47 32 186 215 231 307 110 221 -1 502 -231 582 -70 25
-213 26 -306 2z m315 -287 c28 -16 55 -43 72 -73 25 -41 28 -57 28 -132 0 -76
-4 -93 -32 -150 -34 -70 -97 -150 -117 -150 -7 0 -20 32 -31 72 -31 120 -69
184 -167 278 -48 47 -88 88 -88 91 0 13 83 63 133 81 68 24 143 18 202 -17z"/>
<path d="M13943 6866 c-23 -8 -57 -23 -77 -35 l-35 -22 83 -82 c86 -85 119
-137 152 -240 10 -31 23 -56 28 -54 37 12 106 170 106 241 0 89 -59 174 -135
195 -50 14 -69 13 -122 -3z"/>
<path d="M13846 5820 c-93 -12 -151 -35 -202 -82 -62 -57 -88 -124 -88 -228
-1 -153 61 -246 212 -318 64 -30 88 -36 161 -40 94 -5 118 -15 87 -38 -29 -21
-158 -18 -226 6 -55 19 -69 15 -70 -18 0 -27 -69 -160 -101 -198 -19 -21 -41
-47 -48 -56 -19 -25 236 94 334 156 170 106 292 221 341 322 53 108 43 276
-23 375 -67 102 -194 142 -377 119z m158 -90 c58 -28 112 -88 126 -142 23 -83
-26 -165 -126 -214 -72 -35 -82 -30 -82 45 0 118 -40 227 -106 290 -20 19 -36
38 -36 42 0 25 161 10 224 -21z"/>
<path d="M13864 5708 c51 -72 71 -130 91 -270 3 -21 12 -38 18 -38 7 0 34 13
59 29 34 22 50 40 63 75 17 44 17 48 1 91 -29 75 -127 135 -219 135 -29 0 -29
-1 -13 -22z"/>
</g>
</svg>
