<?xml version="1.0" standalone="no"?>
<!DOCTYPE svg PUBLIC "-//W3C//DTD SVG 20010904//EN"
 "http://www.w3.org/TR/2001/REC-SVG-20010904/DTD/svg10.dtd">
<svg version="1.0" xmlns="http://www.w3.org/2000/svg"
 width="2220.000000pt" height="1920.000000pt" viewBox="0 0 2220.000000 1920.000000"
 preserveAspectRatio="xMidYMid meet">

<defs>
<filter id="invertAlpha"><feComponentTransfer><feFuncA type="table" tableValues="1 0"/></feComponentTransfer></filter>
</defs>

<g transform="translate(0.000000,1920.000000) scale(0.100000,-0.100000)"
fill="white" stroke="none" filter="url(#invertAlpha)">
<path d="M0 9600 l0 -9600 2013 0 2012 0 76 97 c42 54 139 184 216 288 77 105
205 278 284 385 384 516 586 808 864 1245 233 367 248 389 598 879 165 231
322 454 349 495 136 207 249 526 287 812 6 42 31 281 56 530 25 250 50 499 55
554 6 55 21 228 35 385 14 157 27 312 30 345 3 33 12 168 20 300 34 533 53
601 288 1026 130 236 222 417 357 703 168 355 211 461 299 732 75 233 100 285
242 506 82 127 128 216 169 329 17 46 42 107 55 134 15 34 33 115 55 250 61
383 107 563 162 629 50 61 99 80 203 80 171 -1 283 -70 420 -259 l21 -28 -4
901 c-3 629 -1 929 7 996 20 174 79 294 206 421 87 88 174 138 295 172 62 17
154 18 1790 18 1642 0 1728 -1 1790 -18 197 -56 340 -176 430 -362 71 -147 70
-128 70 -1119 l0 -884 85 23 c215 59 371 68 489 26 178 -62 276 -194 276 -372
0 -153 -57 -292 -178 -434 -132 -155 -377 -342 -579 -442 l-93 -46 0 -79 0
-79 48 7 c180 30 371 -15 507 -119 151 -115 239 -297 239 -492 -1 -96 -4 -108
-63 -285 -66 -198 -97 -256 -164 -306 -64 -47 -122 -65 -227 -71 -114 -6 -208
13 -287 58 l-53 30 0 -144 0 -145 48 15 c153 48 316 31 479 -50 266 -131 386
-477 258 -742 -69 -144 -316 -406 -435 -463 -92 -43 -181 -58 -266 -44 -38 6
-71 9 -74 6 -3 -3 -6 -64 -8 -136 l-4 -131 29 7 c174 38 279 31 399 -29 216
-107 327 -355 269 -603 -52 -219 -257 -416 -680 -653 -71 -40 -186 -99 -255
-132 -410 -195 -844 -491 -1111 -757 -185 -185 -735 -769 -856 -910 -54 -63
-137 -162 -183 -220 -180 -224 -444 -522 -591 -665 -186 -182 -332 -292 -709
-538 -157 -103 -323 -216 -370 -253 -119 -95 -470 -448 -574 -579 -112 -141
-275 -382 -410 -608 -58 -97 -106 -179 -106 -182 0 -2 3060 -4 6800 -5 l6800
-1 0 9601 0 9600 -11100 0 -11100 0 0 -9600z m9979 8370 c57 -28 106 -91 125
-159 16 -58 22 -120 9 -108 -3 4 -12 -1 -20 -11 -8 -9 -12 -11 -8 -4 3 6 1 12
-5 12 -6 0 -8 5 -5 10 3 6 1 10 -4 10 -6 0 -11 -9 -11 -20 0 -11 -5 -20 -11
-20 -5 0 -7 5 -4 10 3 6 2 10 -3 10 -5 0 -9 19 -8 43 0 23 -3 53 -8 66 -7 20
-6 23 8 18 14 -6 15 -3 6 13 -6 11 -13 20 -16 20 -3 0 -2 -4 1 -10 14 -22 -16
-8 -31 15 -8 13 -36 34 -61 46 -83 40 -191 6 -223 -70 -13 -31 -34 -38 -72
-23 -16 7 -16 10 1 47 54 117 218 168 340 105z m1165 -105 c25 -69 46 -128 46
-131 0 -3 -6 -4 -14 -1 -8 3 -17 -1 -20 -9 -13 -35 -35 -10 -66 76 -18 50 -36
90 -40 90 -4 0 -15 -24 -25 -54 -10 -30 -22 -53 -27 -50 -5 3 -6 9 -3 14 3 5
-6 12 -20 16 -14 3 -25 7 -25 9 0 3 36 106 49 138 9 24 16 27 55 27 l44 0 46
-125z m-455 98 c0 -11 -3 -13 -6 -5 -3 8 -31 12 -89 12 -58 0 -83 -3 -79 -11
4 -6 13 -8 21 -5 7 3 16 0 20 -6 4 -7 3 -8 -4 -4 -7 4 -12 3 -12 -3 0 -5 6
-11 13 -14 6 -2 -3 -7 -20 -11 l-33 -8 0 -249 0 -249 -40 0 -40 0 4 178 c2 97
1 210 -1 250 l-5 72 -89 0 -89 0 0 35 0 35 225 0 c208 0 225 -1 224 -17z
m1221 -38 c0 -44 -3 -53 -15 -49 -8 4 -15 1 -15 -4 0 -6 -9 -9 -21 -7 -15 3
-19 0 -16 -10 3 -7 2 -26 -3 -42 -7 -23 -8 -16 -9 35 l-1 62 -49 0 c-68 0
-111 10 -111 26 0 8 5 14 11 14 5 0 7 -4 4 -10 -3 -5 2 -10 12 -10 16 0 16 1
0 18 -24 24 -183 28 -209 6 -16 -16 -19 -49 -4 -72 4 -7 4 -16 1 -22 -4 -6 5
-10 19 -10 14 0 26 -6 27 -12 0 -7 3 -42 6 -77 3 -35 2 -107 -2 -160 -6 -78
-10 -92 -18 -73 -12 26 -43 25 -41 -1 1 -9 -2 -17 -7 -17 -9 0 -15 195 -11
358 l3 112 225 0 224 0 0 -55z m730 34 c50 -28 70 -65 70 -131 0 -57 -16 -86
-59 -108 l-25 -13 34 -16 c50 -24 72 -60 73 -118 2 -122 -109 -195 -250 -163
-63 14 -117 61 -131 113 -8 31 -8 32 27 35 23 2 37 -1 40 -10 2 -7 19 -28 38
-47 31 -31 37 -33 88 -29 161 13 144 198 -17 198 -46 0 -48 1 -48 29 0 26 4
30 28 29 42 -1 100 21 117 45 41 59 -7 147 -80 147 -49 0 -90 -23 -105 -60
-11 -26 -17 -30 -51 -30 -42 0 -45 4 -28 47 14 37 47 73 84 89 48 21 151 18
195 -7z m-990 -30 c0 -6 -4 -7 -10 -4 -5 3 -10 11 -10 16 0 6 5 7 10 4 6 -3
10 -11 10 -16z m211 -279 c11 0 18 -4 15 -9 -4 -5 3 -7 14 -4 19 5 20 0 20
-111 l0 -116 -40 0 -40 0 2 188 c1 103 3 157 5 120 4 -60 6 -68 24 -68z m-886
50 c-8 -23 -15 -46 -15 -51 0 -5 42 -10 93 -11 50 0 77 -3 59 -5 -18 -3 -36
-11 -39 -19 -3 -9 -13 -12 -24 -9 -11 4 -19 2 -19 -4 0 -6 32 -12 73 -14 50
-2 36 -4 -48 -5 l-120 -2 -29 -85 -29 -85 -43 0 -43 0 25 68 c63 171 97 251
105 246 5 -3 7 -10 4 -15 -3 -5 2 -6 11 -2 13 5 15 3 9 -7 -5 -8 -4 -11 3 -6
6 4 8 14 5 23 -4 10 -2 14 4 10 6 -4 14 0 17 9 14 37 15 4 1 -36z m-1122 -23
c31 -4 31 -4 -5 -5 -37 -2 -38 -1 -37 31 2 29 2 29 6 5 3 -22 10 -28 36 -31z
m94 -3 c-3 -3 -12 -4 -19 -1 -8 3 -5 6 6 6 11 1 17 -2 13 -5z m61 -1 c-10 -2
-26 -2 -35 0 -10 3 -2 5 17 5 19 0 27 -2 18 -5z m107 -35 c-4 -24 -11 -50 -17
-58 -7 -12 -8 -11 -4 5 3 11 8 37 12 58 3 20 8 37 11 37 3 0 2 -19 -2 -42z
m1160 -131 l35 -97 -43 0 -43 0 -26 80 c-14 44 -23 78 -19 75 5 -2 18 7 30 21
12 14 24 24 26 22 3 -2 20 -48 40 -101z m-1560 50 c28 -59 74 -87 142 -87 57
0 96 15 127 49 24 27 43 15 19 -12 -16 -19 -16 -20 0 -8 21 17 23 -2 1 -23 -8
-9 -11 -16 -5 -16 25 0 8 -22 -31 -40 -107 -49 -256 -10 -310 80 -15 25 -30
57 -34 73 -6 26 -5 27 32 27 36 -1 41 -4 59 -43z m1485 39 c0 -3 -4 -8 -10
-11 -5 -3 -10 -1 -10 4 0 6 5 11 10 11 6 0 10 -2 10 -4z m-1167 -41 c-3 -9 -8
-14 -10 -11 -3 3 -2 9 2 15 9 16 15 13 8 -4z m57 -5 c0 -5 -5 -10 -11 -10 -5
0 -7 5 -4 10 3 6 8 10 11 10 2 0 4 -4 4 -10z m-10 -23 c0 -2 -8 -14 -19 -25
-20 -23 -41 -31 -22 -9 6 8 7 18 3 22 -4 5 -2 5 5 1 6 -3 14 -2 18 4 6 10 15
14 15 7z m1404 -89 c7 -5 6 -8 -4 -9 -8 0 -4 -5 10 -9 l25 -8 -27 -1 c-26 -1
-28 2 -27 37 1 21 3 29 6 17 3 -11 10 -23 17 -27z m-1444 26 c0 -8 -19 -13
-24 -6 -3 5 1 9 9 9 8 0 15 -2 15 -3z m-1518 -840 c63 -21 126 -78 154 -138
36 -78 34 -86 -29 -86 -51 0 -53 1 -65 34 -43 117 -225 154 -326 66 -57 -51
-80 -118 -81 -240 0 -96 3 -110 28 -163 31 -62 70 -98 131 -117 50 -16 128 -7
172 20 35 22 77 85 88 133 6 25 10 27 62 27 l56 0 -7 -37 c-47 -254 -389 -340
-559 -141 -63 73 -80 134 -81 283 0 120 2 134 26 185 30 64 76 121 123 149 81
50 205 60 308 25z m4550 -4 c-8 -64 -49 -87 -186 -108 -90 -14 -141 -53 -161
-121 l-7 -23 49 28 c41 25 59 29 118 29 117 -1 184 -51 220 -163 33 -100 5
-253 -58 -320 -43 -47 -96 -67 -177 -67 -91 0 -145 25 -190 87 -50 69 -63 133
-57 277 5 134 26 224 65 278 33 47 109 82 203 94 46 6 93 17 104 25 11 7 34
12 50 11 26 -2 30 -6 27 -27z m-3008 -199 c71 -35 76 -51 76 -259 0 -184 5
-208 41 -200 19 4 25 -62 7 -73 -7 -5 -30 -9 -51 -9 -31 0 -45 7 -67 30 l-29
31 -39 -26 c-83 -55 -195 -55 -260 0 -36 30 -57 99 -47 152 16 88 78 129 222
145 105 12 123 23 123 73 0 47 -37 75 -101 75 -71 0 -98 -14 -116 -60 -15 -38
-18 -40 -60 -40 -41 0 -43 1 -43 31 0 41 27 97 57 116 75 49 201 55 287 14z
m546 -2 c47 -27 75 -66 88 -127 l10 -42 -54 0 c-47 0 -54 3 -54 20 0 11 -13
34 -29 52 -26 29 -36 33 -80 33 -90 0 -135 -67 -135 -205 0 -95 23 -147 77
-174 70 -34 155 8 172 84 6 28 10 30 51 30 42 0 44 -1 44 -30 0 -64 -74 -160
-138 -177 -58 -17 -145 -9 -192 17 -117 65 -163 251 -99 400 24 57 94 126 136
136 15 3 33 8 38 10 27 10 127 -6 165 -27z m1821 4 c69 -40 73 -55 79 -261 l5
-186 25 -6 c18 -4 26 -13 28 -35 7 -60 -78 -77 -129 -25 l-30 30 -38 -25 c-80
-53 -191 -55 -256 -3 -68 53 -74 170 -12 237 32 35 78 51 175 62 48 5 97 16
109 25 31 20 31 67 -2 99 -20 21 -34 25 -83 25 -69 0 -107 -22 -117 -71 -7
-29 -9 -30 -53 -27 l-47 3 3 35 c7 69 40 107 120 136 51 20 181 12 223 -13z
m1127 -3 c80 -45 121 -131 122 -257 0 -101 -23 -170 -77 -225 -98 -101 -292
-85 -369 32 -87 132 -64 350 47 432 72 53 199 62 277 18z m-4318 -172 c33
-106 64 -202 69 -212 5 -15 22 24 65 150 31 93 64 188 73 212 l16 43 66 -3 66
-3 3 -272 2 -273 -50 0 -50 0 -2 198 -3 197 -66 -195 -66 -195 -48 0 -49 0
-65 195 -66 195 -3 -197 -2 -198 -44 0 -45 0 -7 57 c-4 32 -4 132 -1 223 4 91
7 189 7 218 l0 52 70 0 69 0 61 -192z m1650 -38 l0 -230 90 0 90 0 2 228 3
227 53 3 52 3 0 -230 0 -231 85 0 85 0 2 228 3 227 53 3 52 3 0 -275 0 -276
-335 0 -335 0 0 275 0 275 50 0 50 0 0 -230z m1110 180 l0 -50 -90 0 -90 0 0
-226 0 -225 -52 3 -53 3 3 111 c2 62 1 162 -3 223 l-8 111 -83 0 -84 0 0 50 0
50 230 0 230 0 0 -50z m1984 -160 c38 -116 70 -209 73 -207 2 3 35 96 73 208
l68 204 69 0 68 0 3 -272 2 -273 -50 0 -50 0 -1 198 0 197 -68 -195 -68 -195
-49 0 -48 0 -68 195 -67 195 0 -197 -1 -198 -50 0 -50 0 0 275 0 275 73 0 73
0 68 -210z m7131 -14698 c63 -175 203 -314 378 -377 34 -13 62 -28 62 -35 0
-7 -28 -22 -62 -35 -176 -63 -315 -202 -378 -378 -13 -34 -28 -62 -35 -62 -7
0 -22 28 -35 62 -63 176 -202 315 -378 378 -34 13 -62 28 -62 35 0 7 28 22 62
35 88 32 165 81 230 146 82 84 119 146 168 287 9 26 28 5 50 -56z"/>
<path d="M9670 17900 c-8 -6 -10 -10 -5 -10 6 0 3 -5 -5 -10 -13 -8 -12 -10 3
-10 10 0 20 7 24 15 7 21 1 26 -17 15z"/>
<path d="M12638 17913 c-24 -6 -22 -12 10 -48 15 -17 26 -29 25 -27 -1 3 2 13
8 24 7 13 7 23 0 32 -6 7 -8 16 -4 19 7 8 -12 7 -39 0z m28 -31 c1 -7 0 -8 -3
-2 -2 5 -9 8 -14 4 -5 -3 -9 0 -9 6 0 15 23 7 26 -8z"/>
<path d="M12361 17528 c-1 -23 15 -32 23 -12 3 8 2 13 -3 9 -5 -3 -12 1 -14 7
-4 8 -6 7 -6 -4z"/>
<path d="M12820 16329 c-71 -29 -108 -112 -96 -213 13 -99 74 -161 153 -153
89 9 132 72 133 192 0 78 -19 127 -61 158 -31 22 -95 31 -129 16z"/>
<path d="M9928 16131 c-103 -21 -128 -38 -128 -92 0 -72 78 -100 167 -60 25
12 48 32 57 50 19 37 22 122 4 120 -7 -1 -52 -9 -100 -18z"/>
<path d="M12305 16133 c-101 -17 -129 -36 -133 -90 -3 -34 1 -44 24 -62 54
-43 166 -13 197 52 20 42 23 118 5 116 -7 -1 -49 -8 -93 -16z"/>
<path d="M13370 16342 c-53 -29 -81 -92 -81 -181 0 -99 27 -156 87 -183 84
-36 162 3 189 95 29 97 15 186 -39 244 -41 45 -102 55 -156 25z"/>
<path d="M9751 12848 c-216 -31 -396 -179 -477 -393 -41 -111 -46 -250 -41
-1280 l4 -930 26 -110 c39 -160 61 -404 53 -600 -7 -195 -18 -281 -53 -433
l-26 -117 -1 -1865 c-1 -1756 0 -1869 17 -1934 61 -239 239 -413 469 -460 68
-14 264 -16 1732 -16 1807 0 1736 -2 1867 58 135 62 239 161 298 285 25 53 65
178 58 183 -1 0 -27 17 -57 36 -30 19 -77 58 -103 87 -195 210 -135 578 117
711 l46 25 0 166 0 166 -58 36 c-115 71 -190 177 -218 306 -18 85 -18 138 1
246 24 135 63 205 202 362 l73 81 0 282 0 282 -39 59 c-131 197 -133 457 -5
728 l44 94 0 1696 c0 1898 5 1767 -74 1927 -75 150 -196 254 -366 311 -53 17
-130 18 -1740 19 -993 1 -1711 -2 -1749 -8z m2238 -374 c38 -32 49 -80 27
-123 -32 -62 -26 -61 -563 -61 -470 0 -489 1 -521 20 -61 38 -67 117 -11 164
l31 26 503 0 503 0 31 -26z m-494 -510 c23 -15 25 -15 25 0 0 17 45 20 68 3 8
-6 12 -6 12 2 0 6 5 11 10 11 6 0 10 -6 10 -14 0 -8 8 -13 18 -11 9 1 23 -2
30 -8 8 -7 12 -5 12 7 0 10 -4 14 -10 11 -5 -3 -10 -1 -10 4 0 6 7 11 15 11 8
0 15 -5 15 -11 0 -5 5 -7 11 -3 8 5 8 1 0 -14 -9 -17 -8 -21 7 -25 9 -3 -49
-5 -130 -6 -82 0 -147 2 -145 7 1 4 -2 8 -8 9 -5 0 -9 -3 -7 -8 1 -5 -8 -9
-20 -8 -13 0 -17 3 -10 6 15 6 16 34 1 31 -6 -2 -14 3 -16 10 -7 19 92 16 122
-4z m236 -17 c-8 -8 -11 -7 -11 4 0 9 3 19 7 23 4 4 9 2 11 -4 3 -7 -1 -17 -7
-23z m853 1 c-6 -10 -4 -10 7 -2 20 16 49 14 49 -3 0 -8 4 -12 9 -8 5 3 12 1
16 -5 4 -7 -32 -9 -107 -8 -62 1 -87 3 -55 5 41 3 57 8 57 18 0 8 7 15 16 15
9 0 12 -5 8 -12z m-2151 -25 c-7 -2 -19 -2 -25 0 -7 3 -2 5 12 5 14 0 19 -2
13 -5z m-658 -12 c-3 -5 -1 -12 5 -16 18 -11 10 -23 -12 -17 -16 4 -19 2 -13
-8 4 -7 9 -29 11 -49 2 -31 1 -33 -7 -12 -6 14 -15 21 -24 18 -11 -5 -12 -1
-5 18 11 28 40 75 47 75 2 0 2 -4 -2 -9z m-8 -223 c0 -46 -3 -71 -5 -55 -2 15
-7 27 -12 27 -6 0 -12 -12 -16 -27 -11 -50 -12 -49 -13 6 -1 40 3 57 17 67 9
7 18 17 18 23 1 6 2 18 3 26 0 8 3 15 5 15 2 0 4 -37 3 -82z m1507 27 c-22
-17 -34 -19 -34 -6 0 5 8 12 18 14 32 9 36 7 16 -8z m170 -41 c34 -70 36 -74
36 -79 0 -2 -7 -2 -15 1 -8 4 -15 16 -15 29 0 12 -11 39 -25 60 -14 20 -20 35
-13 33 7 -2 22 -22 32 -44z m21 26 c3 -5 1 -10 -4 -10 -6 0 -11 5 -11 10 0 6
2 10 4 10 3 0 8 -4 11 -10z m55 -62 c0 7 5 10 11 7 6 -4 8 -13 5 -21 -3 -7 -1
-16 4 -19 6 -4 10 -12 10 -18 0 -7 -18 8 -40 32 -22 25 -40 49 -40 55 1 6 12
-2 25 -19 14 -16 25 -24 25 -17z m-380 22 c0 -5 -4 -10 -10 -10 -5 0 -10 5
-10 10 0 6 5 10 10 10 6 0 10 -4 10 -10z m679 -36 c-14 -18 -24 -11 -15 11 3
9 11 13 16 10 8 -5 7 -11 -1 -21z m-503 -12 c1 -7 0 -8 -3 -2 -2 5 -9 8 -14 4
-5 -3 -9 0 -9 6 0 15 23 7 26 -8z m277 -9 c18 -9 42 -16 55 -14 12 1 22 -3 22
-9 0 -7 -6 -10 -14 -7 -10 4 -12 0 -9 -14 3 -10 12 -19 19 -19 8 0 14 -4 14
-10 0 -15 -21 -12 -42 7 -13 11 -18 12 -18 3 0 -7 7 -18 17 -25 10 -7 12 -14
6 -18 -10 -7 -63 63 -63 83 0 5 -4 10 -9 10 -5 0 -11 7 -15 15 -7 19 -2 19 37
-2z m204 -20 c15 -31 10 -41 -12 -23 -13 10 -15 9 -15 -7 0 -11 -14 -26 -37
-38 -21 -11 -41 -24 -45 -30 -4 -5 -8 0 -8 13 0 14 6 22 16 22 13 0 11 5 -7
21 -17 15 -19 19 -6 15 9 -3 17 -1 17 4 0 6 -4 10 -10 10 -5 0 -10 5 -10 11 0
6 7 8 17 5 9 -4 20 -1 24 6 7 10 11 10 21 0 16 -16 28 -15 28 3 0 23 14 17 27
-12z m115 -38 c9 -11 17 -26 18 -32 0 -14 3 -14 99 -18 l65 -2 3 -50 c3 -35 0
-53 -10 -62 -10 -8 -17 -9 -22 -1 -3 5 0 10 7 10 8 1 5 6 -7 16 -17 12 -18 17
-7 35 8 12 11 23 9 25 -9 9 -77 12 -83 3 -3 -5 -14 -3 -25 4 -16 10 -21 9 -30
-3 -9 -13 -10 -13 -7 0 4 24 -21 60 -41 60 -10 0 -26 11 -35 25 -10 16 -12 25
-5 25 6 0 8 7 5 17 -7 18 29 -10 66 -52z m-2145 3 c0 -43 -1 -46 -4 -13 -3 22
-9 45 -15 52 -8 10 -7 13 4 13 11 0 15 -14 15 -52z m2060 46 c-3 -3 -12 -4
-19 -1 -8 3 -5 6 6 6 11 1 17 -2 13 -5z m-292 -24 c3 -5 2 -10 -4 -10 -5 0
-13 5 -16 10 -3 6 -2 10 4 10 5 0 13 -4 16 -10z m45 -32 c0 -13 -23 -5 -28 10
-2 7 2 10 12 6 9 -3 16 -11 16 -16z m231 -18 c5 0 9 -7 9 -16 0 -8 4 -12 10
-9 6 3 7 -1 4 -9 -9 -23 -34 -20 -34 4 0 20 -16 28 -22 10 -2 -6 -8 -6 -18 0
-13 9 -13 11 0 20 8 5 21 8 28 5 8 -3 18 -5 23 -5z m-351 -62 c118 -56 367
-146 509 -184 178 -48 219 -83 281 -242 23 -59 60 -147 83 -196 58 -126 57
-180 -5 -333 -54 -132 -87 -192 -140 -249 -47 -51 -101 -78 -224 -110 -114
-29 -221 -82 -369 -179 -132 -88 -220 -176 -271 -270 -71 -133 -144 -224 -205
-255 -20 -11 -60 -22 -90 -25 -30 -4 -66 -11 -81 -17 -22 -8 -40 -5 -95 17
-106 42 -255 122 -299 159 -80 68 -122 191 -108 314 13 108 6 219 -21 317 -31
116 -45 223 -45 339 0 177 54 301 190 436 94 94 155 129 303 175 58 18 118 47
179 86 199 128 269 130 553 17 102 -41 183 -66 253 -79 129 -23 187 -54 257
-134 58 -67 74 -94 68 -112 -8 -23 -21 -14 -27 20 -4 19 -22 48 -46 71 -22 21
-40 42 -40 46 0 21 -122 69 -213 85 -54 9 -105 19 -114 22 -8 3 -19 0 -25 -8
-8 -12 -9 -12 -6 1 8 27 -274 135 -379 146 -74 8 -137 -15 -262 -95 -69 -44
-121 -69 -205 -95 -132 -42 -208 -88 -288 -175 -61 -66 -128 -171 -151 -236
-37 -106 -29 -271 25 -495 28 -118 30 -133 25 -272 -7 -197 11 -267 92 -346
50 -49 297 -176 342 -175 182 2 262 58 373 260 26 47 65 107 88 134 53 64 168
151 296 226 119 71 199 105 297 127 162 37 232 103 319 301 41 91 50 123 54
186 4 72 2 80 -40 180 -25 57 -62 148 -82 201 -47 122 -81 155 -194 187 -158
45 -490 165 -576 209 -147 75 -198 69 -364 -41 -127 -84 -195 -118 -327 -161
-60 -20 -121 -47 -135 -59 -14 -13 -44 -36 -68 -51 -54 -37 -171 -160 -217
-229 -20 -30 -49 -87 -66 -127 -26 -66 -29 -83 -29 -189 0 -92 5 -137 25 -211
14 -55 33 -180 44 -297 26 -256 54 -400 93 -486 45 -98 92 -134 251 -192 46
-16 82 -39 188 -114 30 -21 63 -35 91 -38 43 -5 47 -3 109 52 40 36 99 74 157
102 118 57 184 118 270 247 37 55 95 130 129 167 93 99 158 128 368 169 173
34 264 100 337 248 33 68 43 82 46 64 5 -33 -32 -117 -79 -178 -73 -95 -166
-142 -334 -169 -210 -34 -290 -91 -435 -311 -39 -60 -84 -122 -98 -138 -38
-40 -124 -97 -212 -140 -41 -21 -93 -54 -115 -75 -96 -93 -166 -93 -281 -4
-76 59 -99 72 -196 108 -107 40 -148 67 -187 120 -54 76 -102 252 -116 430
-17 201 -36 343 -61 445 -22 95 -26 128 -22 223 4 98 8 121 36 187 41 96 95
177 169 254 33 34 68 73 77 89 12 18 24 26 35 22 10 -3 38 11 70 34 34 26 86
50 149 70 120 39 183 71 314 158 108 71 203 106 263 96 17 -2 77 -27 135 -55z
m735 -2 c19 -8 35 -20 35 -25 0 -15 -6 -14 -36 6 -20 13 -30 14 -44 5 -19 -12
-30 -7 -30 15 0 17 32 17 75 -1z m-1248 -2 c-3 -3 -12 -4 -19 -1 -8 3 -5 6 6
6 11 1 17 -2 13 -5z m1103 -4 c0 -5 -4 -10 -10 -10 -5 0 -10 5 -10 10 0 6 5
10 10 10 6 0 10 -4 10 -10z m-80 -10 c0 -5 -4 -10 -9 -10 -6 0 -13 5 -16 10
-3 6 1 10 9 10 9 0 16 -4 16 -10z m40 -5 c0 -8 -4 -15 -10 -15 -5 0 -10 7 -10
15 0 8 5 15 10 15 6 0 10 -7 10 -15z m398 -3 c6 -18 -15 -14 -22 4 -4 10 -1
14 6 12 6 -2 14 -10 16 -16z m-210 -20 c2 -7 -3 -12 -12 -12 -9 0 -16 7 -16
16 0 17 22 14 28 -4z m-1714 -1 c3 -5 -2 -12 -11 -15 -14 -6 -15 -9 -4 -15 10
-7 7 -13 -15 -26 -16 -10 -48 -31 -72 -48 -44 -30 -122 -49 -122 -29 0 6 5 14
10 17 6 3 10 1 10 -4 0 -19 18 -12 51 22 19 18 30 24 26 15 -3 -10 -4 -18 -1
-18 2 0 9 11 14 25 5 14 20 29 32 34 13 5 32 18 43 29 22 23 31 26 39 13z
m1670 0 c7 -11 -3 -41 -14 -41 -11 0 -21 30 -14 41 3 5 9 9 14 9 5 0 11 -4 14
-9z m151 -1 c3 -5 1 -10 -4 -10 -6 0 -11 5 -11 10 0 6 2 10 4 10 3 0 8 -4 11
-10z m-1915 -10 c0 -5 -7 -10 -15 -10 -8 0 -15 5 -15 10 0 6 7 10 15 10 8 0
15 -4 15 -10z m-373 -26 c-3 -3 -12 -4 -19 -1 -8 3 -5 6 6 6 11 1 17 -2 13 -5z
m343 -10 c0 -8 -5 -12 -10 -9 -6 4 -8 11 -5 16 9 14 15 11 15 -7z m223 -1 c15
-8 -15 -33 -39 -33 -26 0 -31 14 -12 34 12 12 27 12 51 -1z m197 13 c0 -3 -4
-8 -10 -11 -5 -3 -10 -1 -10 4 0 6 5 11 10 11 6 0 10 -2 10 -4z m-35 -16 c3
-5 2 -10 -4 -10 -5 0 -13 5 -16 10 -3 6 -2 10 4 10 5 0 13 -4 16 -10z m1598
-17 c6 -30 -15 -29 -29 1 -10 21 -9 24 7 23 10 -1 19 -11 22 -24z m-125 -3 c7
-11 21 -20 31 -20 11 0 23 -4 26 -10 3 -5 -1 -10 -10 -10 -18 0 -75 39 -75 52
0 15 15 8 28 -12z m-2154 -15 c-9 -14 -19 -24 -21 -21 -7 7 16 46 28 46 5 0 2
-11 -7 -25z m550 10 c3 -8 1 -15 -4 -15 -6 0 -10 7 -10 15 0 8 2 15 4 15 2 0
6 -7 10 -15z m-480 -5 c14 -5 26 -15 26 -22 0 -9 -3 -10 -8 -2 -4 6 -20 16
-37 22 -16 6 -25 11 -18 11 6 1 23 -3 37 -9z m376 3 c0 -5 -20 -18 -43 -29
-23 -12 -42 -26 -42 -31 0 -5 -8 -17 -17 -27 -10 -10 -18 -22 -18 -27 0 -6 -6
-16 -13 -24 -9 -8 -13 -32 -11 -64 1 -28 -2 -51 -7 -51 -5 0 -23 -13 -41 -30
-17 -16 -40 -30 -50 -30 -11 0 -17 -4 -14 -9 3 -5 -9 -24 -27 -43 -59 -61 -88
-102 -114 -160 -18 -40 -32 -58 -49 -62 -14 -4 -26 -16 -30 -31 -7 -27 -24
-34 -24 -10 0 8 -7 15 -15 15 -8 0 -15 7 -15 15 0 20 80 106 91 99 11 -6 29
12 47 47 8 14 25 39 39 55 14 16 29 39 34 52 5 13 22 30 38 40 17 9 32 25 35
34 3 12 14 18 33 18 21 0 25 3 13 10 -13 8 -13 14 4 45 11 19 23 35 28 35 4 0
8 7 8 15 0 24 35 87 62 112 33 31 98 55 98 36z m-265 -44 c5 -5 7 -9 5 -10
-47 -9 -69 -1 -70 24 0 9 51 -2 65 -14z m-175 1 c0 -5 -5 -10 -11 -10 -5 0 -7
5 -4 10 3 6 8 10 11 10 2 0 4 -4 4 -10z m2299 -2 c0 -7 -4 -22 -9 -33 -7 -18
-8 -19 -15 -2 -4 9 -5 24 -1 32 7 18 26 20 25 3z m-2219 -12 c0 -8 -11 -28
-25 -44 -33 -39 -33 -65 0 -29 26 27 57 39 38 15 -5 -7 -10 -24 -11 -37 -1
-32 -6 -34 -45 -27 -44 8 -43 26 3 88 39 53 40 54 40 34z m2100 -1 c0 -8 -4
-15 -10 -15 -5 0 -10 7 -10 15 0 8 5 15 10 15 6 0 10 -7 10 -15z m230 -86 c0
-6 -20 4 -45 22 -25 18 -45 36 -45 41 0 5 20 -5 45 -22 25 -17 45 -36 45 -41z
m-2247 27 c6 -16 -2 -28 -14 -20 -12 7 -11 34 0 34 5 0 11 -6 14 -14z m1197
-15 c0 -5 8 -11 18 -13 11 -2 13 -6 6 -10 -6 -4 -19 1 -29 12 -10 12 -13 20
-7 20 7 0 12 -4 12 -9z m-100 -21 c0 -6 -11 -10 -25 -10 -14 0 -25 4 -25 8 0
4 11 9 25 10 14 1 25 -3 25 -8z m340 0 c0 -5 -4 -10 -10 -10 -5 0 -10 5 -10
10 0 6 5 10 10 10 6 0 10 -4 10 -10z m-1400 -40 c-6 -12 -14 -19 -17 -16 -4 3
0 18 8 32 7 14 15 21 17 15 2 -5 -2 -20 -8 -31z m1390 10 c0 -5 -4 -10 -10
-10 -5 0 -10 5 -10 10 0 6 5 10 10 10 6 0 10 -4 10 -10z m730 -15 c0 -14 -2
-25 -4 -25 -2 0 -11 11 -20 25 -16 24 -16 25 4 25 15 0 20 -7 20 -25z m111
-47 c26 -37 24 -52 -4 -25 -13 12 -22 25 -20 29 2 4 -1 9 -6 13 -6 3 -7 13 -4
22 5 14 8 14 11 2 3 -7 13 -26 23 -41z m-867 26 c9 -3 14 -10 11 -15 -7 -10
-35 0 -35 12 0 11 3 11 24 3z m166 -4 c0 -5 -7 -10 -15 -10 -8 0 -15 5 -15 10
0 6 7 10 15 10 8 0 15 -4 15 -10z m-60 -10 c0 -5 -4 -10 -10 -10 -5 0 -10 5
-10 10 0 6 5 10 10 10 6 0 10 -4 10 -10z m-177 -39 c50 -22 135 -49 187 -61
76 -17 105 -29 147 -61 53 -40 121 -139 149 -217 37 -105 -11 -271 -102 -352
-60 -52 -113 -72 -259 -97 -153 -26 -225 -54 -278 -107 -18 -18 -58 -84 -89
-147 -108 -216 -179 -304 -291 -359 -59 -29 -74 -32 -122 -27 -99 10 -187 75
-251 184 -22 36 -26 60 -34 180 -8 137 -27 250 -50 308 -17 41 -15 203 4 298
20 101 53 161 135 242 79 79 171 128 269 145 38 6 134 33 213 61 190 65 239
66 372 10z m147 29 c0 -5 -4 -10 -10 -10 -5 0 -10 5 -10 10 0 6 5 10 10 10 6
0 10 -4 10 -10z m230 0 c0 -5 -2 -10 -4 -10 -3 0 -8 5 -11 10 -3 6 -1 10 4 10
6 0 11 -4 11 -10z m-1760 -9 c0 -6 -4 -13 -10 -16 -5 -3 -10 1 -10 9 0 9 5 16
10 16 6 0 10 -4 10 -9z m1700 -26 c0 -8 -4 -15 -10 -15 -5 0 -10 7 -10 15 0 8
5 15 10 15 6 0 10 -7 10 -15z m-1716 -32 c-2 -55 -4 -64 -12 -59 -9 5 -3 86 7
86 4 0 6 -12 5 -27z m2326 -3 c0 -16 -5 -30 -11 -30 -6 0 -9 7 -6 15 4 8 2 17
-4 20 -11 7 -3 25 12 25 5 0 9 -13 9 -30z m-430 0 c0 -5 -2 -10 -4 -10 -3 0
-8 5 -11 10 -3 6 -1 10 4 10 6 0 11 -4 11 -10z m479 -32 c8 -2 16 -15 17 -29
3 -22 3 -22 -10 -7 -7 10 -16 15 -20 11 -10 -11 -25 18 -19 34 3 8 9 10 12 5
3 -5 12 -11 20 -14z m-1741 1 c-2 -6 -8 -10 -13 -10 -5 0 -11 4 -13 10 -2 6 4
11 13 11 9 0 15 -5 13 -11z m-208 -78 c0 -12 -20 -25 -27 -18 -7 7 6 27 18 27
5 0 9 -4 9 -9z m1588 -45 c0 -23 -1 -23 -20 -4 -16 16 -18 22 -7 29 18 11 27
3 27 -25z m440 22 c18 -18 17 -268 -1 -268 -8 0 -12 12 -10 38 10 148 9 222
-4 222 -7 0 -13 5 -13 10 0 14 13 13 28 -2z m-2053 -58 c-3 -5 -10 -10 -16
-10 -5 0 -9 5 -9 10 0 6 7 10 16 10 8 0 12 -4 9 -10z m1640 -40 c3 -5 1 -10
-4 -10 -6 0 -11 5 -11 10 0 6 2 10 4 10 3 0 8 -4 11 -10z m375 0 c0 -5 -2 -10
-4 -10 -3 0 -8 5 -11 10 -3 6 -1 10 4 10 6 0 11 -4 11 -10z m-2810 -116 c0
-59 -4 -93 -10 -89 -5 3 -7 20 -3 36 4 21 1 34 -8 40 -10 6 -10 9 -1 9 14 0
16 36 2 45 -5 3 -10 12 -10 18 0 7 4 6 10 -3 8 -12 10 -9 10 13 0 15 2 27 5
27 3 0 5 -43 5 -96z m2450 61 c-7 -9 -15 -13 -17 -11 -7 7 7 26 19 26 6 0 6
-6 -2 -15z m-1733 -61 c-3 -3 -12 -4 -19 -1 -8 3 -5 6 6 6 11 1 17 -2 13 -5z
m1746 -26 c-7 -13 -33 -9 -33 5 0 8 3 16 6 20 8 8 33 -16 27 -25z m-2318 12
c3 -5 -1 -10 -9 -10 -9 0 -16 5 -16 10 0 6 4 10 9 10 6 0 13 -4 16 -10z m99
-18 c3 -5 -1 -9 -9 -9 -8 0 -15 4 -15 9 0 4 4 8 9 8 6 0 12 -4 15 -8z m-34
-33 c0 -6 7 -8 15 -5 20 7 40 -41 25 -59 -10 -13 -50 -9 -48 4 3 30 -4 50 -17
45 -8 -4 -15 -2 -15 4 0 10 15 19 33 21 4 1 7 -4 7 -10z m80 -31 c0 -14 -18
-9 -24 8 -11 28 -6 39 9 20 8 -11 15 -23 15 -28z m2170 28 c0 -11 -19 -15 -25
-6 -3 5 1 10 9 10 9 0 16 -2 16 -4z m430 -10 c0 -2 -11 -6 -25 -8 -13 -3 -22
-1 -19 3 5 9 44 13 44 5z m-2792 -24 c2 -7 -2 -10 -12 -6 -9 3 -16 11 -16 16
0 13 23 5 28 -10z m2718 3 c-10 -8 -24 -25 -31 -38 -22 -43 -97 -139 -103
-133 -3 4 0 12 6 18 7 7 12 20 12 29 0 10 3 19 8 21 4 2 20 23 36 48 35 52 54
70 75 70 13 -1 13 -3 -3 -15z m-2636 -17 c0 -25 -21 -88 -29 -88 -5 0 -5 19 0
43 4 23 8 45 9 50 0 12 20 8 20 -5z m510 2 c0 -5 -2 -10 -4 -10 -3 0 -8 5 -11
10 -3 6 -1 10 4 10 6 0 11 -4 11 -10z m1760 -19 c0 -27 -17 -35 -23 -11 -5 19
0 30 15 30 4 0 8 -9 8 -19z m-110 -31 c-16 -30 -22 -19 -7 13 6 14 13 22 15
17 2 -5 -2 -19 -8 -30z m-2064 -7 c-4 -9 -2 -20 5 -23 8 -5 6 -16 -5 -39 -9
-17 -14 -36 -10 -42 3 -6 -2 -19 -12 -30 -25 -28 -2 -23 25 5 19 20 20 25 7
28 -10 2 -13 7 -7 17 5 7 14 10 20 7 21 -13 11 -44 -25 -73 -19 -15 -36 -35
-37 -44 -2 -9 -15 -31 -30 -48 -24 -29 -27 -30 -27 -11 0 12 12 37 26 56 26
33 27 61 2 36 -7 -7 -18 -12 -25 -12 -11 0 -11 4 -1 23 19 35 47 121 42 129
-3 5 -2 13 2 20 18 28 20 -30 3 -75 -13 -37 -14 -45 -3 -37 17 15 33 71 30
105 -2 17 2 25 11 25 10 0 13 -6 9 -17z m2101 -45 c-3 -7 -5 -2 -5 12 0 14 2
19 5 13 2 -7 2 -19 0 -25z m-57 13 c0 -6 -4 -13 -10 -16 -5 -3 -10 1 -10 9 0
9 5 16 10 16 6 0 10 -4 10 -9z m550 -11 c0 -5 -4 -10 -10 -10 -5 0 -10 5 -10
10 0 6 5 10 10 10 6 0 10 -4 10 -10z m-2707 -37 c8 -18 12 -33 8 -33 -9 0 -31
45 -31 62 0 15 4 10 23 -29z m2142 -12 c-3 -5 -1 -12 4 -16 6 -3 8 -12 4 -20
-9 -24 -18 -17 -19 15 -1 17 3 30 8 30 5 0 7 -4 3 -9z m545 -11 c0 -5 -7 -10
-16 -10 -8 0 -12 5 -9 10 3 6 10 10 16 10 5 0 9 -4 9 -10z m-2500 -29 c0 -14
-18 -23 -31 -15 -8 4 -7 9 2 15 18 11 29 11 29 0z m2427 3 c-3 -3 -12 -4 -19
-1 -8 3 -5 6 6 6 11 1 17 -2 13 -5z m-557 -25 c0 -6 -4 -7 -10 -4 -5 3 -10 11
-10 16 0 6 5 7 10 4 6 -3 10 -11 10 -16z m55 -3 c17 -17 7 -30 -12 -15 -13 12
-18 29 -7 29 3 0 12 -6 19 -14z m385 4 c0 -5 -4 -10 -10 -10 -5 0 -10 5 -10
10 0 6 5 10 10 10 6 0 10 -4 10 -10z m-2335 -10 c3 -5 -1 -10 -10 -10 -9 0
-13 5 -10 10 3 6 8 10 10 10 2 0 7 -4 10 -10z m-265 -9 c0 -10 -30 -24 -37
-17 -3 3 -2 9 2 15 8 13 35 15 35 2z m2566 -28 c-10 -10 -19 5 -10 18 6 11 8
11 12 0 2 -7 1 -15 -2 -18z m-2366 7 c0 -5 -5 -10 -11 -10 -5 0 -7 5 -4 10 3
6 8 10 11 10 2 0 4 -4 4 -10z m1970 -21 c0 -5 -4 -9 -10 -9 -5 0 -10 7 -10 16
0 8 5 12 10 9 6 -3 10 -10 10 -16z m-1980 -29 c-6 -12 -14 -19 -17 -17 -2 3 1
15 7 27 6 12 14 19 17 17 2 -3 -1 -15 -7 -27z m1914 15 c3 -8 1 -15 -4 -15 -6
0 -10 7 -10 15 0 8 2 15 4 15 2 0 6 -7 10 -15z m-1409 -5 c3 -5 1 -10 -4 -10
-6 0 -11 5 -11 10 0 6 2 10 4 10 3 0 8 -4 11 -10z m1365 0 c0 -5 -4 -10 -10
-10 -5 0 -10 5 -10 10 0 6 5 10 10 10 6 0 10 -4 10 -10z m-1838 -22 c-7 -7
-12 -8 -12 -2 0 14 12 26 19 19 2 -3 -1 -11 -7 -17z m1733 2 c3 -5 1 -10 -4
-10 -6 0 -11 5 -11 10 0 6 2 10 4 10 3 0 8 -4 11 -10z m-1406 -21 c-6 -12 -9
-30 -6 -40 3 -10 1 -19 -4 -19 -10 0 -12 40 -3 64 3 9 10 16 15 16 6 0 5 -9
-2 -21z m-289 4 c0 -8 -47 -33 -62 -33 -18 0 -6 17 20 27 34 14 42 15 42 6z
m1770 -3 c0 -5 -5 -10 -11 -10 -5 0 -7 5 -4 10 3 6 8 10 11 10 2 0 4 -4 4 -10z
m-1710 -17 c-1 -23 -18 -45 -53 -68 -15 -10 -26 -20 -23 -22 2 -3 16 3 30 13
32 20 50 9 21 -13 -16 -13 -17 -15 -2 -10 9 4 17 2 17 -3 0 -5 -8 -11 -19 -15
-10 -3 -38 -23 -61 -45 -42 -39 -60 -48 -60 -32 0 8 56 60 86 79 17 11 16 12
-10 6 -25 -5 -28 -3 -23 11 4 10 7 21 7 25 0 5 18 20 40 35 26 17 37 31 34 41
-4 8 -1 15 5 15 6 0 11 -8 11 -17z m-175 -3 c3 -5 1 -10 -4 -10 -6 0 -11 5
-11 10 0 6 2 10 4 10 3 0 8 -4 11 -10z m1815 0 c0 -5 -4 -10 -10 -10 -5 0 -10
5 -10 10 0 6 5 10 10 10 6 0 10 -4 10 -10z m-30 -10 c0 -5 -4 -10 -10 -10 -5
0 -10 5 -10 10 0 6 5 10 10 10 6 0 10 -4 10 -10z m-1690 -15 c-7 -9 -15 -13
-17 -11 -7 7 7 26 19 26 6 0 6 -6 -2 -15z m1730 -5 c0 -5 -7 -10 -15 -10 -8 0
-15 5 -15 10 0 6 7 10 15 10 8 0 15 -4 15 -10z m-1812 -30 c-1 -30 -11 -39
-23 -20 -8 13 3 50 15 50 5 0 8 -13 8 -30z m52 24 c0 -3 -5 -14 -10 -24 -7
-12 -7 -27 0 -45 8 -20 7 -27 -6 -32 -9 -3 -23 2 -32 11 -16 16 -16 18 2 32
11 8 16 14 12 14 -4 0 -4 6 1 13 4 6 8 15 9 20 1 4 2 9 3 12 1 7 21 6 21 -1z
m1645 -4 c3 -5 1 -10 -4 -10 -6 0 -11 5 -11 10 0 6 2 10 4 10 3 0 8 -4 11 -10z
m-105 -20 c0 -5 -5 -10 -11 -10 -5 0 -7 5 -4 10 3 6 8 10 11 10 2 0 4 -4 4
-10z m-1180 -30 c0 -11 -2 -20 -4 -20 -2 0 -6 9 -9 20 -3 11 -1 20 4 20 5 0 9
-9 9 -20z m1115 -10 c-3 -5 -10 -10 -16 -10 -5 0 -9 5 -9 10 0 6 7 10 16 10 8
0 12 -4 9 -10z m-15 -37 c0 -5 -9 -19 -20 -33 -16 -20 -20 -22 -20 -7 0 9 5
17 10 17 6 0 10 7 10 15 0 8 5 15 10 15 6 0 10 -3 10 -7z m-1330 -13 c0 -5
-10 -15 -22 -21 -13 -6 -33 -21 -45 -32 -31 -28 -40 -14 -13 20 25 32 80 55
80 33z m270 0 c0 -5 -4 -10 -10 -10 -5 0 -10 5 -10 10 0 6 5 10 10 10 6 0 10
-4 10 -10z m90 0 c0 -5 -4 -10 -10 -10 -5 0 -10 5 -10 10 0 6 5 10 10 10 6 0
10 -4 10 -10z m-377 -74 c-10 -14 -22 -26 -26 -26 -4 0 -19 -12 -33 -27 -13
-14 -28 -23 -32 -19 -4 4 18 29 48 56 59 52 73 57 43 16z m-90 -10 c4 -9 -3
-16 -20 -21 -33 -8 -42 1 -17 20 24 18 31 18 37 1z m62 -69 c-25 -19 -34 -47
-15 -47 6 0 10 3 10 8 0 12 49 31 56 21 3 -5 -6 -14 -20 -21 -35 -15 -33 -26
4 -20 18 3 30 0 30 -7 0 -14 -67 -15 -75 -1 -5 8 -11 7 -20 0 -17 -14 -31 -7
-38 20 -4 14 0 23 11 27 9 4 21 13 25 20 5 7 12 11 16 8 5 -2 11 5 15 18 5 18
8 20 16 7 7 -11 3 -20 -15 -33z m2055 33 c0 -5 -7 -10 -16 -10 -8 0 -12 5 -9
10 3 6 10 10 16 10 5 0 9 -4 9 -10z m-53 -45 c-4 -8 -1 -17 4 -21 6 -4 1 -11
-13 -19 -12 -6 -27 -8 -32 -4 -12 11 3 31 17 22 8 -5 8 -2 0 9 -14 16 -8 28
15 28 8 0 12 -6 9 -15z m-2177 -5 l25 -7 -27 -8 c-28 -7 -48 -1 -48 16 0 10
14 10 50 -1z m583 -40 c-5 -19 -23 -29 -23 -12 0 7 20 32 26 32 1 0 0 -9 -3
-20z m1837 10 c0 -5 -4 -10 -9 -10 -6 0 -13 5 -16 10 -3 6 1 10 9 10 9 0 16
-4 16 -10z m-2603 -20 c-1 -11 -5 -20 -9 -20 -10 0 -10 4 -2 24 8 22 13 20 11
-4z m2263 -21 c0 -4 -11 -6 -25 -6 -14 0 -25 3 -25 8 0 5 4 9 10 9 5 0 7 7 3
16 -5 14 -3 13 15 -2 12 -10 22 -21 22 -25z m-720 21 c0 -5 -4 -10 -10 -10 -5
0 -10 5 -10 10 0 6 5 10 10 10 6 0 10 -4 10 -10z m957 -7 c5 -13 -58 -28 -82
-19 -26 9 -17 25 18 29 46 6 60 4 64 -10z m-2267 -3 c0 -5 -5 -10 -11 -10 -5
0 -7 5 -4 10 3 6 8 10 11 10 2 0 4 -4 4 -10z m2120 -15 c7 -9 8 -15 2 -15 -5
0 -12 7 -16 15 -3 8 -4 15 -2 15 2 0 9 -7 16 -15z m-270 -17 c0 -13 -23 -5
-28 10 -2 7 2 10 12 6 9 -3 16 -11 16 -16z m-1750 -13 c11 -30 27 -33 32 -5 2
12 8 20 13 20 13 -2 7 -31 -8 -47 -16 -17 -50 -7 -66 19 -11 17 -10 22 1 29
18 12 17 12 28 -16z m98 13 c7 -7 12 -16 12 -20 0 -15 -15 -8 -28 12 -13 22
-3 27 16 8z m1532 -30 c-12 -11 -24 -18 -26 -15 -8 8 29 47 39 40 4 -3 -1 -14
-13 -25z m-1776 -9 c-8 -14 -21 -11 -21 5 0 8 6 12 14 9 7 -3 10 -9 7 -14z
m1959 -7 c9 -8 17 -20 17 -26 0 -6 -7 -3 -14 7 -7 9 -18 17 -23 17 -6 0 -16 7
-23 15 -11 13 -10 14 6 9 10 -4 27 -14 37 -22z m-1728 -29 c1 -16 5 -40 9 -55
5 -17 4 -28 -2 -28 -5 0 -12 10 -15 22 -4 12 -8 20 -11 17 -12 -11 8 -49 25
-49 21 0 34 -16 19 -25 -6 -4 -8 -16 -5 -26 4 -11 1 -26 -5 -34 -7 -8 -9 -26
-6 -40 5 -18 2 -25 -8 -25 -16 0 -35 68 -39 142 -1 26 -5 50 -9 53 -3 3 3 24
14 46 21 44 30 45 33 2z m1095 33 c0 -3 -4 -8 -10 -11 -5 -3 -10 -1 -10 4 0 6
5 11 10 11 6 0 10 -2 10 -4z m-54 -63 c-10 -10 -19 5 -10 18 6 11 8 11 12 0 2
-7 1 -15 -2 -18z m724 -20 c0 -8 -12 -13 -27 -13 -25 1 -26 2 -10 14 9 7 17
19 17 27 0 11 2 11 10 -1 5 -8 10 -21 10 -27z m-690 17 c0 -5 -5 -10 -11 -10
-5 0 -7 5 -4 10 3 6 8 10 11 10 2 0 4 -4 4 -10z m870 0 c0 -5 -5 -10 -11 -10
-5 0 -7 5 -4 10 3 6 8 10 11 10 2 0 4 -4 4 -10z m-340 -15 c0 -8 -4 -15 -10
-15 -5 0 -10 7 -10 15 0 8 5 15 10 15 6 0 10 -7 10 -15z m-137 -64 c10 -18 13
-32 8 -36 -8 -4 -51 66 -51 83 0 10 26 -19 43 -47z m367 39 c0 -5 -4 -10 -10
-10 -5 0 -10 5 -10 10 0 6 5 10 10 10 6 0 10 -4 10 -10z m40 6 c0 -3 -4 -8
-10 -11 -5 -3 -10 -1 -10 4 0 6 5 11 10 11 6 0 10 -2 10 -4z m-90 -27 c0 -5
-7 -9 -15 -9 -15 0 -20 12 -9 23 8 8 24 -1 24 -14z m-823 -11 c-3 -8 -6 -5 -6
6 -1 11 2 17 5 13 3 -3 4 -12 1 -19z m83 16 c0 -9 -32 -33 -44 -34 -5 0 -1 9
10 19 19 20 34 26 34 15z m-1365 -14 c4 -6 -5 -10 -20 -10 -15 0 -24 4 -20 10
3 6 12 10 20 10 8 0 17 -4 20 -10z m2000 -4 c8 -7 12 -16 9 -19 -10 -9 -34 4
-34 19 0 18 8 18 25 0z m-75 -6 c0 -5 -2 -10 -4 -10 -3 0 -8 5 -11 10 -3 6 -1
10 4 10 6 0 11 -4 11 -10z m20 -30 c0 -5 -4 -10 -10 -10 -5 0 -10 5 -10 10 0
6 5 10 10 10 6 0 10 -4 10 -10z m270 0 c0 -5 -2 -10 -4 -10 -3 0 -8 5 -11 10
-3 6 -1 10 4 10 6 0 11 -4 11 -10z m-130 -20 c0 -5 -5 -10 -11 -10 -5 0 -7 5
-4 10 3 6 8 10 11 10 2 0 4 -4 4 -10z m-590 -10 c0 -5 -4 -10 -10 -10 -5 0
-10 5 -10 10 0 6 5 10 10 10 6 0 10 -4 10 -10z m-210 -10 c0 -5 -4 -10 -10
-10 -5 0 -10 5 -10 10 0 6 5 10 10 10 6 0 10 -4 10 -10z m440 -5 c0 -8 -2 -15
-4 -15 -2 0 -6 7 -10 15 -3 8 -1 15 4 15 6 0 10 -7 10 -15z m190 11 c0 -11
-19 -15 -25 -6 -3 5 1 10 9 10 9 0 16 -2 16 -4z m20 -36 c0 -5 -4 -10 -10 -10
-5 0 -10 5 -10 10 0 6 5 10 10 10 6 0 10 -4 10 -10z m-710 -10 c0 -5 -4 -10
-9 -10 -6 0 -13 5 -16 10 -3 6 1 10 9 10 9 0 16 -4 16 -10z m520 0 c0 -5 -4
-10 -10 -10 -5 0 -10 5 -10 10 0 6 5 10 10 10 6 0 10 -4 10 -10z m220 0 c0 -5
-4 -10 -10 -10 -5 0 -10 5 -10 10 0 6 5 10 10 10 6 0 10 -4 10 -10z m-820 -30
c0 -5 -4 -10 -10 -10 -5 0 -10 5 -10 10 0 6 5 10 10 10 6 0 10 -4 10 -10z
m-1020 -20 c0 -13 -11 -13 -30 0 -12 8 -11 10 8 10 12 0 22 -4 22 -10z m410
-51 c0 -5 -4 -9 -10 -9 -5 0 -10 7 -10 16 0 8 5 12 10 9 6 -3 10 -10 10 -16z
m1326 6 c-4 -24 -16 -30 -16 -7 0 12 4 22 9 22 5 0 8 -7 7 -15z m-1672 -46
c-3 -5 -10 -7 -15 -3 -5 3 -7 10 -3 15 3 5 10 7 15 3 5 -3 7 -10 3 -15z m436
11 c0 -5 -7 -7 -15 -3 -9 3 -15 2 -13 -3 2 -5 0 -10 -4 -11 -5 -2 -8 -1 -8 2
0 3 0 10 0 15 0 6 9 10 20 10 11 0 20 -4 20 -10z m1236 -27 c-10 -10 -19 5
-10 18 6 11 8 11 12 0 2 -7 1 -15 -2 -18z m-1959 -15 c-3 -7 -5 -2 -5 12 0 14
2 19 5 13 2 -7 2 -19 0 -25z m413 -86 c0 -13 -12 -22 -22 -16 -10 6 -1 24 13
24 5 0 9 -4 9 -8z m990 -22 c0 -5 -5 -10 -11 -10 -5 0 -7 5 -4 10 3 6 8 10 11
10 2 0 4 -4 4 -10z m-500 -22 l21 -23 -23 -6 c-30 -8 -34 -3 -17 18 12 15 12
16 -3 10 -12 -4 -18 -2 -18 8 0 22 16 18 40 -7z m-96 -16 c5 -8 -28 -42 -41
-42 -3 0 -15 -7 -25 -17 -17 -15 -18 -15 -18 0 0 10 7 17 16 17 11 0 14 6 10
23 -3 12 -3 16 0 10 8 -18 24 -16 24 2 0 16 25 21 34 7z m-274 -22 c12 -8 11
-10 -7 -10 -13 0 -23 5 -23 10 0 13 11 13 30 0z m440 -10 c8 -5 12 -11 9 -14
-3 -3 -14 1 -25 9 -21 16 -8 20 16 5z m74 -42 c-3 -4 -14 -3 -25 2 -11 6 -17
15 -14 20 4 6 14 5 25 -2 10 -7 16 -16 14 -20z m-194 12 c0 -5 -5 -10 -11 -10
-5 0 -7 5 -4 10 3 6 8 10 11 10 2 0 4 -4 4 -10z m-154 -10 c19 -7 24 -14 17
-21 -7 -7 -21 -4 -44 10 -37 22 -20 29 27 11z m540 -16 c-30 -21 -45 -16 -16
6 14 10 27 16 30 13 3 -2 -4 -11 -14 -19z m-148 -2 c10 -10 17 -25 14 -33 -2
-9 2 -8 11 4 17 20 31 8 21 -17 -4 -12 0 -16 15 -16 12 0 21 -4 21 -10 0 -16
-20 -12 -53 12 -43 30 -52 40 -53 61 -2 22 2 21 24 -1z m-58 -2 c0 -5 -4 -10
-9 -10 -6 0 -13 5 -16 10 -3 6 1 10 9 10 9 0 16 -4 16 -10z m150 -35 c-7 -9
-15 -13 -17 -11 -7 7 7 26 19 26 6 0 6 -6 -2 -15z m2030 -441 c76 -8 118 -35
148 -94 l22 -44 0 -744 c0 -710 -1 -744 -19 -780 -26 -50 -62 -82 -103 -91
-18 -4 -622 -6 -1343 -6 l-1310 0 -37 23 c-21 13 -45 40 -57 66 -21 42 -21 54
-21 797 0 715 1 756 19 789 26 49 64 74 124 80 76 9 2506 12 2577 4z m227
-1694 c-5 -41 -13 -46 -37 -25 -20 18 -26 58 -14 89 11 28 54 -28 51 -64z m2
-227 c0 -29 -2 -33 -8 -18 -7 18 -4 55 5 55 2 0 4 -17 3 -37z m-69 -438 c0
-248 -1 -255 -20 -255 -19 0 -20 7 -20 230 l0 231 -67 -3 -68 -3 -5 -130 c-4
-107 -8 -130 -20 -130 -12 0 -15 23 -18 133 l-3 133 -62 -3 -62 -3 -5 -130
c-4 -107 -8 -130 -20 -130 -12 0 -15 23 -18 133 l-3 132 -69 0 -69 0 -3 -132
c-3 -110 -6 -133 -18 -133 -12 0 -15 23 -18 133 l-3 132 -63 0 -63 0 -7 -46
c-3 -26 -6 -130 -6 -231 0 -170 -1 -184 -17 -181 -16 3 -18 23 -21 231 l-2
227 -65 0 -65 0 0 -116 c0 -119 -9 -158 -35 -148 -12 5 -15 30 -15 135 l0 129
-65 0 -64 0 -3 -132 c-3 -110 -6 -133 -18 -133 -12 0 -15 23 -18 133 l-3 132
-69 0 -69 0 -3 -132 c-3 -110 -6 -133 -18 -133 -12 0 -15 23 -18 133 l-3 133
-67 -3 -67 -3 -3 -228 c-2 -210 -4 -228 -20 -225 -15 3 -17 24 -20 231 l-2
227 -65 0 -65 0 0 -129 c0 -129 -7 -158 -33 -132 -8 8 -13 56 -13 134 l-2 122
-66 3 -65 3 -3 -133 c-3 -117 -5 -133 -20 -136 -16 -3 -18 8 -18 132 l0 136
-65 0 -65 0 0 -130 c0 -111 -2 -132 -16 -137 -27 -10 -34 17 -34 145 l0 122
-65 0 -65 0 -2 -227 c-3 -220 -4 -228 -23 -228 -19 0 -20 8 -23 228 l-2 227
-65 0 -65 0 0 -129 c0 -101 -3 -130 -14 -134 -8 -3 -17 -3 -20 0 -3 4 -6 64
-6 135 l0 128 -70 0 -69 0 -3 -132 c-3 -110 -6 -133 -18 -133 -12 0 -15 23
-18 133 l-3 132 -64 0 -65 0 0 -124 c0 -96 -3 -126 -15 -136 -29 -24 -35 0
-35 131 l0 129 -65 0 -65 0 0 -370 0 -370 -25 0 -25 0 0 395 0 395 1440 0
1440 0 0 -255z m-3373 -347 c-3 -8 -6 -5 -6 6 -1 11 2 17 5 13 3 -3 4 -12 1
-19z m5 -52 c2 -19 0 -32 -4 -30 -8 5 -12 64 -4 64 2 0 6 -15 8 -34z m3433 14
c3 -5 1 -10 -4 -10 -6 0 -11 5 -11 10 0 6 2 10 4 10 3 0 8 -4 11 -10z m-11
-73 c-7 -26 -64 -87 -78 -86 -6 0 -5 3 2 6 6 2 12 11 12 19 0 9 4 13 9 9 5 -3
12 -1 16 5 3 5 -1 10 -10 10 -9 0 -13 5 -10 10 4 6 12 7 18 4 9 -5 9 -4 0 6
-18 20 -5 42 18 30 15 -9 17 -8 12 6 -4 12 -3 15 6 10 7 -5 9 -17 5 -29z
m-3340 -69 c-5 -7 -2 -9 8 -5 12 4 14 1 11 -14 -3 -11 0 -19 8 -19 7 0 10 -3
6 -6 -3 -3 -22 -1 -42 6 -31 10 -34 14 -23 28 10 12 10 14 1 8 -7 -4 -13 -2
-13 3 0 6 12 11 26 11 17 0 23 -4 18 -12z m61 -38 c3 -5 1 -10 -4 -10 -6 0
-11 5 -11 10 0 6 2 10 4 10 3 0 8 -4 11 -10z m2279 -613 c9 -15 7 -21 -8 -32
-16 -12 -128 -14 -695 -14 -372 1 -693 3 -714 6 -42 6 -56 25 -37 48 11 13
103 15 728 13 677 -3 715 -4 726 -21z"/>
<path d="M11120 12453 c-125 -3 -157 -7 -172 -20 -23 -21 -23 -55 0 -76 17
-15 67 -17 510 -17 l491 0 15 22 c21 29 20 51 -2 71 -16 15 -60 17 -353 20
-183 2 -404 2 -489 0z"/>
<path d="M11518 11933 c7 -3 16 -2 19 1 4 3 -2 6 -13 5 -11 0 -14 -3 -6 -6z"/>
<path d="M9740 11695 c-7 -9 -10 -18 -6 -22 3 -3 6 0 6 8 0 11 2 11 10 -1 8
-12 10 -11 10 8 0 26 -3 27 -20 7z"/>
<path d="M11720 11540 c0 -5 5 -10 11 -10 5 0 7 5 4 10 -3 6 -8 10 -11 10 -2
0 -4 -4 -4 -10z"/>
<path d="M10413 11359 c-44 -28 -41 -31 7 -11 22 9 40 20 40 25 0 12 -13 8
-47 -14z"/>
<path d="M10049 10774 c-23 -25 -23 -26 -2 -13 13 7 25 19 27 26 8 19 2 16
-25 -13z"/>
<path d="M10120 11169 c0 -5 5 -7 10 -4 6 3 10 8 10 11 0 2 -4 4 -10 4 -5 0
-10 -5 -10 -11z"/>
<path d="M11305 11066 c-27 -8 -92 -31 -143 -50 -51 -20 -123 -41 -160 -47
-182 -32 -359 -181 -396 -334 -4 -16 -13 -80 -21 -142 -13 -113 -9 -169 17
-216 26 -49 40 -131 47 -273 l7 -151 47 -66 c77 -108 187 -156 283 -123 26 9
63 26 82 39 56 37 149 171 218 314 106 219 144 244 450 293 133 21 203 71 261
183 19 39 27 72 31 129 4 69 2 83 -22 130 -35 71 -87 140 -130 173 -22 17 -74
37 -144 55 -61 16 -139 43 -174 61 -75 38 -172 48 -253 25z m303 -134 c109
-42 215 -139 238 -218 18 -62 12 -106 -23 -182 -37 -79 -89 -113 -213 -138
-139 -28 -165 -35 -206 -54 -71 -35 -141 -116 -205 -240 -30 -57 -168 -196
-214 -215 -41 -18 -128 -20 -157 -4 -35 19 -60 94 -73 224 -8 71 -24 155 -40
205 -33 104 -42 215 -25 304 15 81 68 160 137 204 53 33 78 41 233 72 58 12
146 30 195 40 50 11 108 21 130 24 69 7 173 -3 223 -22z m-413 -922 c-3 -5
-11 -10 -16 -10 -6 0 -7 5 -4 10 3 6 11 10 16 10 6 0 7 -4 4 -10z m-275 -220
c0 -5 -4 -10 -10 -10 -5 0 -10 5 -10 10 0 6 5 10 10 10 6 0 10 -4 10 -10z"/>
<path d="M11325 10923 c-11 -2 -49 -10 -85 -17 -392 -83 -372 -76 -441 -145
-72 -72 -94 -134 -93 -261 0 -66 7 -108 32 -190 19 -66 35 -147 42 -217 11
-123 14 -135 42 -175 17 -25 25 -28 79 -28 33 0 73 7 88 15 37 19 149 141 167
183 23 52 114 185 148 215 65 57 148 91 268 107 101 14 134 27 187 75 44 40
71 107 71 174 -1 105 -117 218 -265 257 -46 13 -194 17 -240 7z m45 -68 c0 -8
-4 -15 -10 -15 -5 0 -10 7 -10 15 0 8 5 15 10 15 6 0 10 -7 10 -15z m115 1 c7
3 16 1 20 -5 4 -7 -5 -11 -24 -11 -23 0 -31 5 -31 17 0 13 3 14 11 6 6 -6 17
-9 24 -7z m-45 -6 c0 -5 -2 -10 -4 -10 -3 0 -8 5 -11 10 -3 6 -1 10 4 10 6 0
11 -4 11 -10z m115 0 c-3 -5 -10 -10 -16 -10 -5 0 -9 5 -9 10 0 6 7 10 16 10
8 0 12 -4 9 -10z m105 -25 c0 -8 -4 -15 -10 -15 -5 0 -10 7 -10 15 0 8 5 15
10 15 6 0 10 -7 10 -15z m-456 -30 c-25 -19 -34 -19 -34 0 0 10 10 15 27 15
26 0 26 -1 7 -15z m186 5 c0 -5 -4 -10 -10 -10 -5 0 -10 5 -10 10 0 6 5 10 10
10 6 0 10 -4 10 -10z m140 6 c0 -3 -4 -8 -10 -11 -5 -3 -10 -1 -10 4 0 6 5 11
10 11 6 0 10 -2 10 -4z m60 -6 c0 -5 -4 -10 -10 -10 -5 0 -10 5 -10 10 0 6 5
10 10 10 6 0 10 -4 10 -10z m30 0 c0 -5 -4 -10 -10 -10 -5 0 -10 5 -10 10 0 6
5 10 10 10 6 0 10 -4 10 -10z m-176 -21 c-3 -5 -10 -7 -15 -3 -5 3 -7 10 -3
15 3 5 10 7 15 3 5 -3 7 -10 3 -15z m96 -9 c0 -5 -2 -10 -4 -10 -3 0 -8 5 -11
10 -3 6 -1 10 4 10 6 0 11 -4 11 -10z m70 6 c0 -3 -4 -8 -10 -11 -5 -3 -10 -1
-10 4 0 6 5 11 10 11 6 0 10 -2 10 -4z m-645 -26 c3 -6 -4 -10 -17 -10 -18 0
-20 2 -8 10 19 12 18 12 25 0z m65 0 c0 -5 -4 -10 -10 -10 -5 0 -10 5 -10 10
0 6 5 10 10 10 6 0 10 -4 10 -10z m490 -10 c0 -5 -2 -10 -4 -10 -3 0 -8 5 -11
10 -3 6 -1 10 4 10 6 0 11 -4 11 -10z m-615 -10 c3 -5 -3 -10 -15 -10 -12 0
-18 5 -15 10 3 6 10 10 15 10 5 0 12 -4 15 -10z m765 -4 c0 -3 -4 -8 -10 -11
-5 -3 -10 -1 -10 4 0 6 5 11 10 11 6 0 10 -2 10 -4z m100 -21 c0 -8 -4 -15
-10 -15 -5 0 -10 7 -10 15 0 8 5 15 10 15 6 0 10 -7 10 -15z m-954 -52 c-18
-33 -21 -17 -5 24 6 15 13 23 16 16 2 -6 -3 -24 -11 -40z m779 15 c-7 -17 -45
-13 -45 4 0 5 9 6 20 3 13 -4 20 -2 20 6 0 7 2 10 5 7 3 -3 3 -12 0 -20z m160
-8 c-3 -5 -13 -6 -21 -3 -12 4 -13 8 -3 14 15 9 32 2 24 -11z m-131 -25 c3 -8
1 -15 -3 -15 -5 0 -11 7 -15 15 -3 8 -1 15 3 15 5 0 11 -7 15 -15z m41 -1 c-9
-9 -18 -14 -21 -11 -9 9 6 27 22 27 13 0 13 -2 -1 -16z m-735 -4 c0 -5 -4 -10
-9 -10 -6 0 -13 5 -16 10 -3 6 1 10 9 10 9 0 16 -4 16 -10z m840 0 c0 -5 -4
-10 -10 -10 -5 0 -10 5 -10 10 0 6 5 10 10 10 6 0 10 -4 10 -10z m-967 -84
c-3 -4 -9 -2 -14 5 -13 22 -11 31 5 17 8 -7 12 -17 9 -22z m664 -2 c-3 -4 -14
-3 -24 0 -15 6 -15 8 -3 16 16 10 39 -4 27 -16z m33 16 c0 -5 -4 -10 -10 -10
-5 0 -10 5 -10 10 0 6 5 10 10 10 6 0 10 -4 10 -10z m-587 -14 c6 -15 -1 -26
-15 -26 -4 0 -8 9 -8 20 0 23 15 27 23 6z m637 10 c0 -11 -19 -15 -25 -6 -3 5
1 10 9 10 9 0 16 -2 16 -4z m70 -16 c0 -5 -5 -10 -11 -10 -5 0 -7 5 -4 10 3 6
8 10 11 10 2 0 4 -4 4 -10z m3 -46 c-4 -10 -9 -12 -15 -6 -12 12 -1 35 12 27
5 -3 6 -13 3 -21z m-196 -9 c-19 -19 -27 -19 -27 -1 0 8 8 16 18 18 24 6 27 1
9 -17z m228 15 c3 -5 1 -10 -4 -10 -6 0 -11 5 -11 10 0 6 2 10 4 10 3 0 8 -4
11 -10z m-275 -50 c-18 -12 -30 -13 -30 -2 0 4 10 9 22 9 18 2 20 0 8 -7z
m-526 -21 c-3 -5 -10 -7 -15 -3 -5 3 -7 10 -3 15 3 5 10 7 15 3 5 -3 7 -10 3
-15z m66 1 c0 -5 -2 -10 -4 -10 -3 0 -8 5 -11 10 -3 6 -1 10 4 10 6 0 11 -4
11 -10z m510 0 c0 -5 -4 -10 -10 -10 -5 0 -10 5 -10 10 0 6 5 10 10 10 6 0 10
-4 10 -10z m-114 -15 c-23 -17 -36 -19 -36 -6 0 5 8 12 18 14 32 9 37 6 18 -8z
m-376 -65 c0 -5 -4 -10 -10 -10 -5 0 -10 5 -10 10 0 6 5 10 10 10 6 0 10 -4
10 -10z m35 1 c3 -5 1 -12 -5 -16 -5 -3 -10 1 -10 9 0 18 6 21 15 7z m-111
-16 c3 -8 1 -15 -4 -15 -6 0 -10 7 -10 15 0 8 2 15 4 15 2 0 6 -7 10 -15z
m151 -15 c3 -5 1 -10 -4 -10 -6 0 -11 5 -11 10 0 6 2 10 4 10 3 0 8 -4 11 -10z
m-97 -42 c-2 -6 -10 -13 -16 -14 -7 -1 -8 0 -2 3 5 2 8 9 4 14 -3 5 0 9 6 9 7
0 10 -5 8 -12z m-58 -28 c0 -5 -5 -10 -11 -10 -5 0 -7 5 -4 10 3 6 8 10 11 10
2 0 4 -4 4 -10z m170 -40 c0 -5 -8 -10 -17 -10 -15 0 -16 2 -3 10 19 12 20 12
20 0z m-150 -10 c0 -5 -4 -10 -10 -10 -5 0 -10 5 -10 10 0 6 5 10 10 10 6 0
10 -4 10 -10z m-30 -204 c0 -6 -7 -2 -15 8 -8 11 -15 25 -15 30 0 6 7 2 15 -8
8 -11 15 -25 15 -30z m190 35 c0 -5 -7 -12 -16 -15 -14 -5 -15 -4 -4 9 14 17
20 19 20 6z m-160 -72 c0 -4 -7 -6 -15 -3 -8 4 -15 10 -15 15 0 4 7 6 15 3 8
-4 15 -10 15 -15z m110 -1 c0 -4 -9 -8 -20 -8 -11 0 -23 0 -27 -1 -4 0 -9 4
-11 9 -1 5 11 9 28 9 16 0 30 -4 30 -9z m-65 -36 c-6 -7 -34 11 -29 19 3 5 11
3 19 -4 7 -6 12 -13 10 -15z"/>
<path d="M10070 9859 c0 -5 5 -7 10 -4 6 3 10 8 10 11 0 2 -4 4 -10 4 -5 0
-10 -5 -10 -11z"/>
<path d="M10182 9585 c0 -16 2 -22 5 -12 2 9 2 23 0 30 -3 6 -5 -1 -5 -18z"/>
<path d="M10367 8530 c-15 -12 -31 -38 -37 -58 -14 -51 -14 -1423 0 -1474 6
-20 22 -46 37 -58 26 -20 27 -20 1344 -18 l1318 3 23 23 23 23 3 759 2 758
-24 29 -24 28 -1320 3 c-1318 2 -1319 2 -1345 -18z m701 -301 c60 -21 67 -45
67 -225 0 -244 0 -244 -280 -244 -279 0 -285 5 -285 245 0 233 2 234 276 235
112 0 204 -4 222 -11z m1815 -493 c3 -7 0 -19 -6 -25 -15 -15 -1503 -16 -1512
-1 -4 6 -4 17 -1 25 8 22 1511 22 1519 1z m-405 -318 l-3 -23 -549 -3 c-334
-1 -554 2 -559 7 -5 5 -7 17 -4 25 6 14 67 16 562 16 l556 0 -3 -22z m178 -99
c9 -7 28 -5 62 7 42 15 56 16 90 6 52 -16 98 -62 113 -113 24 -78 -23 -154
-113 -181 -34 -10 -48 -9 -88 5 -44 16 -51 16 -85 1 -127 -53 -258 103 -182
217 31 48 101 82 152 74 21 -3 45 -10 51 -16z"/>
<path d="M10767 8173 c-8 -10 -17 -34 -19 -53 l-3 -35 -68 -3 c-91 -4 -87 -26
6 -30 l67 -3 0 -49 0 -49 -67 -3 c-93 -4 -97 -26 -6 -30 l68 -3 3 -36 c3 -36
35 -79 49 -66 3 4 1 18 -6 31 -9 16 -12 68 -9 185 1 88 3 161 2 161 0 0 -8 -8
-17 -17z"/>
<path d="M10938 7970 c-2 -69 -8 -114 -16 -122 -6 -6 -12 -18 -12 -25 0 -11 5
-11 20 -3 12 6 25 30 32 55 l12 45 64 0 c46 0 63 3 60 13 -3 7 -28 13 -66 15
l-62 3 0 49 0 49 62 3 c38 2 63 8 66 16 3 9 -17 12 -76 12 l-80 0 -4 -110z"/>
<path d="M12524 7282 c-65 -42 -70 -127 -8 -181 35 -32 83 -41 113 -22 12 8
13 14 3 36 -15 33 -15 89 0 132 14 39 11 43 -39 49 -27 4 -47 -1 -69 -14z"/>
<path d="M12722 7284 c-19 -13 -20 -19 -11 -36 7 -13 9 -49 7 -90 -5 -65 -4
-70 18 -80 48 -22 111 8 143 69 46 89 -75 195 -157 137z"/>
<path d="M12666 7214 c-9 -24 -7 -62 4 -69 6 -4 10 12 10 39 0 48 -4 56 -14
30z"/>
<path d="M13183 6925 c0 -8 4 -12 9 -9 5 3 6 10 3 15 -9 13 -12 11 -12 -6z"/>
<path d="M8661 10631 c-12 -8 -10 -19 12 -69 15 -33 36 -95 47 -137 19 -76 19
-77 0 -193 -40 -236 -114 -435 -178 -478 -17 -12 -62 -30 -99 -39 -37 -10 -73
-22 -80 -28 -7 -5 -26 -46 -44 -90 -55 -143 -84 -200 -187 -364 -138 -220
-160 -267 -237 -507 -70 -220 -126 -359 -244 -614 -104 -224 -295 -603 -396
-787 -241 -439 -257 -493 -285 -970 -23 -387 -97 -1212 -171 -1888 -43 -399
-62 -496 -139 -721 -81 -235 -164 -372 -520 -866 -276 -382 -384 -537 -540
-783 -402 -631 -578 -882 -1266 -1802 -115 -154 -210 -283 -212 -287 -2 -5
986 -8 2196 -8 l2200 0 97 168 c264 453 475 733 771 1022 213 207 304 278 631
492 416 271 516 348 739 572 196 196 246 254 651 742 72 87 189 221 260 296
426 457 711 752 802 831 180 155 404 314 656 465 77 46 129 81 115 76 -14 -4
-163 -9 -333 -11 l-307 -4 6 -27 c4 -15 13 -44 21 -66 15 -45 17 -76 3 -76 -5
0 -21 38 -35 85 l-26 85 -555 0 c-305 0 -554 -3 -554 -6 0 -4 47 -72 104 -153
57 -80 133 -191 169 -246 74 -113 197 -334 197 -352 0 -31 -22 -8 -55 56 -67
134 -209 356 -373 584 l-84 117 -407 -2 c-400 -3 -406 -3 -403 -23 2 -11 48
-139 102 -285 140 -377 186 -528 167 -546 -12 -12 -17 0 -42 96 -14 50 -75
225 -135 388 -61 164 -116 313 -123 332 l-13 35 -439 5 c-422 5 -442 6 -498
27 -32 12 -79 33 -104 48 -25 14 -47 24 -48 23 -1 -2 -7 -91 -14 -199 -27
-456 -90 -688 -263 -976 -45 -76 -68 -100 -68 -72 0 5 25 53 56 105 106 181
164 336 203 544 24 129 29 174 45 420 l14 195 -77 80 c-125 132 -182 252 -201
420 -5 44 -8 508 -6 1030 2 523 1 1078 -2 1235 l-5 285 -109 -111 c-70 -71
-133 -125 -175 -150 -36 -21 -74 -52 -85 -69 -33 -53 -58 -153 -58 -230 0 -83
7 -96 137 -244 40 -46 73 -87 73 -92 0 -29 -30 -5 -111 91 -51 60 -94 108 -96
107 -1 -2 6 -88 17 -192 19 -182 17 -226 -9 -200 -16 17 -63 455 -59 558 l3
96 -30 -20 c-93 -62 -275 -111 -276 -74 0 5 33 17 73 27 93 23 184 68 224 110
33 35 66 137 120 368 34 147 73 294 135 498 27 90 49 171 49 180 0 14 -11 17
-59 19 -61 2 -240 39 -254 53 -21 19 21 20 101 1 79 -18 152 -26 208 -22 17 1
28 19 58 96 167 438 210 639 210 995 -1 341 -35 543 -126 730 -90 186 -219
289 -372 297 -39 2 -77 0 -85 -6z m-468 -1643 c36 -29 47 -48 27 -48 -8 0
-141 84 -169 106 -1 1 0 8 4 14 7 12 74 -23 138 -72z m-158 -202 c30 -14 55
-30 55 -35 0 -15 -7 -14 -77 11 -35 12 -63 28 -63 35 0 19 22 16 85 -11z m365
-2058 c0 -22 -175 -184 -260 -240 -137 -91 -511 -278 -555 -278 -35 0 -9 19
73 54 136 59 365 180 461 243 47 31 127 97 176 145 90 87 105 98 105 76z
m1425 -2235 c-17 -144 -74 -355 -150 -558 -54 -144 -156 -355 -172 -355 -7 0
-13 2 -13 4 0 1 22 50 49 108 128 270 225 568 253 771 8 63 15 87 26 87 12 0
13 -11 7 -57z m-2567 -1210 c77 -65 221 -162 302 -203 171 -86 406 -139 743
-166 53 -4 77 -10 74 -17 -9 -27 -347 5 -527 49 -163 41 -328 112 -455 197
-76 51 -225 175 -225 188 0 20 24 7 88 -48z m212 -574 c55 -42 199 -128 393
-232 331 -180 387 -226 897 -753 92 -95 203 -199 252 -235 77 -57 106 -89 79
-89 -25 0 -234 181 -356 308 -359 376 -547 551 -680 634 -22 14 -114 64 -205
113 -91 48 -192 103 -225 123 -98 58 -226 153 -219 163 6 11 15 6 64 -32z
m-283 -184 c32 -28 194 -155 360 -283 165 -127 343 -269 394 -315 92 -82 253
-250 419 -437 189 -214 347 -361 468 -439 28 -18 52 -39 52 -47 0 -22 -12 -17
-76 27 -155 109 -272 222 -511 494 -246 281 -409 430 -758 695 -326 247 -469
366 -459 381 6 10 20 1 111 -76z m333 -696 c0 -21 -876 -1539 -906 -1569 -47
-47 11 63 234 448 137 235 313 540 392 677 78 138 157 275 175 305 17 30 44
76 59 103 25 44 46 61 46 36z"/>
<path d="M8576 10587 c-23 -35 -62 -154 -85 -260 -17 -78 -76 -421 -94 -550
l-6 -38 32 7 c111 24 145 62 196 221 47 148 65 247 65 358 0 90 -3 108 -32
182 -40 99 -54 114 -76 80z"/>
<path d="M13965 10530 c-49 -10 -118 -27 -152 -36 l-63 -17 0 -554 0 -553 70
35 c173 87 307 184 464 335 165 160 226 263 247 419 23 169 -43 285 -201 359
-76 35 -235 40 -365 12z"/>
<path d="M13835 9085 c-5 -2 -27 -6 -47 -10 -35 -5 -38 -8 -38 -41 l0 -35 30
22 c16 13 33 20 36 16 3 -3 -10 -32 -29 -64 -109 -182 -164 -338 -174 -493
-11 -178 27 -307 118 -405 96 -102 206 -142 364 -132 154 9 232 65 274 199 12
40 41 123 63 183 87 240 50 432 -117 601 -80 81 -161 126 -270 149 -63 13
-184 19 -210 10z m373 -276 c24 -12 70 -46 102 -75 66 -62 94 -118 116 -235
14 -71 14 -85 -1 -141 -8 -34 -18 -64 -20 -66 -12 -13 -33 11 -40 45 -3 21
-25 76 -48 123 -53 110 -142 203 -239 249 -74 35 -82 43 -74 69 17 52 126 68
204 31z"/>
<path d="M14085 8793 c-50 -13 -47 -26 15 -55 110 -53 221 -179 270 -308 22
-58 33 -60 25 -5 -10 77 -36 176 -56 216 -23 47 -89 105 -153 135 -51 24 -64
26 -101 17z"/>
<path d="M9112 8628 c-83 -212 -307 -1026 -288 -1045 7 -7 231 214 291 287
l55 68 0 411 c-1 226 -2 411 -3 411 -1 0 -26 -60 -55 -132z"/>
<path d="M13885 7644 c-11 -3 -46 -12 -77 -21 l-58 -16 0 -40 c0 -39 0 -39 23
-23 37 27 86 50 93 43 4 -3 -23 -39 -58 -79 -252 -283 -316 -380 -338 -510
-34 -197 25 -366 159 -460 142 -99 332 -112 469 -32 100 59 318 298 372 409
66 133 65 284 -1 434 -45 102 -150 202 -263 250 -89 39 -245 60 -321 45z m230
-388 c55 -23 104 -65 133 -115 24 -42 27 -55 27 -146 0 -93 -2 -105 -32 -165
-18 -36 -55 -96 -83 -133 -60 -81 -81 -85 -92 -17 -24 145 -102 269 -243 388
-82 70 -86 75 -72 95 17 26 59 52 136 83 66 28 173 32 226 10z"/>
<path d="M13920 7224 c-53 -16 -122 -55 -127 -70 -2 -6 31 -39 73 -74 124
-103 186 -195 224 -335 l17 -59 36 49 c21 28 52 79 70 115 28 57 32 74 32 145
-1 88 -19 137 -72 187 -59 57 -157 73 -253 42z"/>
<path d="M13813 6071 c-201 -55 -304 -155 -334 -326 -35 -203 49 -361 241
-453 103 -48 147 -59 274 -68 81 -6 96 -10 94 -23 -8 -41 -133 -52 -253 -21
-94 24 -95 24 -95 5 0 -33 -43 -143 -81 -207 -21 -36 -62 -92 -91 -124 -29
-32 -48 -55 -43 -52 6 3 40 24 78 47 37 22 73 41 80 41 18 0 212 113 327 189
118 79 287 245 324 318 37 75 56 156 56 243 0 190 -82 325 -246 406 -69 34
-85 38 -168 41 -66 2 -110 -2 -163 -16z m156 -112 c73 -15 135 -59 171 -121
28 -48 31 -60 28 -125 -3 -63 -7 -76 -34 -110 -17 -21 -48 -48 -70 -60 -51
-29 -132 -47 -149 -33 -8 7 -14 49 -17 118 -6 132 -25 182 -103 257 -30 30
-55 59 -55 64 0 19 156 26 229 10z"/>
<path d="M13815 5931 c-19 -8 -19 -8 1 -19 34 -18 92 -113 109 -177 8 -32 15
-90 15 -127 0 -37 4 -68 8 -68 5 0 31 7 58 15 107 31 161 140 120 239 -21 49
-72 102 -116 120 -47 19 -166 29 -195 17z"/>
</g>
</svg>
