<?xml version="1.0" standalone="no"?>
<!DOCTYPE svg PUBLIC "-//W3C//DTD SVG 20010904//EN"
 "http://www.w3.org/TR/2001/REC-SVG-20010904/DTD/svg10.dtd">
<svg version="1.0" xmlns="http://www.w3.org/2000/svg"
 width="2220.000000pt" height="1920.000000pt" viewBox="0 0 2220.000000 1920.000000"
 preserveAspectRatio="xMidYMid meet">

<defs>
<filter id="invertAlpha"><feComponentTransfer><feFuncA type="table" tableValues="1 0"/></feComponentTransfer></filter>
</defs>

<g transform="translate(0.000000,1920.000000) scale(0.100000,-0.100000)"
fill="white" stroke="none" filter="url(#invertAlpha)">
<path d="M0 9600 l0 -9600 2018 0 2017 0 26 33 c63 79 676 911 871 1184 250
347 313 440 553 818 179 281 370 563 540 795 129 177 342 479 409 583 115 176
215 448 260 709 39 221 161 1494 206 2143 20 290 41 477 65 569 31 125 86 244
272 592 141 263 259 500 410 824 67 143 115 268 172 447 92 289 109 325 330
680 88 142 191 417 216 578 84 541 123 668 223 719 170 86 411 -5 547 -207
l35 -52 1 60 c0 33 1 470 2 970 l2 910 34 99 c84 241 253 399 486 453 76 17
165 18 1795 18 l1715 0 80 -28 c231 -82 372 -234 453 -492 14 -44 16 -163 19
-952 2 -497 7 -903 11 -903 4 0 61 14 127 31 166 43 306 50 402 20 187 -56
303 -202 305 -380 0 -104 -8 -143 -52 -238 -47 -101 -79 -148 -164 -240 -126
-136 -368 -315 -549 -408 l-77 -38 0 -76 0 -76 153 0 c134 0 160 -3 220 -24
171 -58 318 -206 377 -375 30 -89 43 -203 30 -283 -12 -72 -104 -352 -139
-420 -84 -165 -350 -222 -570 -122 -35 16 -65 29 -67 29 -2 0 -4 -61 -4 -135
0 -74 3 -135 8 -135 4 0 32 7 62 15 85 24 231 21 315 -5 212 -67 340 -184 407
-373 65 -184 43 -348 -71 -516 -55 -80 -269 -301 -331 -341 -100 -64 -220 -88
-328 -66 l-62 13 0 -140 c0 -123 2 -138 16 -133 8 3 56 11 105 16 115 13 201
0 296 -45 180 -84 286 -261 286 -475 -1 -115 -23 -191 -89 -296 -115 -187
-417 -402 -867 -618 -278 -133 -531 -289 -805 -495 -189 -142 -251 -202 -693
-671 -419 -444 -472 -504 -669 -750 -267 -333 -609 -692 -810 -850 -121 -94
-369 -263 -595 -405 -191 -120 -360 -261 -570 -476 -182 -186 -288 -318 -444
-549 -131 -194 -311 -492 -311 -514 0 -3 3058 -6 6795 -6 l6795 0 0 9600 0
9600 -11100 0 -11100 0 0 -9600z m9909 8388 c11 -11 12 -10 6 1 -7 12 1 13 45
7 83 -11 146 -50 176 -108 13 -25 13 -27 -3 -21 -15 6 -16 4 -5 -9 11 -14 10
-17 -7 -23 -12 -3 -21 -14 -21 -23 -1 -10 -10 -1 -20 20 -31 58 -82 91 -148
96 -47 3 -63 0 -92 -20 -19 -13 -43 -40 -53 -61 -17 -33 -23 -37 -58 -37 -44
0 -46 5 -23 58 13 31 17 34 23 18 7 -17 9 -17 37 9 16 14 22 24 14 20 -8 -4
-4 3 10 14 16 13 33 18 45 14 17 -5 16 -2 -5 17 -17 16 -19 21 -7 17 9 -4 17
-2 17 3 0 5 9 7 20 5 11 -2 18 0 15 6 -9 13 19 11 34 -3z m691 -23 c-9 -11
-10 -15 -1 -15 7 0 19 -7 27 -15 13 -12 10 -15 -21 -21 l-35 -6 0 -96 c0 -98
-9 -126 -11 -34 -1 28 -6 49 -10 46 -5 -3 -7 -9 -4 -14 7 -12 -12 -23 -26 -14
-8 5 -8 9 1 14 10 6 9 12 -2 29 -8 11 -18 18 -21 14 -4 -3 -7 7 -7 24 0 28 -3
31 -37 35 -21 3 -62 5 -91 4 l-52 -1 0 33 0 32 151 0 c134 0 150 -2 139 -15z
m927 -22 c-3 -10 -5 -4 -5 12 0 17 2 24 5 18 2 -7 2 -21 0 -30z m33 28 c0 -6
-4 -12 -8 -15 -5 -3 -9 1 -9 9 0 8 4 15 9 15 4 0 8 -4 8 -9z m363 2 c-7 -2
-19 -2 -25 0 -7 3 -2 5 12 5 14 0 19 -2 13 -5z m44 -15 c-3 -8 -6 -5 -6 6 -1
11 2 17 5 13 3 -3 4 -12 1 -19z m693 12 c0 -5 -2 -10 -4 -10 -3 0 -8 5 -11 10
-3 6 -1 10 4 10 6 0 11 -4 11 -10z m59 -82 c-1 -51 -4 -83 -6 -72 -2 12 -13
24 -25 27 -11 3 -17 10 -13 16 11 19 -4 32 -25 21 -16 -8 -18 -7 -14 4 3 8 14
13 25 11 10 -2 19 0 19 6 0 5 7 9 15 9 8 0 15 8 15 18 0 15 -2 15 -11 2 -9
-13 -10 -13 -5 0 3 8 9 23 12 33 12 32 14 17 13 -75z m-1624 26 c17 0 38 -4
48 -9 10 -4 17 -4 15 1 -2 5 1 10 6 11 5 1 12 6 15 12 4 5 21 -31 39 -82 17
-51 25 -84 17 -73 -13 17 -15 17 -33 -13 l-19 -31 -27 85 c-15 47 -32 85 -36
85 -5 0 -18 -30 -30 -67 -12 -38 -26 -75 -32 -83 -8 -12 -9 -12 -4 3 3 9 1 17
-5 17 -6 0 -7 5 -3 12 5 8 2 9 -9 5 -20 -7 -22 4 -5 21 9 9 8 12 -4 12 -11 0
-15 6 -11 20 3 11 10 17 16 13 6 -3 7 -1 3 6 -4 6 -1 27 6 47 7 20 15 29 18
22 3 -7 19 -13 35 -14z m1575 16 c0 -5 -2 -10 -4 -10 -3 0 -8 5 -11 10 -3 6
-1 10 4 10 6 0 11 -4 11 -10z m-703 -25 c0 -8 -4 -15 -9 -15 -10 0 -11 14 -1
23 9 10 10 9 10 -8z m-369 -222 c-1 -104 -4 -155 -5 -115 -3 53 -7 72 -18 72
-8 0 -19 -8 -24 -17 -6 -10 -11 -13 -12 -8 -1 6 -5 -3 -9 -20 -5 -20 -8 4 -9
73 -1 104 4 122 39 130 19 5 30 22 30 50 0 12 2 22 5 22 3 0 4 -84 3 -187z
m1059 155 c-3 -8 -6 -5 -6 6 -1 11 2 17 5 13 3 -3 4 -12 1 -19z m-155 -127
c-3 -9 -1 -12 6 -7 21 13 13 -9 -18 -44 -37 -44 -37 -50 -2 -50 19 0 23 -3 13
-9 -8 -5 -10 -14 -5 -22 6 -11 5 -12 -7 -2 -9 7 -27 9 -49 4 -19 -4 -30 -10
-24 -14 14 -8 257 -3 272 7 7 4 12 2 12 -6 0 -10 3 -9 11 2 8 11 12 12 16 3 2
-7 16 -13 29 -13 36 0 33 37 -3 43 -26 4 -26 4 5 6 29 1 32 -2 32 -29 0 -28
-3 -30 -35 -30 l-35 0 0 -72 c-1 -55 -3 -69 -11 -55 -12 20 -45 23 -52 5 -3
-7 -6 17 -6 55 l-1 67 -125 0 -125 0 0 41 c0 52 74 166 95 146 7 -7 10 -18 7
-26z m-1545 -65 c-3 -8 -3 -17 1 -21 14 -13 6 -51 -15 -71 -12 -12 -19 -25
-15 -30 4 -4 1 -4 -5 0 -8 4 -13 1 -13 -8 0 -8 -4 -17 -10 -21 -10 -6 -1 25
39 138 6 15 13 27 17 27 3 0 4 -6 1 -14z m371 -109 c51 -141 51 -129 2 -125
l-43 3 -27 80 c-24 72 -29 80 -56 85 -16 3 -24 8 -19 11 6 4 19 3 30 -1 18 -6
30 -1 58 27 7 7 14 12 17 13 3 0 20 -42 38 -93z m-1551 23 c12 -22 18 -40 13
-40 -5 0 -11 6 -13 13 -4 8 -8 8 -14 2 -12 -15 -36 -18 -27 -4 5 9 1 10 -14 7
-16 -5 -23 1 -31 25 -6 16 -11 32 -11 33 0 2 17 4 38 4 33 0 39 -5 59 -40z
m790 -22 c-2 -13 -4 -3 -4 22 0 25 2 35 4 23 2 -13 2 -33 0 -45z m1400 -30
c-2 -13 -4 -5 -4 17 -1 22 1 32 4 23 2 -10 2 -28 0 -40z m-1470 0 c-3 -8 -6
-5 -6 6 -1 11 2 17 5 13 3 -3 4 -12 1 -19z m-601 -34 c25 -3 57 -1 79 6 44 14
53 8 35 -24 -8 -15 -19 -23 -29 -19 -13 4 -12 1 3 -11 17 -14 14 -15 -37 -13
-47 2 -54 4 -47 18 8 14 3 16 -36 14 -30 -2 -50 2 -62 14 -10 9 -12 12 -5 7
13 -8 18 3 14 32 -2 10 3 10 21 -2 13 -8 42 -18 64 -22z m1067 -3 c-4 -15 -8
-19 -13 -10 -5 6 -3 18 3 24 16 17 17 14 10 -14z m-22 -54 c-10 -9 -11 -8 -5
6 3 10 9 15 12 12 3 -3 0 -11 -7 -18z m-1064 -3 c-3 -3 -12 -4 -19 -1 -8 3 -5
6 6 6 11 1 17 -2 13 -5z m-739 -1083 l2 -294 141 224 c78 123 162 257 187 297
l45 72 53 0 54 0 0 -370 0 -370 -50 0 -50 0 -2 286 -3 286 -180 -286 -180
-285 -57 -1 -58 0 0 371 0 370 48 -3 47 -3 3 -294z m942 92 c58 -23 96 -72
114 -145 6 -28 6 -28 -43 -28 -46 0 -50 2 -56 29 -10 46 -47 74 -108 79 -49 4
-57 1 -90 -27 -45 -40 -60 -86 -61 -182 0 -135 59 -209 157 -196 47 6 94 47
105 92 7 26 13 30 46 33 21 2 43 -1 47 -5 5 -5 2 -30 -7 -57 -67 -196 -350
-195 -424 0 -28 75 -28 203 0 278 26 69 92 132 147 141 21 4 43 8 48 10 17 5
88 -7 125 -22z m1055 -2 c182 -84 193 -423 17 -519 -53 -30 -145 -39 -206 -22
-62 17 -118 68 -146 132 -28 63 -33 185 -11 260 17 59 72 125 125 149 55 25
167 25 221 0z m-425 -31 l0 -39 -92 -3 -93 -3 -3 -227 -2 -228 -45 0 -45 0 0
230 0 230 -90 0 -90 0 0 40 0 40 230 0 230 0 0 -40z m750 -64 c0 -94 2 -108
23 -131 18 -21 34 -27 82 -32 33 -3 76 -1 95 4 l35 9 5 125 5 124 48 3 47 3 0
-270 0 -271 -50 0 -50 0 0 104 0 103 -52 -9 c-62 -10 -161 -2 -197 17 -69 35
-91 90 -91 226 l0 99 50 0 50 0 0 -104z m570 -6 l0 -110 125 0 125 0 0 110 0
110 45 0 45 0 0 -270 0 -270 -45 0 -45 0 0 120 0 120 -125 0 -125 0 0 -120 0
-120 -50 0 -50 0 0 263 c0 145 3 267 7 270 3 4 26 7 50 7 l43 0 0 -110z m572
-97 l3 -207 131 205 131 204 52 3 51 3 0 -270 0 -271 -45 0 -45 0 -2 202 -3
203 -76 -120 c-42 -66 -98 -157 -125 -202 l-49 -82 -57 -1 -58 0 0 270 0 270
45 0 45 0 2 -207z m599 125 c1 -46 0 -100 -1 -120 -1 -22 3 -38 9 -38 14 0 69
49 172 156 l83 84 58 0 c32 0 58 -3 58 -7 0 -5 -52 -59 -114 -122 l-114 -115
105 -130 c59 -72 113 -139 121 -148 14 -17 11 -18 -46 -18 l-61 0 -97 120
c-58 72 -101 117 -108 113 -66 -38 -67 -40 -66 -127 1 -44 1 -87 1 -93 -1 -9
-17 -13 -46 -13 l-45 0 0 270 0 270 45 0 45 0 1 -82z m7914 -14816 c63 -175
203 -314 378 -377 34 -13 62 -28 62 -35 0 -7 -28 -22 -62 -35 -176 -63 -315
-202 -378 -378 -13 -34 -28 -62 -35 -62 -7 0 -22 28 -35 62 -63 176 -202 315
-378 378 -34 13 -62 28 -62 35 0 7 28 22 62 35 88 32 165 81 230 146 82 84
119 146 168 287 9 26 28 5 50 -56z"/>
<path d="M12416 17624 c-5 -14 -4 -15 9 -4 17 14 19 20 6 20 -5 0 -12 -7 -15
-16z"/>
<path d="M10964 16351 c-32 -14 -72 -68 -85 -114 -15 -57 -6 -168 17 -208 31
-53 68 -74 129 -74 91 0 143 60 152 178 7 80 -10 140 -51 184 -29 32 -40 37
-87 39 -30 2 -63 0 -75 -5z"/>
<path d="M9778 12850 c-244 -29 -422 -178 -506 -425 l-27 -80 -3 -1043 c-2
-1018 -2 -1045 18 -1127 87 -362 89 -733 5 -1102 l-25 -112 0 -1778 c0 -978 4
-1830 9 -1893 10 -128 28 -185 89 -288 71 -119 166 -197 307 -255 l80 -32
1718 -3 c1549 -2 1724 -1 1780 14 210 54 380 217 441 423 9 30 16 62 16 71 0
9 -29 35 -66 59 -73 48 -135 120 -172 200 -20 43 -26 76 -30 152 -4 86 -1 109
22 183 16 53 40 103 65 136 38 50 122 121 169 143 21 10 22 14 22 173 l0 162
-52 30 c-106 60 -201 190 -227 310 -15 72 -14 183 4 265 23 111 73 200 179
321 l96 110 0 277 0 276 -44 66 c-138 205 -133 487 14 778 l30 59 -3 1708 c-2
1609 -4 1710 -21 1767 -72 241 -239 403 -464 451 -56 11 -330 13 -1712 13
-905 -1 -1675 -5 -1712 -9z m2174 -350 c79 -22 104 -111 49 -172 l-29 -33
-491 -3 c-542 -3 -545 -3 -576 58 -21 41 -13 89 21 121 l26 24 331 5 c183 3
400 7 482 8 83 1 167 -3 187 -8z m-1037 -705 c4 -68 6 -256 4 -417 -2 -161 -2
-377 -1 -480 l2 -188 370 0 370 0 0 605 0 605 24 0 c13 0 27 -7 30 -16 3 -9 6
-281 6 -605 l0 -589 28 0 c47 0 101 -20 117 -43 12 -17 15 -52 15 -160 0 -136
0 -138 -26 -162 -22 -20 -37 -25 -80 -25 l-54 0 0 -355 0 -355 230 0 230 0 0
45 c0 55 21 110 48 124 12 6 76 11 147 11 127 0 127 0 156 -29 27 -27 29 -35
29 -105 l0 -76 300 0 300 0 0 -23 c0 -24 -1 -24 -152 -30 -83 -4 -218 -7 -300
-7 l-148 0 0 -345 0 -345 298 -2 297 -3 3 -27 3 -28 -300 0 -301 0 0 -71 c0
-65 -2 -73 -29 -100 l-29 -29 -131 0 c-122 0 -132 1 -157 23 -23 20 -28 34
-32 86 l-4 61 -222 -2 -221 -3 0 -415 0 -415 35 -3 c104 -8 120 -33 120 -192
0 -72 -5 -124 -13 -140 -27 -55 -27 -55 -595 -55 l-524 0 -30 34 -30 33 4 134
c4 159 12 175 101 184 l52 5 3 1208 2 1207 -51 0 c-43 0 -55 5 -80 29 l-29 29
0 132 c0 132 0 132 29 160 21 21 42 31 80 36 l51 7 0 603 0 604 24 0 c24 0 24
-2 31 -125z m491 -4735 c111 -204 128 -248 128 -335 1 -143 -92 -235 -237
-235 -60 0 -104 18 -155 65 -57 50 -76 106 -70 197 5 67 12 86 94 247 97 190
119 224 141 219 8 -2 52 -73 99 -158z m789 -1990 l0 -25 -723 -3 c-636 -2
-723 0 -728 13 -4 8 -4 22 0 30 5 13 92 15 728 13 l723 -3 0 -25z"/>
<path d="M10980 12453 c-40 -14 -53 -69 -22 -96 17 -15 66 -17 501 -17 313 0
489 4 502 10 13 7 19 21 19 45 0 66 11 65 -515 64 -258 0 -477 -3 -485 -6z"/>
<path d="M10770 10631 c-16 -31 -13 -227 4 -244 13 -12 92 -14 521 -13 489 1
507 2 521 20 21 29 20 219 -2 240 -14 14 -75 16 -524 16 -493 0 -510 -1 -520
-19z"/>
<path d="M10920 9110 l0 -1210 378 2 377 3 3 439 c1 242 4 441 6 443 2 2 114
5 250 6 l246 2 0 378 0 377 -255 0 -255 0 0 138 c0 75 -3 248 -7 385 l-6 247
-369 0 -368 0 0 -1210z"/>
<path d="M12259 9722 c-18 -13 -19 -36 -19 -541 0 -396 3 -530 12 -539 8 -8
50 -12 125 -12 109 0 114 1 122 23 4 12 7 256 5 542 -4 472 -6 521 -21 532
-22 17 -199 13 -224 -5z"/>
<path d="M10778 7839 c-16 -9 -18 -26 -18 -129 0 -108 2 -120 19 -130 13 -6
194 -10 519 -10 471 0 500 1 515 18 14 15 17 40 17 130 0 100 -2 112 -19 122
-27 14 -1009 13 -1033 -1z"/>
<path d="M11218 6972 c-45 -87 -80 -168 -86 -198 -19 -107 34 -199 128 -224
119 -32 230 68 217 195 -3 29 -15 75 -27 102 -30 69 -142 273 -149 273 -3 0
-41 -66 -83 -148z m217 -270 c-9 -48 -30 -77 -70 -96 -62 -30 -69 -19 -18 32
27 26 55 62 62 79 17 42 35 32 26 -15z"/>
<path d="M8674 10632 c-21 -7 -21 -8 17 -102 48 -120 55 -165 40 -268 -18
-129 -75 -341 -109 -407 -41 -81 -66 -102 -164 -135 -95 -31 -85 -18 -181
-236 -29 -66 -80 -161 -112 -210 -164 -251 -196 -318 -274 -575 -87 -288 -272
-699 -552 -1227 -225 -422 -261 -497 -292 -590 -32 -95 -49 -237 -77 -627 -23
-327 -48 -614 -96 -1105 -93 -967 -109 -1083 -180 -1318 -94 -309 -141 -389
-644 -1082 -180 -248 -305 -435 -564 -837 -284 -443 -428 -648 -984 -1398
-352 -474 -372 -502 -372 -509 0 -3 987 -6 2194 -6 l2195 0 19 27 c10 16 61
100 112 188 140 241 291 462 459 675 109 138 368 398 501 504 140 112 144 115
453 315 136 88 309 207 385 263 162 122 395 349 572 558 68 80 151 177 185
215 34 39 105 125 159 192 118 150 232 276 482 538 105 110 273 287 374 394
101 106 218 223 259 259 167 143 516 388 704 493 42 24 75 44 74 46 -2 1 -19
-2 -38 -7 -19 -6 -165 -10 -326 -10 -161 0 -293 -2 -293 -3 0 -2 9 -30 20 -62
21 -61 26 -105 11 -105 -5 0 -11 12 -14 28 -3 15 -15 53 -27 85 l-21 57 -550
0 c-433 0 -549 -3 -549 -12 0 -7 59 -95 130 -195 177 -250 352 -544 331 -557
-5 -3 -31 33 -57 81 -72 132 -192 324 -285 453 -45 63 -101 141 -123 172 l-40
58 -409 0 -409 0 6 -30 c3 -17 31 -97 62 -178 55 -143 204 -579 218 -635 5
-21 3 -28 -6 -25 -7 3 -27 51 -45 107 -17 56 -86 250 -154 432 l-122 329 -414
0 c-268 0 -431 4 -461 11 -26 6 -89 31 -139 55 -191 91 -336 292 -372 515 -7
42 -11 502 -11 1329 l0 1265 -96 -102 c-63 -68 -125 -122 -180 -158 -59 -39
-89 -67 -103 -93 -31 -62 -61 -171 -61 -226 0 -62 26 -104 148 -241 45 -49 78
-93 75 -99 -6 -9 -44 28 -156 153 l-57 64 0 -34 c0 -19 7 -106 15 -193 12
-126 13 -161 3 -167 -20 -12 -25 -3 -31 58 -3 32 -16 150 -28 263 -11 113 -19
232 -16 266 l4 61 -56 -34 c-61 -37 -133 -61 -196 -65 -72 -5 -48 17 47 42 93
26 185 69 212 99 16 18 50 135 99 341 31 128 132 485 185 657 l20 62 -57 6
c-90 11 -243 43 -254 54 -21 21 2 21 70 2 39 -10 109 -22 156 -26 102 -9 85
-29 169 204 106 294 133 406 163 666 18 153 19 259 5 410 -35 373 -105 582
-240 716 -85 84 -154 118 -246 124 -38 2 -79 1 -90 -3z m-475 -1646 c29 -19
40 -31 33 -38 -9 -9 -87 36 -166 93 -5 4 -5 12 -2 18 5 7 21 2 49 -17 23 -16
62 -41 86 -56z m-111 -223 c22 -9 13 -25 -12 -19 -53 13 -116 46 -116 61 0 12
11 10 58 -11 31 -14 63 -28 70 -31z m309 -2047 c-47 -71 -180 -182 -323 -269
-162 -99 -470 -244 -496 -234 -7 3 10 15 37 27 213 96 283 130 375 182 144 83
251 162 339 252 74 74 99 90 68 42z m1073 -2060 c0 -303 -59 -652 -147 -860
-35 -85 -165 -305 -180 -306 -19 0 -17 7 30 84 137 224 196 382 236 638 17
102 41 417 41 521 0 16 4 26 10 22 6 -3 10 -48 10 -99z m355 -147 c9 -66 -65
-362 -142 -567 -63 -172 -183 -410 -183 -365 0 4 27 66 59 138 114 251 196
502 232 710 12 69 24 123 26 121 2 -2 6 -19 8 -37z m-2518 -1264 c257 -206
539 -301 981 -331 91 -6 117 -14 95 -27 -15 -9 -281 13 -403 34 -255 43 -454
130 -667 291 -73 55 -133 107 -133 114 0 8 2 14 4 14 3 0 58 -43 123 -95z
m203 -560 c92 -64 222 -140 400 -233 244 -128 398 -255 704 -581 215 -229 290
-299 419 -396 53 -39 75 -61 68 -68 -16 -16 -181 117 -316 255 -67 68 -172
177 -235 242 -146 151 -224 226 -330 316 -123 104 -176 138 -400 255 -111 58
-216 115 -233 127 -126 85 -186 132 -181 140 6 10 7 10 104 -57z m-347 -139
c40 -36 128 -108 197 -161 69 -52 197 -150 284 -217 301 -230 442 -363 742
-703 189 -214 304 -321 442 -414 44 -29 61 -46 54 -53 -7 -7 -33 5 -80 38
-131 91 -268 221 -416 392 -222 259 -463 497 -646 637 -85 66 -216 167 -290
225 -74 58 -162 125 -194 150 -109 82 -197 170 -170 170 3 0 38 -29 77 -64z
m357 -726 c0 -10 -326 -583 -490 -860 -53 -91 -156 -267 -228 -392 -164 -284
-184 -316 -190 -300 -2 7 41 90 96 185 55 94 183 316 284 492 102 176 253 437
335 580 83 143 156 270 162 283 12 22 31 30 31 12z"/>
<path d="M8566 10548 c-35 -80 -62 -193 -96 -397 -17 -102 -38 -216 -46 -254
-7 -37 -14 -86 -14 -108 0 -37 2 -39 29 -39 39 0 81 16 108 42 66 62 168 485
144 597 -17 79 -71 211 -87 211 -9 0 -25 -23 -38 -52z"/>
<path d="M13970 10531 c-95 -21 -200 -48 -205 -53 -3 -3 -9 -870 -6 -1016 l1
-94 78 42 c197 106 446 302 551 435 213 268 190 560 -52 671 -55 26 -75 29
-172 31 -77 2 -135 -3 -195 -16z"/>
<path d="M13835 9084 c-70 -10 -75 -13 -75 -44 l0 -31 30 16 c17 9 30 14 30
12 0 -3 -31 -65 -69 -138 -85 -164 -116 -254 -132 -384 -24 -203 22 -359 139
-467 77 -71 147 -99 270 -105 119 -7 203 13 262 64 52 45 57 55 126 258 56
165 58 173 58 280 1 126 -14 184 -71 279 -71 116 -191 208 -317 242 -54 15
-201 25 -251 18z m380 -279 c66 -31 158 -131 185 -200 42 -109 37 -310 -8
-310 -7 0 -25 37 -41 83 -54 156 -155 277 -281 335 -36 17 -67 31 -68 33 -11
8 14 48 41 65 39 25 112 22 172 -6z"/>
<path d="M14068 8789 c-24 -14 -22 -26 5 -35 34 -10 139 -88 180 -133 38 -42
89 -125 120 -196 l17 -40 -4 75 c-2 44 -13 99 -25 132 -51 133 -215 243 -293
197z"/>
<path d="M9112 8605 c-29 -80 -65 -192 -81 -248 -16 -56 -54 -187 -85 -292
-65 -222 -129 -485 -120 -494 9 -9 334 330 340 354 2 11 3 201 2 423 l-3 403
-53 -146z"/>
<path d="M13830 7632 c-65 -17 -65 -17 -68 -56 l-3 -39 27 22 c27 21 64 28 64
12 0 -11 -159 -209 -241 -300 -68 -76 -113 -161 -129 -248 -18 -90 -8 -244 19
-315 25 -64 94 -147 154 -185 96 -61 235 -85 335 -59 118 30 188 81 330 239
158 175 202 268 202 421 0 150 -47 265 -149 366 -138 137 -348 192 -541 142z
m311 -395 c139 -71 183 -206 120 -370 -25 -65 -140 -230 -163 -235 -11 -2 -18
9 -23 35 -12 70 -55 185 -85 228 -47 68 -123 147 -184 190 -70 50 -69 67 4
118 67 46 126 65 207 66 50 1 72 -5 124 -32z"/>
<path d="M13950 7236 c-63 -14 -127 -45 -153 -74 -17 -19 -16 -20 20 -48 148
-111 196 -170 252 -310 22 -54 44 -99 48 -99 17 1 114 160 129 212 28 95 7
180 -60 251 -61 66 -141 89 -236 68z"/>
<path d="M13824 6075 c-146 -32 -269 -126 -315 -240 -20 -51 -24 -78 -24 -175
0 -111 1 -118 33 -183 75 -153 286 -256 525 -257 42 0 77 -4 77 -9 0 -5 -21
-19 -46 -31 -40 -20 -56 -22 -117 -16 -39 4 -100 13 -136 21 -35 9 -66 13 -68
11 -2 -2 -11 -30 -19 -62 -28 -107 -105 -231 -193 -312 l-36 -34 40 23 c22 13
103 56 179 96 290 152 539 348 609 480 31 59 67 189 67 242 0 56 -27 167 -54
227 -82 179 -294 269 -522 219z m203 -134 c61 -28 120 -94 138 -154 18 -60 18
-70 4 -120 -20 -75 -116 -147 -211 -160 -45 -7 -44 -9 -53 133 -8 117 -26 162
-102 241 -46 48 -54 62 -43 69 8 6 62 10 120 10 82 0 114 -5 147 -19z"/>
<path d="M13817 5934 c-15 -5 -11 -13 24 -52 67 -77 91 -133 99 -239 4 -51 9
-96 13 -99 3 -3 30 1 59 10 133 38 174 175 89 293 -40 55 -99 82 -192 87 -41
3 -82 3 -92 0z"/>
</g>
</svg>
